<?xml version="1.0" encoding="UTF-8"?>
<svg xmlns="http://www.w3.org/2000/svg" version="1.1" viewBox="0 0 100 100">
  <!-- Generator: Adobe Illustrator 29.0.0, SVG Export Plug-In . SVG Version: 2.1.0 Build 186)  -->
  <defs>
    <style>
      .st0 {
        fill: #e5424a;
      }

      .st1 {
        display: none;
      }

      .st2 {
        fill: #141315;
      }
    </style>
  </defs>
  <g id="Layer_1" class="st1">
    <g>
      <path class="st0" d="M75.5,39.4c-3.3,0-6.5,0-9.8.1-.2,0-.4,0-.6.2-.8-.5-1.8,0-2.1.8,0,0,0,0,0,.1-.2.4-.1.7,0,1-.1,0-.1.4,0,.7-.5,2.7-1.5,4.3-3.6,5.9-4.3,2-9.5,3.6-13.8,1.4-.4-.2-.9-.2-1.2,0-.9-.5-1.8-1-2.6-1.6,0,0,0,0,0,0-2.1-2.1-3.6-4.8-4.5-7.8,0-.2-.1-.3-.2-.4.2-.7-.1-1.3-.6-1.7-.2-.3-.6-.5-1.1-.5-3.7.1-7.3,0-11-.4-1.3-.2-2.1.9-1.6,2.1.4.8.2,2.1.4,3,.1.6.8,1,1.4,1,1.6,0,3.2-.1,4.8-.3,1.6-.1,3,.4,4.5.5,0,0,.1,0,.2,0,.1.3.2.6.3.9-.4.5-.5,1.3,0,1.9.1.1.3.3.4.4,0,.2,0,.5.2.7,1.7,3.4,3.5,6.8,6.8,8.7,3.6,2.1,8.6,2.5,12.6,2,3.3-.4,7.5-1.6,9.6-4.4.9-1.3,1.6-2.6,2.2-4.1.7-1.8.9-4,1.7-5.7,1.1,0,2.2,0,3.3,0,1.6,0,3.1.4,4.8.2.8,0,1.4-.6,1.4-1.4,0-.7.2-1.3.4-2,.4-1.3-1-2-2-1.6Z"/>
      <path class="st2" d="M21.8,37.3c.5,10.9,2,21.9,3.3,32.7s1.4,11.4,2.2,17.1.5,3.2.9,4.8,1,1.7,2.6,2.1c5.1,1.2,10.5,1.1,15.7,1.3s11.5.6,17.2.3,6-.3,7.1-2.8.6-2.9.8-4.3c.7-4.8,1.3-9.6,1.9-14.4,1.5-11.1,2.9-22.1,4.3-33.2s.1-.9.2-1.4-.3-.6-.6-.6c-4.8-.2-9.6-.3-14.4-.1s-.6.3-.6.6c.1,3.1-1,6.4-3.7,8.1s-6.3,2.7-9.6,2.3-6.7-1.8-8.8-4.3-2.3-5.5-2.6-8.1-.3-.6-.6-.6c-2,0-3.9.1-5.9.1-2.9,0-5.8-.3-8.6-.3s-.8,1.2,0,1.2c2.9,0,5.8.3,8.6.3s3.9-.1,5.9-.1l-.6-.6c.3,2.9.9,6.5,2.9,8.8s6.3,4.4,9.9,4.8,7.6-.6,10.7-2.8,4-5.6,3.9-8.9l-.6.6c4.8-.1,9.6,0,14.4.1l-.6-.6c-1,9.6-2.4,19.1-3.6,28.6s-1.4,11.1-2.2,16.6-.4,3.1-.7,4.7-.4,3.5-2.4,4.1-4.9.7-7.4.7-6.1,0-9.1-.2c-5.2-.1-10.5,0-15.6-.6s-3-.4-4.5-.8-1.1-.2-1.6-.5c.2,0,0,0,0,0-.4-1.1-.6-2.4-.8-3.6-.9-5.1-1.5-10.2-2.1-15.4-1.4-11.3-2.7-22.7-3.5-34s0-1.4-.1-2-1.3-.8-1.2,0h0Z"/>
      <path class="st2" d="M23,43.6c3.5,0,7,.2,10.4.3l-.6-.5c.7,2,1.1,4.1,2,6,1.6,3.2,4.1,6,7.3,7.6s10.2,2.4,15,1.2,6.7-2.8,8.6-6,1.7-5.4,2.8-8l-.6.5c2.9,0,5.7.1,8.6.3s.8-1.2,0-1.2c-2.9-.2-5.7-.3-8.6-.3s-.5.2-.6.5c-.8,2.1-1.1,4.4-2,6.4-1.3,3-3.8,5.2-6.9,6.3-4.6,1.6-10.3,1.6-14.8-.2s-5.9-3.9-7.5-7.1-1.4-4.1-2.2-6.2-.3-.5-.6-.5c-3.5,0-7-.3-10.4-.3s-.8,1.2,0,1.2h0Z"/>
      <path class="st2" d="M32.2,87.5v5.8c0,.8,1.2.8,1.2,0v-5.8c0-.8-1.2-.8-1.2,0h0Z"/>
      <path class="st2" d="M38.4,90v3.9c0,.3.3.6.6.6s.6-.3.6-.6v-3.9c0-.3-.3-.6-.6-.6s-.6.3-.6.6h0Z"/>
      <path class="st2" d="M46.2,88.2v5.9c0,.8,1.2.8,1.2,0v-5.9c0-.8-1.2-.8-1.2,0h0Z"/>
      <path class="st2" d="M52.6,91.3v3.1c0,.3.3.6.6.6s.6-.3.6-.6v-3.1c0-.3-.3-.6-.6-.6s-.6.3-.6.6h0Z"/>
      <path class="st2" d="M58.4,88.6v5.9c0,.8,1.2.8,1.2,0v-5.9c0-.8-1.2-.8-1.2,0h0Z"/>
      <path class="st2" d="M63.9,91v3.7c0,.3.3.6.6.6s.6-.3.6-.6v-3.7c0-.3-.3-.6-.6-.6s-.6.3-.6.6h0Z"/>
      <path class="st2" d="M39.3,70.2c1,.4,2.1.7,3.1,1s.9.3,1.3.4.2,0,.3.1.2,0,0,0,0,0,0,0c.3.1.5.2.8.4s.2.1.3.2c.2,0-.2-.1,0,0s0,0,0,0c0,0-.2-.2,0,0,0-.1-.1-.3-.1-.4,0,0,0-.3,0-.2s.2-.3,0-.1.2-.2,0,0-.1.1-.2.2,0,0-.1.1c0,0,.2-.2,0,0s-.2.2-.3.2c-.8.5-1.6,1.1-2.4,1.5s-.5.2-.8.3,0,0-.1,0c-.3.1.2,0,0,0s-.3.1-.4.2c-.5.2-1,.4-1.5.6s-.8,1.2-.4,1.7,1.1.7,1.7.4-.1,0-.1,0c0,0,0,0,.1,0,0,0,.2,0,.3-.1.2-.1.5-.2.7-.3.6-.2,1.1-.5,1.7-.7,1-.5,1.9-1,2.7-1.7s1-.7,1.3-1.3.3-1.5-.3-2.1-1-.8-1.6-1-1.2-.5-1.8-.7c-1.3-.4-2.6-.8-3.9-1.3s-1.4.3-1.5.9.2,1.3.9,1.5h0Z"/>
      <path class="st2" d="M61.7,74.7c-1-.4-2.1-.7-3.1-1s-.9-.3-1.3-.4-.2,0-.3-.1-.2,0,0,0,0,0,0,0c-.3-.1-.5-.2-.8-.4s-.2-.1-.3-.2c-.2,0,.2.1,0,0s0,0,0,0c0,0,.2.2,0,0,0,.1.1.3.1.4,0,0,0,.3,0,.2s-.2.3,0,.1-.2.2,0,0,.1-.1.2-.2,0,0,.1-.1c0,0-.2.2,0,0s.2-.2.3-.2c.8-.5,1.6-1.1,2.4-1.5s.5-.2.8-.3,0,0,.1,0c.3-.1-.2,0,0,0s.3-.1.4-.2c.5-.2,1-.4,1.5-.6s.8-1.2.4-1.7-1.1-.7-1.7-.4.1,0,.1,0c0,0,0,0-.1,0,0,0-.2,0-.3.1-.2.1-.5.2-.7.3-.6.2-1.1.5-1.7.7-1,.5-1.9,1-2.7,1.7s-1,.7-1.3,1.3-.3,1.5.3,2.1,1,.8,1.6,1,1.2.5,1.8.7c1.3.4,2.6.8,3.9,1.3s1.4-.3,1.5-.9-.2-1.3-.9-1.5h0Z"/>
      <path class="st2" d="M45.6,76.2c-.1,2.1.9,4.2,2.9,5.1s4,.6,5.3-.9,1.3-2.3,1.3-3.7-1.2-.8-1.2,0-.2,1.9-.8,2.7-1,.9-1.7,1-1.4,0-2.1-.2-.7-.3-1-.5-.6-.5-.7-.7c-.6-.8-.8-1.8-.7-2.8s-1.2-.8-1.2,0h0Z"/>
      <path class="st2" d="M25.7,43.1c0,.9.2,1.8.3,2.7s.5.5.8.4.5-.4.4-.8,0-.4-.1-.6,0-.2,0-.3,0-.2,0,0c0,0,0,0,0-.1,0-.4,0-.8,0-1.2s-.3-.6-.6-.6-.6.3-.6.6h0Z"/>
      <path class="st2" d="M30.1,43.2c0,.5,0,1.1,0,1.6s0,1,0,1.5.3.6.6.6.6-.3.6-.6,0-1,0-1.5,0-.5,0-.7,0-.2,0-.3,0-.1,0-.2,0-.2,0,0c0-.2,0-.3,0-.5s-.2-.3-.4-.3c-.3,0-.7,0-.8.4h0Z"/>
      <path class="st2" d="M35.1,49.1c-1,.3-2,.8-3,1.3s-.4.6-.2.9.6.4.9.2c.5-.3.9-.5,1.4-.7s.2-.1.3-.1c-.2,0,0,0,0,0,0,0,.1,0,.2,0,.2,0,.5-.2.7-.2s.5-.4.4-.8-.4-.5-.8-.4h0Z"/>
      <path class="st2" d="M38.4,53.8c-.1.2-.2.4-.4.5h0c-.4.4-.9.9-1.3,1.3s-.2.7,0,.9.6.2.9,0c.6-.6,1.3-1.3,1.8-2.1s0-.7-.2-.9-.7,0-.9.2h0Z"/>
      <path class="st2" d="M43.9,57.3c-.2.4-.4.9-.6,1.4s0,.2-.1.3c0-.1,0,0,0,0,0,0,0,.1,0,.2,0,.2-.2.4-.3.6s0,.7.2.9.7,0,.9-.2c.2-.4.4-.9.6-1.4s0-.2.1-.3c0,.1,0,0,0,0,0,0,0-.1,0-.2,0-.2.2-.4.3-.6s0-.7-.2-.9-.7,0-.9.2h0Z"/>
      <path class="st2" d="M51.7,58.7c0,.5,0,.9,0,1.4s0,.1,0,.2c0,.2,0-.1,0,0s0,.2,0,.3c0,.2,0,.4-.1.6s0,.3,0,.5.2.3.4.3c.3,0,.7,0,.8-.4.2-.9.3-1.9.3-2.8s-.3-.6-.6-.6-.6.3-.6.6h0Z"/>
      <path class="st2" d="M59.2,57.5c0,0,.1.2.2.3s0,0,0,.1c0,0,0,0,0,0,0,0,0,0,0,0,0,.2.1.4.2.6.1.4.2.8.4,1.2s.4.5.8.4.5-.4.4-.8c-.3-.9-.4-1.8-.9-2.5s-.6-.4-.9-.2-.4.6-.2.9h0Z"/>
      <path class="st2" d="M64.2,54.2c.3.2.7.4,1,.7h-.1c.3.1.6.4.8.6s.7.2.9,0,.2-.6,0-.9c-.6-.6-1.3-1.1-2-1.5s-.7,0-.9.2,0,.7.2.9h0Z"/>
      <path class="st2" d="M66.6,49c.6.3,1.2.6,1.8.8s.3,0,.5,0,.3-.2.3-.4c0-.3,0-.7-.4-.8s-.5-.2-.8-.3h.1c-.3,0-.6-.2-.9-.4s-.3-.1-.5,0-.3.2-.4.3c-.1.3,0,.7.2.9h0Z"/>
      <path class="st2" d="M70.8,44.5c0,.7,0,1.3.2,2s.2.3.3.4.3.1.5,0c.3-.1.5-.4.4-.8s0-.3,0-.4v.2c0-.5,0-.9,0-1.4s-.3-.6-.6-.6-.6.3-.6.6h0Z"/>
      <path class="st2" d="M73.8,44.5c0,.7,0,1.4.2,2.1s.5.5.8.4.5-.4.4-.8,0-.3,0-.4v.2c0-.5,0-1,0-1.6s-.3-.6-.6-.6-.6.3-.6.6h0Z"/>
      <path class="st2" d="M40,79.8c.8,0,.8-1.2,0-1.2s-.8,1.2,0,1.2h0Z"/>
      <path class="st2" d="M42.3,78.9c.8,0,.8-1.2,0-1.2s-.8,1.2,0,1.2h0Z"/>
      <path class="st2" d="M41.9,81.3c.8,0,.8-1.2,0-1.2s-.8,1.2,0,1.2h0Z"/>
      <path class="st2" d="M57.1,78.2c.8,0,.8-1.2,0-1.2s-.8,1.2,0,1.2h0Z"/>
      <path class="st2" d="M59.5,79.6c.8,0,.8-1.2,0-1.2s-.8,1.2,0,1.2h0Z"/>
      <path class="st2" d="M57.4,80.5c.8,0,.8-1.2,0-1.2s-.8,1.2,0,1.2h0Z"/>
      <path class="st2" d="M31.5,37.4c0-4.4,0-8.8.1-13.1s.5-7.6.3-11.4l-.8.6c1.5.2,3,0,4.5,0l-.6-.6c-.3,8.2-.6,16.4-.6,24.7s1.2.8,1.2,0c0-8.2.3-16.4.6-24.7s-.3-.6-.6-.6c-1.4,0-2.8.2-4.2,0s-.8.2-.8.6c.2,3.8-.2,7.6-.3,11.4s-.1,8.8-.1,13.1,1.3.8,1.2,0h0Z"/>
      <path class="st2" d="M64.9,39.3c0-4.4,0-8.8.1-13.1s.5-7.6.3-11.4l-.8.6c1.5.2,3,0,4.5,0l-.6-.6c-.3,8.1-.6,16.2-.6,24.3s1.2.8,1.2,0c0-8.1.3-16.2.6-24.3s-.3-.6-.6-.6c-1.4,0-2.8.2-4.2,0s-.8.2-.8.6c.2,3.8-.2,7.6-.3,11.4s-.1,8.8-.1,13.1,1.3.8,1.2,0h0Z"/>
      <path class="st2" d="M40.5,45.4c0-4.5,0-8.9.1-13.3s.5-7.5.3-11.2l-.8.6c1.5.2,3,0,4.5,0l-.6-.6c-.1,7.4-.3,14.7-.4,22.1s0,4.1,0,6.1,1.2.8,1.2,0c0-8.5.2-17,.4-25.4s0-1.9,0-2.8-.3-.6-.6-.6c-1.4,0-2.8.2-4.2,0s-.8.2-.8.6c.2,3.7-.2,7.5-.3,11.2s-.1,8.9-.1,13.3,1.3.8,1.2,0h0Z"/>
      <path class="st2" d="M57.1,48.7c0-4.2,0-8.4.2-12.6s.7-10.3.5-15.5l-.8.6c1.5.2,3,0,4.5,0l-.6-.6c-.3,8.5-.7,16.9-.7,25.4s1.2.8,1.2,0c0-8.5.4-16.9.7-25.4s-.3-.6-.6-.6c-1.4,0-2.8.2-4.2,0s-.8.2-.8.6c.2,5.1-.3,10.3-.5,15.5s-.2,8.4-.2,12.6,1.2.8,1.2,0h0Z"/>
      <path class="st2" d="M48,50.1c0-7.7,0-15.3.2-23s.5-14.7.3-22.1l-.8.6c1.5.4,3-.2,4.5,0l-.6-.6c-.2,11.6-.4,23.3-.5,34.9,0,3.4,0,6.9,0,10.3s1.2.8,1.2,0c0-13.6.3-27.2.5-40.8s0-2.9,0-4.4-.3-.6-.6-.6c-1.4-.2-2.8.4-4.2,0s-.8.2-.8.6c.2,7.3-.2,14.7-.3,22.1s-.2,15.3-.2,23,1.2.8,1.2,0h0Z"/>
      <path class="st2" d="M38.3,41.3c-.2-5.2-.1-10.3.1-15.5s.3-11.2.3-16.9l-.8.6c1.7.2,3.4.3,5.1.3l-.6-.6c-.2,3.8.1,7.7,0,11.5s1.2.8,1.2,0c.1-3.8-.2-7.7,0-11.5s-.3-.6-.6-.6c-1.6,0-3.2,0-4.8-.2s-.8.2-.8.6c0,5.6,0,11.2-.3,16.9s-.4,10.3-.1,15.5,1.3.8,1.2,0h0Z"/>
      <path class="st2" d="M54.7,49.8c.5-7.5.6-15.1.8-22.6s0-10.6.5-15.9l-.6.6h4.4l-.6-.6c0,3.1-.1,6.2-.3,9.3s1.2.8,1.2,0c.2-3.1.3-6.2.3-9.3s-.3-.6-.6-.6h-4.4c-.4,0-.6.3-.6.6-.5,5.3-.4,10.6-.5,15.9-.2,7.5-.3,15.1-.8,22.6s1.2.8,1.2,0h0Z"/>
      <path class="st2" d="M61.8,20.6c.2-4.9.3-9.8.4-14.7l-.6.6c1.5,0,3.1,0,4.6.1l-.6-.6c0,2.9.3,5.8.1,8.7s1.2.8,1.2,0c.1-2.9-.1-5.8-.1-8.7s-.3-.6-.6-.6c-1.5-.1-3.1-.1-4.6-.1s-.6.3-.6.6c0,4.9-.2,9.8-.4,14.7s1.2.8,1.2,0h0Z"/>
      <path class="st2" d="M68.4,14.7c0-2.1.1-4.1.1-6.2l-.6.6c1.7,0,3.4.2,5.1.2l-.6-.6c0,6-.7,11.9-.5,17.9s-.3,8.5-.4,12.7,1.2.8,1.2,0c0-4.2.5-8.5.4-12.7s.5-11.9.5-17.9-.3-.6-.6-.6c-1.7,0-3.4-.2-5.1-.2s-.6.3-.6.6c0,2.1-.1,4.1-.1,6.2s1.2.8,1.2,0h0Z"/>
      <path class="st2" d="M28.1,37.2c-.3-9.8-.4-19.6-.3-29.4l-.6.6h5.1l-.6-.5c.3,1.6.3,3.1.3,4.7s1.2.8,1.2,0c0-1.7,0-3.3-.3-5s-.3-.5-.6-.5h-5.1c-.3,0-.6.3-.6.6-.1,9.8,0,19.6.3,29.4s1.3.8,1.2,0h0Z"/>
    </g>
  </g>
  <g id="Layer_2" class="st1">
    <g>
      <path class="st0" d="M60,50.1c-1-.5-2-1-2.9-1.5.1-.2.1-.5,0-.7h0s0,0,0,0c.7-.9,1.4-1.8,1.8-2.9.2-.6-.6-1.1-1.1-.6-.9.9-1.8,1.9-2.6,2.9-.5-1.1-.9-2.3-2.1-3-.4-.3-1,0-1,.5,0,.5.1.9.4,1.3,0,.1.2.3.3.5,0,.1,0,.3,0,.4,0,.1.1.3.2.4,0,0,0,.2,0,.3-.1.2-.2.4-.2.6-1.2.2-2.5.2-3.7.5-.6.1-.6,1.1,0,1.2,1.3.2,2.6.2,4,.2,0,.8,0,1.6-.1,2.3,0,.2,0,.4.2.5,0,.3,0,.5-.1.8,0,.7.9.8,1.2.3.4-.6.5-1.3.6-2,.1-.6.3-1.2.6-1.8,1.3.5,2.7.5,4,.9.7.2,1.1-.9.5-1.2Z"/>
      <path class="st0" d="M75.4,42.2c0,0,0-.2,0-.3.2-.2.2-.5,0-.7.3-.4.2-1.1-.4-1.1-1.6,0-3.2,0-4.8-.1-1-.1-2-.2-2.9.3-1.2.7-3.2,2.3-3.3,3.8,0,.3,0,.6.2.7,0,.2.2.4.4.5,2.3.7,4.6,0,6.7-1.1,0,.2,0,.4,0,.6,0,.3,0,.7,0,1,0,0,0,0,0,0-.2.5-.4,1-.7,1.5-.3.7-.7,1.8-.2,2.6.6.9,1.5.7,2.4.4,0,0,.1,0,.2,0,.2,0,.4-.1.6-.2.3.2.8,0,.9-.4.4-1,.4-2.1.5-3.2,0-1.3.5-2.6.6-4,0-.3-.1-.4-.3-.5Z"/>
      <path class="st0" d="M45.9,57.3c-2.4-1.3-5.1-1.7-7.6-2.6,1.2-1.9,2.4-3.9,3-6.1,0-.1,0-.2,0-.3,0-.2,0-.4.1-.6,0-.4-.4-.7-.8-.6-2.5.9-4.5,2.6-6.7,3.9,0,0,0,0,0,0-.3,0-.5.2-.5.6,0,1.9.3,3.8.6,5.7,0,0,0,.2,0,.2,0,.1,0,.2,0,.3-.2,1.8.1,3.6.6,5.3,0,.7,0,1.5.1,2.2.3,1.5,1.1,2.3,2.6,2.6.2,0,.3.2.5.2,1.6,0,0-4.7-1-7.8,1.8,0,3.6-.5,5.4-.6,1.3-.1,2.9-.3,3.8-1.4.2-.3.3-.8-.1-1Z"/>
      <path class="st0" d="M72.5,79.9c0-1.1.2-2.3.4-3.4.4-3.8,1.2-7.7.9-11.6,0-.7-1-.8-1.2-.3-.1,0-.2.1-.3.3,0,0,0,0,0,0-.2,0-.3.2-.4.4-.3.8-.5,1.7-.7,2.6-.1.1-.2.3-.1.5,0,0,0,0,0,0-.1.1-.3.3-.3.5,0,.3,0,.6,0,.9,0,0,0,0,0,.1,0,.1-.1.2-.2.3-2,.3-4.5.2-6.2,1.3-.5.3-.4,1,.1,1.2,0,0,0,.2.1.3,1,1.1,2.3,1.8,3.6,2.5,0,.9-.3,1.8-.5,2.6-.3.8-.8,1.7-.8,2.6,0,.8.3,1.6,1.3,1.6.4,0,.8-.2,1.2-.4.9-.3,1.8-.8,2.6-1.4.2.1.6,0,.7-.1,0-.1,0-.3,0-.4Z"/>
      <path class="st0" d="M61.8,79.4c-1.3-.2-2.8,0-4,.5.2-1.2.6-2.3.5-3.6,0-.5-.7-.9-1.1-.4-.9.9-1.5,2.1-1.8,3.3-1.1-.8-2-1.8-3.4-1.9-.5,0-.8.6-.5,1,.7,1,2,1.4,2.6,2.5-.6.5-1.2,1-1.6,1.6,0,.1-.1.3-.1.4-.2.2-.4.4-.6.6-.4.5,0,1.2.6,1.1.3,0,.6-.2.9-.4.1,0,.2,0,.3,0,.8-.5,1.6-1,2.3-1.5.4.4.7.8,1.1,1.2,0,.2,0,.3.2.4.3.4.5.9.8,1.3.2.3.5.3.7.3.4,0,.8-.5.6-1-.5-1-.5-2.1-.7-3.2,1.1-.2,2.3-.4,3.4-.8.7-.2.5-1.2-.2-1.2Z"/>
      <path class="st0" d="M71.7,88.8c0-.4-.4-.6-.7-.6-.5-.5-1.2-.9-1.9-.5-.5.2-.7.8-.7,1.3,0,.3,0,.7.2,1,0,0,0,.1.1.2-.9-.3-1.9-.5-2.7-.1-.1,0-.2,0-.4,0-.5,0-.9.7-.4,1.1.2.2.4.4.6.5.3.5.6,1.1.9,1.6.1.3.5.3.7.3,1.1-.2,2.6-.2,3.5-.9.9-.7.8-2.2.6-3.2,0,0,.1-.2.1-.4v-.2Z"/>
      <path class="st0" d="M46.9,87.1c.3-.5-.3-1.2-.9-.9-1.2.8-2.7.9-4.1.8-.3-.3-.7-.5-1-.9.1-1.1,0-2.3.2-3.4,0-.2,0-.4-.2-.5,0-.3,0-.5.1-.8.1-.7-.8-1.1-1.1-.6,0,0-.1,0-.2,0-.2,0-.4.2-.4.4-.6.7-1.2,1.4-1.8,2-.3.3-.6.7-.6,1.1,0,1.9.3,4,.7,5.9,0,.1,0,.2,0,.4.6,1.6,3.5,1.6,4.8,2.1.5.2.9-.4.8-.8.8-.8,1.5-1.6,2.1-2.5,0,0,0,0,0,0,.1-.1.3-.3.4-.4.4-.4.8-.9,1-1.5,0-.2,0-.3,0-.5,0,0,0,0,0,0Z"/>
      <path class="st2" d="M33.2,39.8c0-1.6-.2-3.2-.4-4.8s-.9-3.6.9-3.8,2.5,0,3.7,0,3,0,4.5,0,.6-.3.6-.6c0-1.3,0-2.5.2-3.8l-.6.6c3.4-.1,6.9,0,10.3-.3l-.6-.6c0,1.2.2,2.4.3,3.5s.2.6.5.6c1.2.2,2.4,0,3.6,0,2.1,0,4.3,0,6.4-.1s4.6-.1,6.8-.1,3.2,0,4.7.2,1.7,1.4,1.7,2.7c0,2.2-.2,4.5-.5,6.7l.6-.6c-5.3.3-10.7,0-16,0s-14.4-.1-21.6-.2-3.9,0-5.8,0-.8,1.2,0,1.2c12.1.4,24.3.3,36.5.3s4.6,0,6.9,0,.6-.3.6-.6c.3-2.1.4-4.3.5-6.4s0-2.5-.8-3.4-2.8-1-4.2-1c-4.7-.1-9.4.1-14.1.2s-3.5.2-5,0l.5.6c0-1.2-.2-2.4-.3-3.5s-.3-.7-.6-.6c-3.4.2-6.9.2-10.3.3s-.6.3-.6.6c0,1.3-.1,2.5-.2,3.8l.6-.6c-1.8,0-3.6,0-5.4,0s-2.8-.4-4.1.3-1.3,2.1-1.1,3.4c.2,2.1.6,4.1.6,6.2s1.3.8,1.2,0h0Z"/>
      <path class="st2" d="M50.8,26.2c-1.2-4.8-2.2-9.7-3.4-14.5s-.8-3.5-1.5-5.1-1-1.9-2-2.2c-1.7-.4-3.9,0-5.6.3-2.9.4-5.9.8-8.8,1.2s-5.3.9-8,1.1-.6.3-.6.6c0,1.5.2,2.9.3,4.4s.3.7.6.6c5.4-.4,10.7-1.9,16.1-2.4s1.6-.3,2.3,0c1.4.5,1.5,3.2,1.8,4.4.9,3.9,1.7,7.9,2.4,11.9s1.4.5,1.2-.3c-.6-3.5-1.3-7-2.1-10.4s-.6-5.6-2.8-6.6-3-.1-4.2,0c-2.4.3-4.9.7-7.3,1.1s-4.9.9-7.4,1.1l.6.6c0-1.5-.2-2.9-.3-4.4l-.6.6c4.8-.5,9.6-1.4,14.4-2.1s4.5-.7,6.7-.7,1.2,0,1.7.8c.9,1.4,1.1,3.2,1.5,4.7,1.3,5.1,2.4,10.3,3.6,15.4s1.4.4,1.2-.3h0Z"/>
      <path class="st2" d="M44,5.4c-.9,1.6-2,3.1-3.3,4.4s.3,1.5.9.9,1.3-1.4,1.9-2.2,1.1-1.6,1.6-2.4,0-.7-.2-.9-.7,0-.9.2h0Z"/>
      <path class="st2" d="M41.9,4.8c-.5.7-.9,1.5-1.2,2.3s-.5,1.5-1,2.2,0,.7.2.9.7,0,.9-.2c.5-.7.8-1.5,1.1-2.3s.3-.7.4-1,.2-.4.3-.5,0-.2.2-.2,0,0,0-.1c0,0,.1-.2,0,0,.2-.3.3-.6,0-.9s-.7-.3-.9,0h0Z"/>
      <path class="st2" d="M39.3,5.2c-.5,1.4-1,2.8-1.4,4.2s.1.7.4.8.7-.1.8-.4c.4-1.4.9-2.8,1.4-4.2s-.1-.7-.4-.8-.7.1-.8.4h0Z"/>
      <path class="st2" d="M36.9,5.6c0,1.3,0,2.7-.2,3.9s0,.7.4.8.7,0,.8-.4c.2-1.4.3-2.8.3-4.3s-.3-.6-.6-.6-.6.3-.6.6h0Z"/>
      <path class="st2" d="M42.2,11.4c.3-.3.6-.5.9-.7s.7-.5,1-.7c.7-.5,1.4-.9,2-1.5s.3-.7,0-.9-.6-.3-.9,0-.3.3-.4.4-.1.1-.2.2,0,0,0,0,0,0-.1,0c-.3.2-.7.5-1,.7-.7.5-1.4.9-2,1.5s-.2.7,0,.9.6.2.9,0h0Z"/>
      <path class="st2" d="M42.6,12.5c1.3-.7,2.6-1.3,3.9-2s.4-.6.2-.9-.5-.4-.9-.2c-1.3.6-2.6,1.2-3.9,2s-.4.6-.2.9.6.4.9.2h0Z"/>
      <path class="st2" d="M42.4,13.8c1.6-.2,3.1-.7,4.5-1.3s.4-.6.2-.9-.5-.4-.9-.2c-1.2.5-2.6,1-3.9,1.1s-.6.3-.6.6.3.7.6.6h0Z"/>
      <path class="st2" d="M32.6,38.3h43.2c.8,0,.8-1.2,0-1.2h-43.2c-.8,0-.8,1.2,0,1.2h0Z"/>
      <path class="st2" d="M31.9,40c.4,8.8,1.4,17.7,2.2,26.5s1,10,1.6,15,.4,3.9.7,5.8.1,2.6.5,3.7,3,1.7,4,2c1.9.7,3.8,1.2,5.7,1.6,3.6.7,7.3,1,10.9.8s6.1-.6,9.1-1.4,2.5-.7,3.7-1.2,1.5-.4,1.7-1.3c.5-2.9.6-6,.9-8.9.4-4.8.8-9.6,1.2-14.4.7-8.9,1.4-17.8,2.2-26.6s.1-1.2.2-1.7-1.2-.8-1.2,0c-1.5,14.7-2.4,29.4-3.7,44.1s-.4,5.3-.8,7.9l.3-.5c-6.3,2.7-13.4,3.4-20.2,2.7s-4.4-.6-6.5-1.2-2.1-.6-3.1-1-1-.4-1.5-.6-1.5-.5-1.6-.6c-.2-.3-.2-1.4-.3-1.8-.1-.8-.2-1.7-.3-2.5-1.3-10.7-2.4-21.4-3.3-32.1s-.9-9.5-1.1-14.3-1.3-.8-1.2,0h0Z"/>
      <path class="st2" d="M67.1,39.7c-.8.6-1.6,1.3-2.3,2.1s-1.6,1.7-1.5,2.8c0,2.4,3.8,1.6,5.2,1.3s2.1-.6,3.1-.8l-.8-.6c0,2-2.2,4.2-.9,6.2s3.6.7,5,.2.4-1.5-.3-1.2-1.4.5-2.1.6-1.4.2-1.6-.4.2-1.8.5-2.5.7-1.8.7-2.8-.4-.7-.8-.6c-1,.2-2,.5-3.1.8s-2.3.6-3.3.3-.4-.2-.3-.5c0-.5.5-1,.9-1.4.8-.9,1.7-1.6,2.6-2.4s-.3-1.4-.9-.9h0Z"/>
      <path class="st2" d="M34.5,67.1c.9,1.2,4.4,3.8,4.7.8s-1.1-5.3-1.7-7.7l-.4.8c1.8-.4,3.6-.4,5.5-.6s2.7-.3,3.6-1.2c2.9-2.7-6.4-4.7-7.6-5.1l.4.9c.9-1.8,1.7-3.6,2.6-5.3s1.5-2.3.5-3.1-2.3,0-3.1.5c-1.9,1-3.9,2-5.7,3.2s0,1.5.6,1.1c1.3-.9,2.7-1.6,4.2-2.4s2.6-1.8,3.1-1.5-1,2.1-1.1,2.4c-.7,1.5-1.4,2.9-2.2,4.4s0,.8.4.9c1.9.7,3.9.9,5.7,1.8s1.5.7,1.5,1.1-.9.5-1.1.5c-2.4.7-5.1.5-7.5,1s-.5.5-.4.8c.4,1.8,1.1,3.6,1.5,5.5s.4,1.6.2,2-2.1-1.2-2.3-1.5c-.5-.6-1.6,0-1.1.6h0Z"/>
      <path class="st2" d="M74.2,64.2c-2-1.9-3.2,1-3.6,2.7s-.3,1.8-.6,2.6-.8.5-1.4.5c-1,0-2,.3-3,.5s-2.7.6-2.4,2,1.7,2,2.6,2.5,1.5.5,1.8,1-.3,1.5-.4,1.9c-.5,1.2-1.4,3.2-.7,4.5,1.2,2.3,4.7-1,6.2-1.4s.4-1.4-.3-1.2-1.7.8-2.5,1.3-1.8,1.2-2.2.8,0-1.3,0-1.6c.2-.8.5-1.5.8-2.2s.9-2.2,0-3-.9-.5-1.3-.7-1-.6-1.5-.9-1.1-.7-1.1-1.1,1.1-.5,1.4-.5c.8-.2,1.6-.3,2.5-.4s1.3,0,1.8-.2,1.1-1.2,1.3-1.9.4-2,.7-2.9.5-1.8,1.2-1.1,1.5-.3.9-.9h0Z"/>
      <path class="st2" d="M53.6,48c-.3-.8-.6-1.6-.7-2.4s0-.9,0-1.3c0,0,0,0,0-.1,0-.2,0-.1-.5.2,0,0,0,0,0,0,0,0,0,0,0,0,.3.4.7.8,1,1.2.5.6.8,1.3,1.3,2s.8.4,1.1,0c.5-.9,1.2-1.8,2-2.6s.7-.5.7-.4-.3-.2-.2-.2c0,0,0,0,0,0s0,0,0,.1c-.3,1.3-1.2,2.4-1.8,3.5s0,.7.2.9c1,.6,2.1,1,3,1.8,0,0,0,0,0,0,0,0,0,0,0-.1,0,.2,0-.3.1-.3,0,0,0,0,0,0-.1,0-.4,0-.5.1-.2,0-.4,0-.6,0-1,0-1.9-.6-2.8-.9s-.7.1-.8.4c-.3,1-.5,2-.9,3s-.2.7-.4,1,0,.1,0,.1c0,.1,0,0,.1,0,.3,0,.5.2.3,0s-.3-.6-.4-1c0-.9,0-1.8-.1-2.7s-.3-.6-.6-.6c-.7,0-1.3,0-2,0s-.8,0-1.1-.2-.3-.2-.4-.2,0,0,0,0c0,0-.1.5,0,.3,0,.1-.1,0,0,0s.1,0,.2,0c.1,0,.3,0,.4-.1.4-.1.9-.2,1.3-.3.6-.1,1.3-.2,1.9-.4s.4-1.4-.3-1.2-1.8.4-2.6.6-2,.4-2,1.4,1.2,1.3,2,1.4,1.8.1,2.7.1l-.6-.6c0,1,0,2.1.2,3.2s.4,1.3.9,1.7c1.7,1.4,2.7-4.1,2.9-4.8l-.8.4c1.2.4,2.3,1,3.6.9s2.1-.2,1.8-1.3-1-1.2-1.6-1.5-1.4-.7-2-1.1l.2.9c.3-.7.8-1.4,1.2-2.2s.9-1.7.7-2.5-1.5-.8-2.1-.3c-1.1.8-2,2-2.6,3.2h1.1c-.6-.8-1.1-1.8-1.7-2.5s-.9-1.2-1.5-1.2-1,1-1,1.7c0,1.2.5,2.4.9,3.5s1.4.4,1.2-.3h0Z"/>
      <path class="st2" d="M56.1,79.3c.3-.7.6-1.4,1-2.1s.4-.7.7-1,.3-.2.3-.3c0-.2,0-.2-.5-.3,0,0,0,0,0,0,0,.2,0,.6,0,.8s0,.6,0,1c-.1.8-.3,1.5-.4,2.3s.4.7.8.6c1-.3,2.1-.5,3.2-.5s.4,0,.6,0,.2.1.2.1c0,0,0-.3,0-.3,0,0,0,0-.1.1-1.1.8-2.5.9-3.7,1.4s-.5.4-.4.8c.3,1.1.9,2.3,1,3.4,0,0,0,0,0,0,0,0,0,0,0,0,0,0,0-.1.2-.2,0,0,.2,0,.2,0,0,0,0,0,0,0-.3-.2-.6-.4-.9-.7-.7-.7-1-1.7-1.4-2.5s-.6-.4-.9-.2c-.9.5-1.7,1.1-2.6,1.6s-.7.4-1,.5-.3,0-.3,0c0-.1.3.6.4.4s0-.2,0-.2c0-.4.2-.7.4-1,.5-.7,1.2-1.3,1.7-2s.3-.6,0-.9c-.5-.5-1-.9-1.5-1.4s-.5-.6-.7-.9,0-.3-.1-.4,0,0,0,0c0,0-.3.2-.3.2,0,0,0,0,.2,0s.3,0,.4.2c.4.2.8.4,1.2.6.6.3,1.1.7,1.7,1s1.4-.7.6-1.1-1.5-.9-2.3-1.3-1.7-1.1-2.4-.4,0,1.8.4,2.5,1.2,1.3,1.9,2v-.9c-.7.8-1.5,1.6-2,2.5s-.6,1.3-.5,1.9c.3,1,1.5.5,2.1.2,1.1-.5,2.2-1.3,3.3-1.9l-.9-.2c.6,1,1,2.2,1.9,3s1.7,1.3,2.3.4,0-1.6-.1-2.2-.5-1.4-.7-2.1l-.4.8c.8-.3,1.6-.5,2.4-.8s1.8-.6,2.2-1.3-.6-1.6-1.4-1.7c-1.3-.1-2.8.2-4,.5l.8.6c.1-1,.4-2,.4-3s.2-1.6-.4-2-1.6.5-2,1c-.7.9-1,1.9-1.5,2.9s.7,1.4,1.1.6h0Z"/>
      <path class="st2" d="M37.3,85.1c.6-1.1,1.3-2.2,2.1-3.2s.4-.5.6-.7.4-.3.5-.3,0,0,0,0,.1.4.2.6c0,.6,0,1.1,0,1.7s0,1.2-.1,1.8-.4,1.6.4,2.2,1.9.3,2.8.1,1-.2,1.5-.3,1.1,0,1.2.2-.3.7-.4.8c-.3.4-.7.8-1,1.2-.9,1.1-1.6,2.2-2.5,3.2s.3,1.5.9.9c.9-1,1.6-2.2,2.5-3.2s1.5-1.5,1.8-2.5-.5-1.7-1.5-1.9-2.2.3-3.4.5-1.1.1-1.2-.2,0-.3,0-.4c0-.3.1-.6.2-.8.2-1.2.2-2.6,0-3.8s-.4-1.2-1.1-1.4-1.2.3-1.7.7c-1.2,1.1-2.1,2.7-2.9,4.1s.7,1.3,1.1.6h0Z"/>
      <path class="st2" d="M49,62.8s0,0,0,0v.3c0-.2,0-.5,0-.7v.3c0-.2,0-.3,0-.5v.3c0-.1,0-.3.1-.4l-.2.3c0-.1.2-.2.3-.3l-.3.2c.1,0,.3-.2.4-.2h-.3c.2,0,.4,0,.5,0h-.3c.2,0,.4,0,.6,0h-.3c.2,0,.3,0,.5,0h-.3c.2,0,.3,0,.4.1l-.3-.2c.1,0,.2.2.3.3l-.2-.3c0,.1.2.3.2.4v-.3c0,.2,0,.4,0,.5v-.3c0,.2,0,.4,0,.6,0,.7.6,1.3,1.2,1.2s1.2-.5,1.2-1.2,0-1.5-.5-2.1-1-1.1-1.7-1.3-1.3-.2-1.9,0-1.3.7-1.7,1.3-.6,1.7-.4,2.6.3.6.6.7.7.2,1,.1.6-.3.7-.6.2-.6.1-1h0Z"/>
      <path class="st2" d="M58.1,62.8s0,0,0,0v.3c0-.2,0-.5,0-.7v.3c0-.2,0-.3,0-.5v.3c0-.1,0-.3.1-.4l-.2.3c0-.1.2-.2.3-.3l-.3.2c.1,0,.3-.2.4-.2h-.3c.2,0,.4,0,.5,0h-.3c.2,0,.4,0,.6,0h-.3c.2,0,.3,0,.5,0h-.3c.2,0,.3,0,.4.1l-.3-.2c.1,0,.2.2.3.3l-.2-.3c0,.1.2.3.2.4v-.3c0,.2,0,.4,0,.5v-.3c0,.2,0,.4,0,.6,0,.7.6,1.3,1.2,1.2s1.2-.5,1.2-1.2,0-1.5-.5-2.1-1-1.1-1.7-1.3-1.3-.2-1.9,0-1.3.7-1.7,1.3-.6,1.7-.4,2.6.3.6.6.7.7.2,1,.1.6-.3.7-.6.2-.6.1-1h0Z"/>
      <path class="st2" d="M49.5,65.1c.4,1.8,1.7,3.3,3.5,3.8s3.5,0,4.8-1.1,1.3-1.8,1.5-2.8-1.1-1.1-1.2-.3c-.3,1.5-1.1,2.7-2.6,3.1s-2.6,0-3.6-.8-1-1.3-1.2-2.2-1.4-.5-1.2.3h0Z"/>
      <path class="st2" d="M67.5,93c-.4-.5-.8-1-1.2-1.5s-.4-.5-.5-.8,0,0,0-.1,0-.2,0,0c0,0,0,0,0,0,0,0,0,.1,0,0,0,0,0,0,0,0,0,0,0,0,0,0,0-.1,0,0,0,0,0,0,0,0,0,0,0,0,0,0,0,0,0,0,.1,0,.2,0,0,0,0,0,.1,0,.3,0,.6,0,1,0,.5,0,1.1.2,1.6.3s.8-.2.8-.6-.2-.9-.3-1.4,0-.3,0-.5,0,0,0,0,0-.1,0,0,0,0,0,0c0,0,0,0,0,0,0,0,.3,0,.2,0,0,0,0,0,.1,0,0,0,0,0,0,0,.2,0,.4.1.7.2.5.2.9.5,1.5.6.8.2,1.1-1,.3-1.2-1.1-.3-2.3-1.4-3.5-.6s-.7,1-.6,1.6.1.5.2.8.2.6.2.7l.8-.6c-.7-.2-1.4-.3-2.1-.4s-1.6,0-2.1.5-.1,1.6.3,2.2.6.7.9,1.1.3.3.4.4.1.1.2.2c.1.1,0,0,0,0,.2.3.5.4.9.2s.4-.6.2-.9h0Z"/>
      <path class="st2" d="M67.5,56.3c-.6.4-1,1.1-1,1.9s.3.9.6,1.1.7.3,1,.3c.6,0,1.1-.4,1.4-1s.3-1.2,0-1.7-.4-.5-.6-.6c-.4-.2-.8-.2-1.3-.1s-.5.5-.4.8.4.5.8.4.1,0,.2,0h-.2c.1,0,.2,0,.4,0h-.2c0,0,.1,0,.2,0s0,0,0,0c0,0-.2,0,0,0s0,0,0,0,0,0,0,0c0,0,0,0,0,0,0,0,0,0,.1,0,0,0,0-.1,0,0s0,0,0,0,0,0,0,0c0,0,0,.1,0,0s0,0,0,0,0,0,0,.1v-.2c0,.1,0,.3,0,.4v-.2c0,.1,0,.2,0,.4s0-.2,0,0,0,0,0,0c0,0,0,0,0,0s0,0,0,0,0,0,0,0c0,0,.1-.1,0,0s0,0-.1.1,0,0,0,0c0,0,0,0,0,0,0,0,0,0,0,0s0,0,0,0c-.1,0,.2,0,0,0s-.1,0-.2,0h.2c0,0-.2,0-.3,0h.2s0,0-.1,0,0,0,0,0c-.1,0,0,0,0,0,0,0-.1,0-.1,0,0,0,.1.1,0,0s0,0,0,0,0,0,0,0,.1.2,0,0,0,0,0-.1,0,.2,0,0,0,0,0,0c0,0,0,0,0-.1v.2c0-.1,0-.2,0-.3v.2c0-.1,0-.2,0-.3s0,0,0,0c0,.2,0,.1,0,0s0,0,0-.1.1-.2,0,0,0,0,0,0,0,0,0,0c0,0,.1,0,0,0,0,0,0,0,.1,0,.3-.2.4-.6.2-.9s-.6-.4-.9-.2h0Z"/>
      <path class="st2" d="M44.1,72.9c-.6.4-1,1.1-1,1.9s.3.9.6,1.1.7.3,1,.3c.6,0,1.1-.4,1.4-1s.3-1.2,0-1.7-.4-.5-.6-.6c-.4-.2-.8-.2-1.3-.1s-.5.5-.4.8.4.5.8.4.1,0,.2,0h-.2c.1,0,.2,0,.4,0h-.2c0,0,.1,0,.2,0s0,0,0,0c0,0-.2,0,0,0s0,0,0,0,0,0,0,0c0,0,0,0,0,0,0,0,0,0,.1,0,0,0,0-.1,0,0s0,0,0,0,0,0,0,0c0,0,0,.1,0,0s0,0,0,0,0,0,0,.1v-.2c0,.1,0,.3,0,.4v-.2c0,.1,0,.2,0,.4s0-.2,0,0,0,0,0,0c0,0,0,0,0,0s0,0,0,0,0,0,0,0c0,0,.1-.1,0,0s0,0-.1.1,0,0,0,0c0,0,0,0,0,0,0,0,0,0,0,0s0,0,0,0c-.1,0,.2,0,0,0s-.1,0-.2,0h.2c0,0-.2,0-.3,0h.2s0,0-.1,0,0,0,0,0c-.1,0,0,0,0,0,0,0-.1,0-.1,0,0,0,.1.1,0,0s0,0,0,0,0,0,0,0,.1.2,0,0,0,0,0-.1,0,.2,0,0,0,0,0,0c0,0,0,0,0-.1v.2c0-.1,0-.2,0-.3v.2c0-.1,0-.2,0-.3s0,0,0,0c0,.2,0,.1,0,0s0,0,0-.1.1-.2,0,0,0,0,0,0,0,0,0,0c0,0,.1,0,0,0,0,0,0,0,.1,0,.3-.2.4-.6.2-.9s-.6-.4-.9-.2h0Z"/>
      <path class="st2" d="M44.6,43.3c-.6.4-1,1.1-1,1.9s.3.9.6,1.1.7.3,1,.3c.6,0,1.1-.4,1.4-1s.3-1.2,0-1.7-.4-.5-.6-.6c-.4-.2-.8-.2-1.3-.1s-.5.5-.4.8.4.5.8.4.1,0,.2,0h-.2c.1,0,.2,0,.4,0h-.2c0,0,.1,0,.2,0s0,0,0,0c0,0-.2,0,0,0s0,0,0,0,0,0,0,0c0,0,0,0,0,0,0,0,0,0,.1,0,0,0,0-.1,0,0s0,0,0,0,0,0,0,0c0,0,0,.1,0,0s0,0,0,0,0,0,0,.1v-.2c0,.1,0,.3,0,.4v-.2c0,.1,0,.2,0,.4s0-.2,0,0,0,0,0,0c0,0,0,0,0,0s0,0,0,0,0,0,0,0c0,0,.1-.1,0,0s0,0-.1.1,0,0,0,0c0,0,0,0,0,0,0,0,0,0,0,0s0,0,0,0c-.1,0,.2,0,0,0s-.1,0-.2,0h.2c0,0-.2,0-.3,0h.2s0,0-.1,0,0,0,0,0c-.1,0,0,0,0,0,0,0-.1,0-.1,0,0,0,.1.1,0,0s0,0,0,0,0,0,0,0,.1.2,0,0,0,0,0-.1,0,.2,0,0,0,0,0,0c0,0,0,0,0-.1v.2c0-.1,0-.2,0-.3v.2c0-.1,0-.2,0-.3s0,0,0,0c0,.2,0,.1,0,0s0,0,0-.1.1-.2,0,0,0,0,0,0,0,0,0,0c0,0,.1,0,0,0,0,0,0,0,.1,0,.3-.2.4-.6.2-.9s-.6-.4-.9-.2h0Z"/>
      <path class="st2" d="M56.9,89.4c-.5.3-.8.9-.8,1.5s0,.4.2.6.2.3.4.4.3.2.4.2.3,0,.4,0,.2,0,.4,0c.2,0,.3-.1.4-.3s.3-.3.3-.5.2-.5.2-.7,0-.5-.2-.7-.3-.4-.5-.5-.3-.1-.5-.1-.3,0-.5,0-.3.2-.4.3-.1.3,0,.5c.1.3.4.5.8.4s0,0,.1,0h-.2c0,0,.2,0,.3,0h-.2c0,0,.1,0,.2,0h-.1s0,0,.1,0h-.1c0,0,0,0,.1,0h0c0,0,0,0,0,0h0c0,0,0,0,0,0v-.2c0,0,0,.2,0,.3v-.2c0,0,0,.2,0,.3h0c0,0,0,0-.1,0h0c0,0,0,0-.1,0h.1c0,0,0,0-.2,0h.1c0,0-.1,0-.2,0h.2c0,0-.1,0-.2,0h.2c0,0-.1,0-.2,0h.1c0,0,0,0-.1,0h.1c0,0,0,0-.1,0h0c0,0,0,0,0,0h0c0,0,0,0,0,0v.2c0,0,0-.2,0-.2v.2c0,0,0-.2,0-.3h0c0,0,0,0,.1,0h0c0,0,0,0,.2,0h-.1c0,0,0,0,0,0,.1,0,.2-.2.3-.4s0-.3,0-.5c-.2-.3-.6-.4-.9-.2h0Z"/>
      <path class="st2" d="M54.3,33.1c4-.2,8-.1,12,0s1.7,0,2.6,0,1.8-.1,2.6,0c1.3.3,1.4,1.5,1.7,2.6s1.4.4,1.2-.3-.5-2.4-1.5-3.1-3.4-.5-4.9-.5c-4.6,0-9.2-.2-13.7,0s-.8,1.3,0,1.2h0Z"/>
    </g>
  </g>
  <g id="Layer_3">
    <g>
      <path class="st0" d="M50.2,14.3c-.4-1-.7-2.1-1-3.1,0-.2-.2-.4-.2-.5,0,0,0-.2,0-.3-.3-1-.6-2.1-.9-3.1-.4-.3-1-.4-1.5-.1-2.2,1.3-4.4,2.6-6.8,3.6-1,.4-1.5,2-.3,2.6,1.4.7,2.9,1,4.4,1.3,1.3.2,3.2,0,4.4.6.9.5,1.7,0,2-.8,0,0,0,0,0-.1Z"/>
      <path class="st0" d="M84.6,60.3c-1.1-.3-2.2-.9-3.3-1.3-.3-.4-.8-.6-1.4-.4-1.3.3-2.7.5-3.6,1.7,0,.1-.2.2-.2.4-.7.3-1.3.6-1.9,1.2-1.8-.7-4-.7-5.5-1.7-.8-.6-1.8,0-2,.8-1.2,3.3-3.3,5.6-6.8,6.2,0,0,0,0-.1,0-1.6-1.2-3.6-2-5.1-3.4-.3-.3-.7-.4-1-.4-.4-.4-.8-.9-1.2-1.4-.5-.6-1.5-.5-2,0-.2,0-.5,0-.7,0-2.1.4-3.1.6-4.5,2.3-1.5,1.9-2.8,3.1-5,4,0,0,0,0,0,0-.3-.2-.7-.4-1.1-.7,0-.3-.3-.5-.6-.7-1.6-1-3.1-2.1-4.6-3.2,0,0-.2-.1-.3-.2,0,0-.2-.1-.3-.2-.1,0-.3-.2-.4-.3-.2-.3-.5-.5-.9-.5,0,0-.2-.1-.3-.2-.1,0-.3-.1-.5-.1,0,0,0,0-.1,0-.1,0-.3-.2-.4-.3,0,0-.1,0-.2-.1,0,0,0,0,0,0,0-.4-.2-.7-.7-1-1.3-.8-3.3-1.2-4.8-.5-.4,0-.9,0-1.3.1-2.2.3-4,1.2-6.3.8-1.2-.2-2.6,1.3-1.4,2.3.2.1.3.2.5.3-.1.5,0,1,.4,1.3,0,0,0,0,.1.1-2.9,3.1,2.7,5,5.2,5.4,1.7.3,3.5.5,5.3.6,2.3.2,4.5-.1,6.8,0,1.4,0,2.7.1,4.1,0,3.2,1,6.5.6,9.8,0,.3.3.7.4,1.3.3,1.7-.5,3.8,0,5.6,0,2.3,0,4.6,0,6.8-.2,2.7-.2,5.7-.3,8.6-.9.1,0,.3,0,.4,0,2.6,0,8,.3,10.9-1.6.3,0,.5,0,.7-.2,0,0,.2-.2.3-.2,0,0,0,0,0,0,0,0,.1-.1.2-.2.1-.2.3-.3.4-.5.3-.2.6-.6.6-1.1,0-.7,0-1.4,0-2.1.4-.8,1.1-1.4,1.6-2.2.5-.7,0-1.9-.8-2ZM55.9,68.8c-.2,0-.3,0-.5,0-.1-.2-.2-.4-.3-.6.3.2.7.4,1,.6,0,0-.1,0-.2,0Z"/>
      <path class="st2" d="M15.3,51.3c1.7-6.5,4.6-13,9.6-17.7s10.8-7.2,16.8-8.9,12.5-2.1,18.7-.8,12.6,4.3,16.8,9,3.7,6.2,5,9.4,2.4,7.2,2.9,11.1,1.4.8,1.2,0c-.5-3.5-1.2-7.1-2.5-10.4s-2.4-6.1-4.1-8.8-4.3-4.8-7-6.6-5.8-3.2-9-4.2c-6.4-1.9-13.2-2-19.6-.6s-12.9,4.1-18,8.2-9.9,12.3-11.9,19.9,1,1.1,1.2.3h0Z"/>
      <path class="st2" d="M12.4,52.6c2.7-.9,5.9-.6,8.7-.5s7.4.6,11.1,1.1,7.5.9,11.3,1,8-.3,12-.6,8-.7,12-.6,7.1.6,10.7,1,6.4.2,9.6-.1,2.4-.5,2.9,0c.8.8-1.5,2.1-2,2.6-1,1.1-.6,2.9-2,3.8s-2.1-.3-2.9-.8c-1.8-1.1-3.8-2-5.9-1s-3.3,3.1-5.7,2.6-4.7-2.3-7.3-1.3-2.7,1.8-4.3,2.2-3.1,0-4.6-.3-2.9-.7-4.5-.5-3.2.7-4.9.7c-2.4,0-4.3-2-6.7-1.7s-2.7.9-4.1,1.3-1.9.5-2.8.4-1.6-.7-2.4-1.3c-2.6-2-5.3-1.5-8.2-.5s-3.1,1.1-4.6.6-1.7-1.6-2.3-2.6-1.1-1.7-2-1.9-1.7.3-2.6.2-1.5-.2-1.5-.9c0-1.2,2.5-2.4,3.3-2.9s0-1.5-.6-1.1c-1.4.8-4.6,2.5-3.8,4.6s2.4,1.6,3.7,1.4.8-.3,1.3-.2.9.7,1.1,1.1c.6.9,1.1,1.9,1.9,2.7,2.1,1.8,5,.6,7.3-.1s3-.9,4.6-.4,2.4,1.9,3.8,2.3,3.5,0,5-.5,3-1.4,4.7-.8,2.2,1.1,3.5,1.4,3,.2,4.4,0,3.6-.6,5.6-.1,3.1.8,4.7.6,3-1,4.4-1.8,2.8-1,4.4-.4c2.6.9,4.9,2.1,7.3.4s1.7-1.4,2.7-1.9,2.6-.2,3.8.5,3.6,2.6,5.4,1,.9-1,1.2-1.6c.4-.9.3-1.8,1.2-2.5s1.9-1.6,1.9-2.8c0-2.1-3-1.7-4.4-1.6-3.5.4-6.8.5-10.3,0s-8.1-1-12.3-.9c-8.7.2-17.2,1.7-25.9,1.1s-15.2-2.2-22.9-1.9-2.9.2-4.3.6-.4,1.5.3,1.2h0Z"/>
      <path class="st2" d="M17.4,55.5c0-.1.2-.3.3-.3,0,0,0,0,0,0,.3.1.5.4.7.7.4.6.8,1.4,1.4,1.8,1,.7,2,0,2.8-.5s.8-.7,1.4-.7,1.4,0,2.1.2,1.1-1,.3-1.2c-1.3-.4-3-.4-4.1.4s-.8.8-1.3.9-.2,0-.3,0-.2-.1-.1,0c-.1,0-.2-.2-.3-.3-.5-.7-.9-1.5-1.7-2.1s-1.8-.3-2.3.6.6,1.3,1.1.6h0Z"/>
      <path class="st2" d="M33.9,59c.4-.4.8-.7,1.4-.8s.9,0,1.3,0c1.1.2,2.2.4,3.3,0s.4-1.4-.3-1.2-2.1,0-3.2-.1-2.4.2-3.3,1.1.3,1.4.9.9h0Z"/>
      <path class="st2" d="M46.9,57c1.7-1.1,3.9-.4,5.7-.2s.6-.3.6-.6-.3-.6-.6-.6c-2.1-.2-4.4-.9-6.4.4s-.4.6-.2.9.6.4.9.2h0Z"/>
      <path class="st2" d="M54.2,59.9c.5-1.3,1.9-1.4,3.1-1.4s3.1.2,4.3-.7,0-1.5-.6-1.1c-1.2.8-2.9.5-4.3.5s-1.6.1-2.3.5-1.2,1-1.5,1.8.9,1.1,1.2.3h0Z"/>
      <path class="st2" d="M66.3,57.1c.5-.3,1-.5,1.6-.5s.9.1,1.4.3c1.1.3,2.1.7,3.2.7s.8-1.3,0-1.2-2.1-.5-3.2-.8-2.5-.2-3.6.5,0,1.5.6,1.1h0Z"/>
      <path class="st2" d="M78.8,56.4c1.5-.3,3.1,0,4.6,0s.8-1.2,0-1.2c-1.7,0-3.3-.2-4.9.1s-.5.5-.4.8.4.5.8.4h0Z"/>
      <path class="st2" d="M32.4,63c.6.8,1.3,1.4,2.1,2s1.5,1.2,2.3,1.8c1.2,1,2.7,2.3,4.4,1.9s2.7-1.5,3.7-2.5,1.8-2.2,2.4-3.4-.7-1.3-1.1-.6c-.6,1-1.2,2-2,2.9s-1.8,2-3.1,2.4-2.8-.9-3.8-1.8-1.1-1-1.8-1.4-1.5-1.1-2.1-1.9-1.6,0-1.1.6h0Z"/>
      <path class="st2" d="M52.1,62.6c1.3,1.5,3.1,2.4,4.7,3.6s3.1,2.3,4.8,1.7,2.6-1.9,3.5-3,.9-1.2,1.3-1.9.7-1.8,1-2.6-.9-1.1-1.2-.3-.5,1.6-.9,2.3-.7,1-1,1.5c-.8,1-1.8,2.3-3,2.7s-3.1-1-4.1-1.8-3-1.9-4.2-3.2-1.4.3-.9.9h0Z"/>
      <path class="st2" d="M16.3,60.6c-.8.7-1.5,1.7-1.2,2.8s1.7,1.4.9,2.7-.9,1-.6,1.9,1.3,1.7,2.2,2.1c2,.9,4.4,1.1,6.6,1.4,3.5.4,7.1.4,10.6.5,13.9.4,27.9.4,41.7-1.3,1.7-.2,3.5-.3,5.2-.8s2.4-.9,3.1-1.8.3-1.9,0-2.8c-.4-1.6,1.5-2.2,1.8-3.7s-1.1-1.1-1.2-.3-1.4,1.6-1.8,2.6,0,1.6.2,2.5.1,1-.4,1.5-1,.6-1.6.8c-1.5.5-3.2.6-4.8.8-6,.7-12.1,1.1-18.2,1.3s-12.2.2-18.3.1-11.8,0-17.7-.9-6.9-.8-5.9-2.9,1.1-1.5.7-2.4-.3-.5-.6-.8-.3-.3-.4-.5c-.5-.8,0-1.5.7-1.9s-.3-1.4-.9-.9h0Z"/>
      <path class="st2" d="M18.8,63.8c.8,1.6,3.2,1,4.1-.2s.3-.6,0-.9-.7-.3-.9,0-.2.2-.3.3-.1,0,0,0c0,0,0,0,0,0,0,0-.1,0-.2.1s-.1,0-.2.1,0,0,0,0c.1,0,0,0,0,0-.1,0-.3.1-.5.1s0,0-.1,0c-.1,0,.1,0,0,0s-.1,0-.2,0,0,0-.1,0c0,0-.1,0,0,0,0,0-.1,0-.2,0s0,0,0,0c.2,0,0,0,0,0s0,0,0,0c0,0,.1,0,0,0s0,0,0,0c0,0,0,0,0,0,0,0,0-.1-.1-.2-.1-.3-.6-.4-.9-.2s-.4.5-.2.9h0Z"/>
      <path class="st2" d="M25,63.6c.4.6,1.1.9,1.8,1s.6,0,.9-.1.3-.1.5-.2.3-.3.5-.5.1-.3,0-.5-.2-.3-.3-.4-.3-.1-.5,0-.3.2-.4.3c.1-.2,0,0,0,0s0,0,0,0c.1-.1,0,0,0,0s0,0-.1,0-.1,0,0,0,0,0,0,0c0,0-.1,0-.2,0s0,0,0,0c-.1,0,0,0,0,0,0,0-.1,0-.2,0,0,0-.1,0-.2,0s0,0,0,0c0,0,.2,0,0,0s-.1,0-.2,0-.1,0-.2,0c-.1,0,.1,0,0,0s0,0,0,0c0,0,0,0-.1,0s0,0,0,0c0,0,0,0,0,0s-.1,0-.1-.1c0,0,0,.1,0,0s0,0,0,0c-.2-.3-.6-.4-.9-.2s-.4.6-.2.9h0Z"/>
      <path class="st2" d="M22.4,67.2c.5.4,1.1.6,1.7.6s1.2-.2,1.7-.5.4-.6.2-.9-.5-.4-.9-.2,0,0-.1,0,0,0,0,0c-.1,0,0,0,0,0s-.2,0-.3.1-.2,0-.3,0c0,0,.1,0,0,0s0,0,0,0c0,0-.1,0-.2,0s-.1,0-.2,0,0,0,0,0-.1,0,0,0,0,0,0,0,0,0,0,0c0,0-.1,0-.2,0s0,0,0,0c0,0,0,0,0,0,0,0,0,0-.1,0s-.1,0-.2,0,0,0,0,0,0,0,0,0c-.2-.2-.6-.3-.9,0s-.3.7,0,.9h0Z"/>
      <path class="st2" d="M30.3,67.5c.3.5.8,1,1.5,1.1s1.2.1,1.7-.1.3-.1.4-.3.1-.3,0-.5c0-.3-.4-.6-.8-.4s-.2,0-.3.1-.1,0-.2,0,0,0,0,0c0,0,.2,0,0,0s-.2,0-.3,0,0,0,0,0c0,0,.2,0,0,0s-.1,0-.2,0,0,0-.1,0,0,0,0,0c0,0,.1,0,0,0s-.2-.1-.3-.2,0,0,0,0,0,0,0,0c0,0,0,0-.1-.1s0,0,0,0c0,0,0,0,0,0s0-.1-.1-.2c-.2-.3-.6-.4-.9-.2s-.4.6-.2.9h0Z"/>
      <path class="st2" d="M45,69.4c.5.2,1,.4,1.5.4s1-.1,1.5-.4.4-.6.2-.9-.6-.4-.9-.2,0,0-.1,0c0,0,0,0,0,0,0,0,0,0,0,0,0,0,0,0,0,0,0,0,0,0,0,0,0,0,0,0-.2,0s0,0-.1,0c0,0,0,0,0,0,.1,0,.1,0,0,0,0,0-.2,0-.3,0s0,0-.1,0c-.2,0,.1,0,0,0s-.2,0-.3,0-.2,0-.3,0c0,0,0,0,0,0,0,0,.1,0,0,0,0,0,0,0-.1,0-.3-.1-.7,0-.9.2s0,.7.2.9h0Z"/>
      <path class="st2" d="M48.9,66.3c.2,0,.5,0,.7-.1s.2,0,.4,0-.1,0,0,0,0,0,0,0c0,0,.1,0,.2,0,.1,0,.2,0,.4,0s0,0,0,0c0,0,0,0,0,0,0,0,.1,0,.2,0s.1,0,.2,0,.1,0,0,0,0,0,0,0c0,0,.1,0,.2,0s0,0,0,0c0,0-.1,0,0,0,.2.2.6.3.9,0s.3-.7,0-.9c-.5-.5-1.2-.6-1.9-.6s-1.2.2-1.8.3-.5.5-.4.8.4.5.8.4h0Z"/>
      <path class="st2" d="M53.3,68.6c1,.7,2.4.9,3.5.4s.4-.6.2-.9-.5-.4-.9-.2c0,0,0,0,0,0,0,0,0,0,0,0,0,0-.1,0-.2,0s-.1,0-.2,0c0,0,0,0,0,0h0s-.1,0-.2,0-.1,0-.2,0-.1,0-.2,0c-.1,0,.1,0,0,0s-.2,0-.3,0-.1,0-.2,0-.2,0-.1,0,0,0,0,0c0,0-.1,0-.2,0-.1,0-.2-.1-.3-.2-.3-.2-.7,0-.9.2s0,.7.2.9h0Z"/>
      <path class="st2" d="M66.5,68.6c.1,0,.2-.1.4-.2-.1,0,0,0,0,0,0,0,.1,0,.2,0,.1,0,.2,0,.3,0s.3,0,0,0c0,0,.1,0,.2,0,.1,0,.3,0,.4,0s.1,0,.2,0c0,0,0,0,.1,0,0,0,0,0,0,0,.1,0,.3,0,.4,0s.1,0,.2,0c0,0,0,0,0,0,0,0,0,0,0,0,.3.1.7,0,.9-.2s0-.7-.2-.9c-1.2-.6-2.7-.5-3.9.2s-.4.6-.2.9.6.4.9.2h0Z"/>
      <path class="st2" d="M69.3,64.8c.6.2,1.2.2,1.9.1s1.1-.4,1.5-.9.3-.6,0-.9-.6-.3-.9,0-.2.2-.3.3,0,0,0,0c0,0,0,0,0,0,0,0,0,0-.1,0s0,0,0,0-.1,0,0,0,0,0,0,0c0,0,0,0,0,0-.1,0-.2,0-.3,0,0,0,.1,0,0,0s0,0,0,0c0,0-.1,0-.2,0-.1,0-.2,0-.4,0s0,0-.1,0c0,0,.1,0,0,0s-.1,0-.2,0c-.1,0-.3,0-.4,0-.3,0-.7.1-.8.4s0,.7.4.8h0Z"/>
      <path class="st2" d="M76.7,67.3s0,0,.1-.1,0,0,0,0,0,0,0,0c0,0,.2-.1.3-.2s.1,0,0,0,0,0,0,0c0,0,0,0,.1,0s0,0,.1,0,0,0,0,0c0,0-.2,0,0,0s.2,0,.3,0,0,0,0,0,0,0,0,0c0,0,0,0,.1,0s0,0,.1,0c0,0-.1,0,0,0s0,0,0,0c0,0,.2.1.3.2s.3.1.5,0,.3-.2.4-.3.1-.3,0-.5-.1-.3-.3-.4c-.4-.3-1-.5-1.5-.4s-1.1.3-1.6.7-.2.7,0,.9.6.2.9,0h0Z"/>
      <path class="st2" d="M78.1,62.7c.4.6.9,1,1.7,1.1s1.3-.3,1.7-.9,0-.7-.2-.9-.7,0-.9.2,0,0,0,.1c0,0,0-.1,0,0s0,0,0,0c0,0,0,0,0,0s0,0,0,0c0,0,.1,0,0,0s0,0,0,0,0,0,0,0c0,0,0,0,0,0,0,0,0,0,0,0,0,0,0,0-.1,0h.2c-.1,0-.2,0-.3,0h.2c0,0-.2,0-.3,0s.1,0,0,0,0,0,0,0c0,0,0,0-.1,0,0,0,0,0,0,0,0,0,0,0,0,0,0,0,0,0-.1-.1s-.1-.2,0,0c0,0,0-.1-.1-.2-.2-.3-.6-.4-.9-.2s-.4.6-.2.9h0Z"/>
      <path class="st2" d="M15.9,67.2c-1,0-2,.8-2,1.9s1.3,1.3,1.9,2l.3-1c-1.1.4-2.5,1.4-1.2,2.5s2.7,1.2,3.9,1.4c3,.5,6.1.4,9.1.6s6.8.5,10.2.6c6.8.2,13.6-.1,20.4-.4s13.5-.7,20.2-1.4,5-.7,6.8-2.6.8-3.1-1.1-3.8-1.1.9-.3,1.2,1.3.8.5,1.7-1.3,1.1-2,1.4c-2.3,1.1-5.2,1-7.6,1.2-5.4.6-10.8.9-16.3,1.1s-10.9.4-16.3.4-10.9-.5-16.4-.8-5,0-7.4-.5-1.4-.3-2-.6-.8-.2-.9-.5,0-.1,0,0c0-.1.8-.4.8-.4.4-.2.6-.7.3-1s-.6-.5-1-.7-.5-.2-.5-.3c-.2-.4.4-.7.7-.7.8,0,.8-1.3,0-1.2h0Z"/>
      <path class="st2" d="M15.4,72.9c.4,1.6.4,3.2.7,4.8s.8,3,1.5,4.3c1.3,2.5,3.1,4.6,5.3,6.2,4.6,3.4,10.6,5,16.2,5.4s7.1.1,10.7.3,7.3.2,10.9-.2c5.5-.6,11.9-1.1,16.4-4.6s4.1-4.7,5.4-7.6,2.2-6.6,2.3-10-1.2-.8-1.2,0c-.2,5.5-2.2,12.1-6.3,15.9-4.1,3.8-10.3,4.3-15.5,5s-13,.4-19.5.2-11.5-1.1-16.5-4-4.9-3.5-6.4-6.1-1.5-3-1.9-4.7-.3-3.5-.8-5.2-1.4-.4-1.2.3h0Z"/>
      <path class="st2" d="M27.7,90v-4.3c0-.3-.3-.6-.6-.6s-.6.3-.6.6v4.3c0,.3.3.6.6.6s.6-.3.6-.6h0Z"/>
      <path class="st2" d="M36.2,92.4v-3.5c0-.3-.3-.6-.6-.6s-.6.3-.6.6v3.5c0,.3.3.6.6.6s.6-.3.6-.6h0Z"/>
      <path class="st2" d="M43.8,93v-7.4c0-.8-1.2-.8-1.2,0v7.4c0,.8,1.2.8,1.2,0h0Z"/>
      <path class="st2" d="M53.4,93.2v-3.2c0-.3-.3-.6-.6-.6s-.6.3-.6.6v3.2c0,.3.3.6.6.6s.6-.3.6-.6h0Z"/>
      <path class="st2" d="M61.9,92.9v-7.3c0-.8-1.2-.8-1.2,0v7.3c0,.8,1.2.8,1.2,0h0Z"/>
      <path class="st2" d="M68.5,92.1v-3.3c0-.3-.3-.6-.6-.6s-.6.3-.6.6v3.3c0,.3.3.6.6.6s.6-.3.6-.6h0Z"/>
      <path class="st2" d="M75.1,89.8v-5.4c0-.8-1.2-.8-1.2,0v5.4c0,.8,1.2.8,1.2,0h0Z"/>
      <path class="st2" d="M21,51.2v-2.4c0-.3-.3-.6-.6-.6s-.6.3-.6.6v2.4c0,.3.3.6.6.6s.6-.3.6-.6h0Z"/>
      <path class="st2" d="M28.4,51.8v-4.3c0-.3-.3-.6-.6-.6s-.6.3-.6.6v4.3c0,.3.3.6.6.6s.6-.3.6-.6h0Z"/>
      <path class="st2" d="M37.1,52.9v-3.9c0-.3-.3-.6-.6-.6s-.6.3-.6.6v3.9c0,.3.3.6.6.6s.6-.3.6-.6h0Z"/>
      <path class="st2" d="M46.8,53.2v-3.8c0-.3-.3-.6-.6-.6s-.6.3-.6.6v3.8c0,.3.3.6.6.6s.6-.3.6-.6h0Z"/>
      <path class="st2" d="M55.3,52.6v-4.7c0-.8-1.2-.8-1.2,0v4.7c0,.8,1.2.8,1.2,0h0Z"/>
      <path class="st2" d="M64.1,52.2v-2.6c0-.3-.3-.6-.6-.6s-.6.3-.6.6v2.6c0,.3.3.6.6.6s.6-.3.6-.6h0Z"/>
      <path class="st2" d="M72.1,52.3v-4.3c0-.3-.3-.6-.6-.6s-.6.3-.6.6v4.3c0,.3.3.6.6.6s.6-.3.6-.6h0Z"/>
      <path class="st2" d="M80.4,53.2v-2.2c0-.3-.3-.6-.6-.6s-.6.3-.6.6v2.2c0,.3.3.6.6.6s.6-.3.6-.6h0Z"/>
      <path class="st2" d="M47.1,36.3c-3.3-.7-3.3,3.3-1.7,3.9,3.3,1.3,4.2-3.4,1.7-3.9"/>
      <path class="st2" d="M58.1,36.3c-3.3-.7-3.3,3.3-1.7,3.9,3.3,1.3,4.2-3.4,1.7-3.9"/>
      <path class="st2" d="M48.7,40.6c-.1,1.5.8,2.7,2.2,3.1s2.7,0,3.6-.9.9-1.5.8-2.4-1.3-.8-1.2,0,0,.2,0,.3,0,.2,0,.2,0,0,0,0c0,0,0,0,0,.1,0,0,0,.1,0,.2s0,.1,0,.2c0-.1,0,0,0,0,0,.1-.1.2-.2.3,0-.1,0,0,0,0,0,0,0,0-.1.1s0,0-.1.1c0,0,0,0,0,0s0,0-.1,0c-.1,0-.2.1-.3.2s0,0,0,0c0,0,.1,0,0,0s-.1,0-.2,0c-.1,0-.2,0-.3,0s0,0,0,0c-.1,0,.1,0,0,0s-.1,0-.2,0c-.1,0-.2,0-.4,0s-.3,0,0,0c0,0-.1,0-.2,0-.1,0-.2,0-.3,0s-.2,0,0,0c0,0-.1,0-.2,0-.1,0-.2-.1-.3-.2s0,0,0,0,0,0,0,0c0,0-.1,0-.1-.1s0,0,0,0c0,0,0,0,0,0s0-.1-.1-.2,0-.1-.1-.2c0,0,0,0,0,0,0,0,0,0,0-.1,0,0,0-.1,0-.2s0,0,0,0c0-.1,0,.1,0,0s0-.3,0-.5c0-.3-.3-.6-.6-.6s-.6.3-.6.6h0Z"/>
      <path class="st2" d="M42,26.4c-.9.5-1.7,1-2.6,1.6s-.9.7-1.3,1.2-.6.9-.6,1.5.4,1.1.9,1.4,1,.3,1.5,0,.7-.5,1-.9.6-.9.9-1.4.5-1,.7-1.5.2-.5.3-.7,0-.2,0-.2,0,0,0,0c0,.2,0,.1,0,0,.1-.3,0-.7-.2-.9s-.7,0-.9.2-.2.6-.4.9,0,0,0,.1c0,.1,0,0,0,0s0,.2-.1.3c0,.2-.2.4-.3.6-.2.4-.4.8-.7,1.2s-.1.2-.2.3,0,0,0,.1,0,0,0,0c0,0,0,0,0,0-.1.2-.3.3-.4.4s0,0,0,0c0,0,.1,0,0,0s0,0,0,0-.2.1-.2.1c0,0,.2,0,0,0s0,0,0,0,0,0-.1,0c0,0,.2,0,0,0s0,0,0,0,0,0,0,0c0,0,.1,0,0,0s0,0,0,0c-.1,0,0,0,0,0s0,0,0,0-.1-.2,0,0,0,0,0,0,0,0,0,0c0,0,0,.2,0,0s0,0,0-.1c0,0,0,.1,0,0s0,0,0,0,0,0,0,0c0,0,0,0,0,0,0,0,0-.1,0-.2s0-.1,0-.1c0,0,0,.1,0,0s0,0,0,0c0,0,.1-.2.2-.3s0,0,0,0c0,0,0,0,0,0,0,0,0,0,.1-.1,0,0,.2-.2.3-.3s.2-.2.3-.3,0,0,.1-.1,0,0,0,0c.1-.1-.1,0,0,0,.9-.6,1.8-1.1,2.7-1.7s.4-.6.2-.9-.6-.4-.9-.2h0Z"/>
      <path class="st2" d="M48,27.2c-.5.9-.9,1.8-1.3,2.8s-.8,2.4,0,3.3,2,.5,2.4-.4.4-2,.4-2.9,0-1.8-.3-2.6-1.4-.4-1.2.3,0,.4.1.7,0,0,0,.1,0,.2,0,0,0,0,0,0c0,0,0,0,0,.1,0,.2,0,.4,0,.6,0,.5,0,.9,0,1.4s0,.4,0,.7,0,0,0,.1c0-.1,0,0,0,0s0,.2,0,.3,0,.2,0,.3,0,0,0,.1c0-.1,0,0,0,0s0,.1-.1.2c0,0,0,0,0,0s0,0,0,0c0,0,.1,0,0,0s-.1,0,0,0,0,0,0,0c-.1,0,.1,0,0,0s0,0,0,0c0,0,.1,0,0,0s0,0-.1,0c0,0,0,0,0,0s.1,0,0,0,0,0,0,0c0,0,0,0,0,0,0,0,0,0,0,0,0,0,0,0,0,0,0,0,0,0,0-.1s0,.1,0,0,0-.2,0-.3,0-.1,0-.2c0-.1,0,0,0,0s0-.3,0-.4c0-.3.1-.5.2-.8.2-.6.4-1,.6-1.6s.4-.7.6-1.1c.4-.7-.7-1.3-1.1-.6h0Z"/>
      <path class="st2" d="M54.3,27.7c-.3,1-.6,2.2-.6,3.3s0,1.2.4,1.7.8.7,1.3.9.9,0,1.2-.3.4-.7.4-1.1c0-.9-.2-1.8-.5-2.6s-.3-.9-.5-1.3-.2-.6-.4-.9c-.4-.7-1.5,0-1.1.6s.2.4.3.6,0,.1,0,0,0,0,0,0c0,0,0,.2.1.3,0,.2.1.3.2.5.1.4.3.8.4,1.2s0,.4.1.6,0,.2,0,.3,0,0,0,.1c0,.2,0-.1,0,0s0,.3,0,.5,0,.2,0,.2c0,0,0-.2,0,0s0,0,0,0,0,0,0,0c0,0,0-.2,0,0s0,0,0,0c0,0,.1-.1,0,0s.1,0,0,0,0,0,0,0c0,0,.2,0,0,0s0,0,0,0,0,0,0,0c0,0,.1,0,0,0s-.2,0-.2,0,0,0,0,0,0,0-.1,0,0,0-.1,0c0,0,0,0,0,0,0,0,0,0,0,0s0,0,0,0c0,0,0,0,0,0s0,0,0-.1,0-.1,0,0,0,0,0-.1c0,0,0-.2,0-.3,0-.2,0,0,0,0s0-.1,0-.2c0-.3,0-.6,0-.9s0-.1,0-.2,0-.1,0,0,0,0,0,0c0-.1,0-.3,0-.4,0-.5.2-1,.4-1.4s-.1-.7-.4-.8-.7.1-.8.4h0Z"/>
      <path class="st2" d="M59.2,27.6c.2.6.5,1.2.8,1.7s.8,1.1,1.4,1.6,1.2.8,1.9.8,1.1-.1,1.5-.4.6-.7.5-1.2-.3-.7-.6-.9c-.7-.6-1.5-1.1-2.3-1.5s-.9-.4-1.3-.6-.7-.3-1-.4-.7.1-.8.4,0,.7.4.8.5.2.7.2,0,0,.1,0c-.2,0,0,0,0,0,0,0,.2,0,.3.1.2,0,.4.2.5.2.8.4,1.5.8,2.2,1.3s0,0,0,0,0,0,0,0c0,0,.1.1.2.2s.1.1.2.2,0,0,0,0c0,0,0-.1,0,0s0,.1,0,.1c0,0,0-.2,0,0s0,0,0,0c0,0,0,0,0,0,0,.1,0-.2,0,0s0,0,0,0c0,0,0,0,0,0,0,0,0,0,0,0,0,0,0,0,0,0,0,0,0,0,0,0,0,0-.2.1-.2.1,0,0,.2,0,0,0s0,0,0,0c0,0,0,0-.1,0-.1,0-.2,0-.3,0s-.1,0-.1,0c0,0,.2,0,0,0s-.1,0-.2,0,0,0,0,0c-.1,0,0,0,0,0s-.2,0-.2,0c0,0-.1,0-.2,0s-.1,0,0,0c0,0,0,0,0,0-.1,0-.2-.1-.4-.2s-.2-.2-.1,0c0,0-.1-.1-.2-.2-.1-.1-.2-.2-.4-.4s-.2-.3-.3-.4,0,0,0,0c0,0,0,0,0-.1,0,0-.1-.1-.2-.2-.2-.3-.4-.5-.5-.8s-.1-.3-.2-.4,0,0,0,0c0,0,0,0,0,0,0,0,0-.1,0-.2-.1-.3-.4-.5-.8-.4s-.5.4-.4.8h0Z"/>
      <path class="st2" d="M53,22.2c-1.6-5.3-2.9-10.6-4.7-15.8s-1.5-.4-1.2.3c1.8,5.2,3.1,10.6,4.7,15.8s1.4.4,1.2-.3h0Z"/>
      <path class="st2" d="M47.3,6c-1.2.6-2.3,1.4-3.4,2.1s-1.5.8-2.2,1.2-1.7,1-2.4,1.6-1.1,1-1.1,1.7c0,1.2,1.6,1.8,2.6,2,1.6.5,3.3.7,5,.9s1.6.2,2.5.3,1.3.2,2,0,.5-1.4-.3-1.2-.9,0-1.4,0-1.3-.1-1.9-.2c-1.5-.2-3-.4-4.5-.7s-1.2-.3-1.8-.6-.4-.2-.6-.3-.2-.2-.3-.3c0,0,0,0,0,0,0,0,0,0,0-.1.2-.3.4-.5.6-.7.6-.5,1.4-1,2.1-1.4s1.5-.8,2.3-1.2c1.2-.7,2.3-1.5,3.4-2.1s0-1.5-.6-1.1h0Z"/>
      <path class="st2" d="M42.3,13.3c1.6.4,3.2.7,4.8.6s.6-.3.6-.6-.3-.6-.6-.6c-1.5,0-3-.2-4.5-.5s-.7.1-.8.4.1.7.4.8h0Z"/>
      <path class="st2" d="M31.7,49.9c.8,0,.8-1.2,0-1.2s-.8,1.2,0,1.2h0Z"/>
      <path class="st2" d="M34,47.7c.8,0,.8-1.2,0-1.2s-.8,1.2,0,1.2h0Z"/>
      <path class="st2" d="M30.7,47.5c.8,0,.8-1.2,0-1.2s-.8,1.2,0,1.2h0Z"/>
      <path class="st2" d="M67.6,48.6c.8,0,.8-1.2,0-1.2s-.8,1.2,0,1.2h0Z"/>
      <path class="st2" d="M71.9,46.3c.8,0,.8-1.2,0-1.2s-.8,1.2,0,1.2h0Z"/>
      <path class="st2" d="M69,45.5c.8,0,.8-1.2,0-1.2s-.8,1.2,0,1.2h0Z"/>
      <path class="st2" d="M47.9,87.7c.8,0,.8-1.2,0-1.2s-.8,1.2,0,1.2h0Z"/>
      <path class="st2" d="M51.3,89.2c.8,0,.8-1.2,0-1.2s-.8,1.2,0,1.2h0Z"/>
      <path class="st2" d="M51.2,86.4c.8,0,.8-1.2,0-1.2s-.8,1.2,0,1.2h0Z"/>
      <path class="st2" d="M26.3,84.3c.8,0,.8-1.2,0-1.2s-.8,1.2,0,1.2h0Z"/>
      <path class="st2" d="M73,83.8c.8,0,.8-1.2,0-1.2s-.8,1.2,0,1.2h0Z"/>
      <path class="st2" d="M76,82.5c.8,0,.8-1.2,0-1.2s-.8,1.2,0,1.2h0Z"/>
    </g>
  </g>
  <g id="Layer_4" class="st1">
    <g>
      <path class="st0" d="M71.9,31.5c-1.7-2.4-3.1-4.8-4.3-7.5,0,0,0-.2-.2-.2-.3-1.4-.8-2.7-1.6-3.8-.2-.2-.4-.3-.6-.3,0-.2,0-.4,0-.6-.1-1-1.6-1-1.5,0,0,.2,0,.5,0,.8-.1,0-.2.1-.3.3-2.2,3.4-7.3,5.5-9.7,9-1.5,1.6-2.5,3.2-2.4,4.6,0,0,0,0,0,0-.3.3-.3.6-.1.9,0,.2.3.3.4.4,0,0,.1,0,.2.1,0,0,.1,0,.1,0,.5.6,1.2,1.2,2.4,1.8,1,.5,2,.7,2.9.6,1.5,1.2,3.6.8,5.4.6,3.3-.5,6.1-2.2,8.5-4.5.3-.3.3-.7,0-.9,0,0,0,0,.1-.1.5,0,1-.7.7-1.2Z"/>
      <path class="st0" d="M83.4,58.2c0-.2-.1-.3-.2-.5-.2-.6-.3-1.2-.6-1.7,0,0,0-.2-.1-.3-1-3.3-1.7-6.8-3.7-9.7-.2-.2-.4-.3-.6-.3,0-.3,0-.5,0-.7,0-.9-1.4-1-1.5,0-3.1,1.4-6.3,3.9-7.4,7.2-.6.8-.8,1.8-1.1,2.8,0,.3,0,.6.2.7,0,.7,0,1.5.2,2.3-.2.2-.4.4-.3.8.4,1,.9,1.7,1.6,2.4.7,1.2,1.6,2.2,2.6,2.8.2.2.5.3.7.4.5.4,1.1.7,1.7.9,2.9,1.7,6.4,1.7,9.8,1.5,0,0,.1.1.2.2.4.4,1.1.2,1.3-.3.7-2.7-1.9-6-2.8-8.4Z"/>
      <path class="st0" d="M90.1,79.8c.1-.2,0-.5,0-.7,0-.3-.2-.6-.5-.7-3.5-1.1-6.2-1.9-9.7-.5-.9.3-1.8.7-2.6,1.2-2.2.9-4.2,2.5-5.5,4.9-.2.4,0,1,.5,1.1,0,.3.2.6.5.6,1.5.2,3.3.6,5.1.9,2.7.9,6.3,1.8,9,.4,1.3-.7,2.1-1.7,2.5-2.9.5-1,.8-2.3.9-3.9,0-.2,0-.4-.1-.5Z"/>
      <path class="st0" d="M58.2,73.8c0-.1-.1-.3-.2-.4,0-1.3,0-2.6-.6-3.9-1-2.6-4-3.6-6.4-4.2-5.9-1.4-13.2.1-16.9,5.2-.1.2-.2.4-.2.6-.3.6-.1,1.3.7,1.5.4.1.8.2,1.2.4,1.8.7,3.4,1.8,5.3,2.2,0,0,.2,0,.2,0,1.5.7,3.1,1.3,4.7,1.9,3.5,1.2,6.9,3.2,10.6,3.7.4,0,.8,0,1-.3.2-.1.3-.3.4-.6.3-2,.9-4.1.2-6Z"/>
      <path class="st2" d="M21,66.5c9.3,4.9,18.9,9.3,28.9,12.8s8.5,2.8,12.8,4,9.6,3,14.5,4.1,4.8.8,7.1.7,3.2-.3,4.5-1.4c2.3-1.9,2.2-5.3,1.8-8s-1.6-6.4-2.6-9.6c-1.7-5.5-3.6-10.9-5.7-16.3s-5.1-11.9-8.1-17.5-6.2-12-9.3-18-1.4,0-1.1.6c2.6,5.1,5.2,10.3,7.8,15.3s5.2,9.8,7.4,14.8,4.2,10.4,6,15.7,2.5,7.5,3.6,11.3,1.6,6.3.5,9.1-7.2,2.8-10.4,2.2c-4.7-.9-9.2-2.5-13.8-3.8s-8.2-2.3-12.3-3.7c-10.7-3.6-21-8.2-31-13.5s-1.3.7-.6,1.1h0Z"/>
      <path class="st2" d="M30.4,22.4c-2.6,2.7-5.2,5.3-7.6,8.2s-4.5,6-6.7,9c-3.5,4.7-7.5,9.9-6.9,16.1s1,4.7,2.7,6.5,3.8,2.8,5.9,3.4,4.4.9,6.6.5,4.2-1.9,5.7-3.8,2.9-4.9,3.8-7.6,1.8-5.3,4.1-7.3c4.1-3.5,10.1-4.4,12.4-9.9s1.5-6.6,3.9-9.3,4.6-3.3,6.8-5.1,3.9-4.1,3.6-6.9-2.3-4.7-4.3-6.2c-11-7.9-23.5,4.4-30.2,12.3s.4,1.5.9.9c4-4.7,8.4-9.3,13.9-12.3s7.9-3,11.9-1.5,4.5,2.5,5.8,4.6.4,5.9-2,7.9-4.3,2.6-6.1,4.3-3.2,4.2-4,6.8-1.5,5.3-3.7,7.3-4.7,2.8-7,4.2-3.6,2.4-4.8,4.3-2,4.8-2.9,7.2-2.4,5.1-4.4,7.1-3.7,1.9-5.8,1.8c-4.1-.2-9.3-2.3-10.8-6.4-2.5-6.7,1.7-12.6,5.6-17.8s4.5-6.3,7-9.3,5-5.5,7.6-8.2-.3-1.5-.9-.9h0Z"/>
      <path class="st2" d="M50.6,35.4c1.7,1.4,3.3,2.5,5.5,3.1s4.4.9,6.6.6c4-.4,8.1-2.9,9.7-6.7s-.9-1.1-1.2-.3c-1.4,3.5-5.5,5.6-9.1,5.9s-3.7-.1-5.5-.6-3.5-1.5-5.1-2.8-1.5.4-.9.9h0Z"/>
      <path class="st2" d="M77.7,43.7c-5.5,1.7-10.3,7-10.1,13s4.7,9.1,9.8,10.3,6.2.7,9.3.2.5-1.3-.3-1.2c-5.5.8-13,.2-16.2-5.1s1.6-14.1,7.9-16,.4-1.4-.3-1.2h0Z"/>
      <path class="st2" d="M34.1,72c.9-3.5,5-5.3,8.1-6s6.3-1,9.3-.1,5.4,3.1,6.1,6.2.4,6-.5,8.8,1,1.1,1.2.3c1.4-4.7,1.6-11-2.5-14.5s-11.1-3.1-16-1.4-6.2,3.2-7,6.3,1,1.1,1.2.3h0Z"/>
      <path class="st2" d="M72,85.3c.5-3.1,3.4-5.1,6.2-6.2s3.7-1.2,5.6-1.3,2,0,3,.3,1.9.3,2.6.9,1.5-.4.9-.9c-1.5-1.2-3.8-1.5-5.6-1.6s-4.6.5-6.7,1.3c-3.1,1.2-6.5,3.6-7.1,7.1s1.1,1.1,1.2.3h0Z"/>
      <path class="st2" d="M36.5,61.3c.8-1.4,2.1-2.3,3.7-2.3s1.9.3,2.9.4,2.1.2,3.1,0,.5-1.3-.3-1.2c-2.2.4-4.2-.7-6.4-.5s-3.2,1.4-4.1,2.9.7,1.3,1.1.6h0Z"/>
      <path class="st2" d="M54.4,53.3c1-1,2.5-.4,3.8-.4s2.8-.4,4.1-1.2,0-1.5-.6-1.1-1.2.7-1.9.9-1.4.1-2.2,0-1.3-.2-2-.1-1.4.4-2,.9.3,1.4.9.9h0Z"/>
      <path class="st2" d="M51.2,45.4c.8-.9,1.8-1.4,3-1.5s2.4-.2,3.6-.5.4-1.4-.3-1.2c-1.2.3-2.5.3-3.7.5s-2.5.8-3.3,1.8-.3.6,0,.9.7.3.9,0h0Z"/>
      <path class="st2" d="M66.8,48.1c0-.2.2-.3.3-.5s.1-.2.2-.2,0-.1,0,0,0,0,0,0c.2-.3.5-.5.8-.8s0,0,0,0,.1-.1,0,0c0,0,.1-.1.2-.2.1,0,.3-.2.5-.3s.3-.2.5-.2,0,0,0,0c0,0,0,0,.1,0,0,0,.2,0,.3-.1.3-.1.5-.4.4-.8s-.4-.5-.8-.4c-.8.3-1.6.7-2.2,1.2s-1.1,1.2-1.6,1.9,0,.7.2.9.7,0,.9-.2h0Z"/>
      <path class="st2" d="M60.6,63.4c.4-.2.8-.4,1.2-.3s.3.2.5.4c.5.7.7,1.4,1.2,2.1,1.5,1.9,3.8,1.8,6,1.5s.5-.5.4-.8-.4-.5-.8-.4c-1,.1-2.1.3-3.1,0s-1.6-1-2.1-1.9-.7-1.4-1.3-1.8-1.9-.2-2.7.2,0,1.4.6,1.1h0Z"/>
      <path class="st2" d="M77.2,74.1c.9-.4,1.8-.8,2.8-.9s2.1,0,3.2-.2.5-.5.4-.8-.4-.5-.8-.4c-.5,0-1.1,0-1.7,0s-1.1,0-1.6.2c-1,.2-2,.6-3,1.1s-.4.6-.2.9.5.4.9.2h0Z"/>
      <path class="st2" d="M65.7,79c0-.1.2-.3.3-.4s0,0,0,0c0,.1,0,0,0,0,0,0,.1-.1.2-.2.1-.1.2-.2.4-.3s0,0,0,0,0,0,.1,0c0,0,.1,0,.2-.1s.1,0,.2-.1,0,0,0,0c0,0,0,0,.1,0,.2,0,.3,0,.5-.1s0,0,0,0,0,0,.1,0c0,0,.2,0,.3,0s0,0,.1,0c-.1,0,0,0,0,0,.1,0,.2,0,.3,0,.3,0,.7-.1.8-.4s-.1-.7-.4-.8c-1.7-.5-3.4.6-4.3,2.1s0,.7.2.9.7,0,.9-.2h0Z"/>
      <path class="st2" d="M79,80.7c-1.4.4-1.9,2.5,0,2.2,2.2-.3,1.8-3.4,0-2.3"/>
      <path class="st2" d="M75.1,49.6c-1.4.4-1.9,2.5,0,2.2,2.2-.3,1.8-3.4,0-2.3"/>
      <path class="st2" d="M53,75.6c-1.4.4-1.9,2.5,0,2.2,2.2-.3,1.8-3.4,0-2.3"/>
      <path class="st2" d="M75.1,59.6c-1.4.4-1.9,2.5,0,2.2,2.2-.3,1.8-3.4,0-2.3"/>
      <path class="st2" d="M82.9,62.4c-1.4.4-1.9,2.5,0,2.2,2.2-.3,1.8-3.4,0-2.3"/>
      <path class="st2" d="M50.8,67.7c-1.4.4-1.9,2.5,0,2.2,2.2-.3,1.8-3.4,0-2.3"/>
      <path class="st2" d="M56.1,31.1c-1.4.4-1.9,2.5,0,2.2,2.2-.3,1.8-3.4,0-2.3"/>
      <path class="st2" d="M64,24.4c-1.4.4-1.9,2.5,0,2.2,2.2-.3,1.8-3.4,0-2.3"/>
      <path class="st2" d="M84.7,84c-1.4.4-1.9,2.5,0,2.2,2.2-.3,1.8-3.4,0-2.3"/>
      <path class="st2" d="M40.1,70c-1.4.4-1.9,2.5,0,2.2,2.2-.3,1.8-3.4,0-2.3"/>
      <path class="st2" d="M84.8,80.2c-.7.2-.9,1.2,0,1.1,1.1-.1.9-1.6,0-1.1"/>
      <path class="st2" d="M79,54c-.7.2-.9,1.2,0,1.1,1.1-.1.9-1.6,0-1.1"/>
      <path class="st2" d="M47.5,72.8c-.7.2-.9,1.2,0,1.1,1.1-.1.9-1.6,0-1.1"/>
      <path class="st2" d="M54.2,71.4c-.7.2-.9,1.2,0,1.1,1.1-.1.9-1.6,0-1.1"/>
      <path class="st2" d="M79.4,59.9c-.7.2-.9,1.2,0,1.1,1.1-.1.9-1.6,0-1.1"/>
      <path class="st2" d="M72.5,55.2c-.7.2-.9,1.2,0,1.1,1.1-.1.9-1.6,0-1.1"/>
      <path class="st2" d="M46.1,68.8c-.7.2-.9,1.2,0,1.1,1.1-.1.9-1.6,0-1.1"/>
      <path class="st2" d="M60.7,30.2c-.7.2-.9,1.2,0,1.1,1.1-.1.9-1.6,0-1.1"/>
      <path class="st2" d="M61.1,34.3c-.7.2-.9,1.2,0,1.1,1.1-.1.9-1.6,0-1.1"/>
      <path class="st2" d="M67.6,30.2c-.7.2-.9,1.2,0,1.1,1.1-.1.9-1.6,0-1.1"/>
      <path class="st2" d="M80.1,84.3c-.7.2-.9,1.2,0,1.1,1.1-.1.9-1.6,0-1.1"/>
      <path class="st2" d="M10,52.5c.6.5,1.3.9,2.1,1.3s.7,0,.9-.2,0-.7-.2-.9c-.6-.3-1.2-.7-1.7-1.1h.1c0,0-.1,0-.2,0-.1-.1-.3-.2-.4-.2s-.3,0-.4.2c-.2.2-.3.7,0,.9h0Z"/>
      <path class="st2" d="M12.6,46.8c1.1,1.2,2.6,2.2,4.1,2.8s.7,0,.9-.2,0-.7-.2-.9c-1.5-.6-2.8-1.5-3.8-2.6s-.7-.2-.9,0-.2.6,0,.9h0Z"/>
      <path class="st2" d="M16,41c.4.4.9.7,1.4,1.1s.2.2.3.2,0,0,0,0c0,0,0,0,0,0,0,0,.1,0,.2.1.2.2.4.3.6.5s.6.3.9,0,.3-.7,0-.9c-.4-.4-.9-.7-1.4-1.1s-.2-.2-.3-.2,0,0,0,0c0,0,0,0,0,0,0,0-.1,0-.2-.1-.2-.2-.4-.3-.6-.5s-.6-.3-.9,0-.3.7,0,.9h0Z"/>
      <path class="st2" d="M19.5,36.5c1.1,1,2.3,1.8,3.5,2.6s.7,0,.9-.2,0-.6-.2-.9c-.6-.4-1.1-.8-1.7-1.2s-.3-.2-.4-.3,0,0-.1,0,0,0,0,0,0,0,0,0c0,0,0,0,0,0-.3-.2-.5-.4-.8-.7s-.6-.3-.9,0-.3.7,0,.9h0Z"/>
      <path class="st2" d="M24.6,30.7c.9.8,1.9,1.6,3,2.2s.7,0,.9-.2,0-.7-.2-.9c-.5-.3-1-.6-1.4-1s0,0,0,0c0,0,0,0,0,0,0,0-.1,0-.2-.1-.1,0-.2-.2-.3-.3-.2-.2-.5-.4-.7-.6s-.6-.3-.9,0-.3.7,0,.9h0Z"/>
      <path class="st2" d="M28.8,25.4c1.4,1.1,2.8,2.2,4.2,3.2s.7,0,.9-.2,0-.6-.2-.9c-1.3-1-2.7-2-3.9-3.1s-.6-.3-.9,0-.3.7,0,.9h0Z"/>
      <path class="st2" d="M34.7,19.5c.2.1.5.3.7.5s.2.2.3.3,0,0,0,0c0,0,0,0,0,0s.1,0,.2.1c.5.4,1,.8,1.5,1.1s.7,0,.9-.2,0-.7-.2-.9-.5-.3-.7-.5-.2-.2-.3-.3,0,0,0,0c0,0,0,0,0,0s-.1,0-.2-.1c-.5-.4-1-.8-1.5-1.1s-.7,0-.9.2,0,.7.2.9h0Z"/>
      <path class="st2" d="M40.1,14.4c1.3.8,2.4,1.7,3.5,2.7s.6.3.9,0,.3-.6,0-.9c-1.2-1.1-2.4-2.1-3.8-2.9s-.7,0-.9.2,0,.7.2.9h0Z"/>
      <path class="st2" d="M46.9,9.8c.9.8,1.9,1.7,2.8,2.4s.3.2.4.2.3,0,.4-.2c.2-.2.3-.7,0-.9-1-.8-1.9-1.6-2.8-2.4s-.6-.3-.9,0-.3.7,0,.9h0Z"/>
      <path class="st2" d="M59,13.9c.4.3.6.6.8.9s.4.7.4,1.2c.1.7,0,1.5-.4,2.1s-.3.6,0,.9.7.3.9,0c.7-.9,1-2,.8-3.2s-.8-2.1-1.6-2.8-.6-.3-.9,0-.3.7,0,.9h0Z"/>
      <path class="st2" d="M18.6,60.5c2.3,1.6,5.4,1.5,7.4-.5s-.3-1.4-.9-.9c-1.6,1.6-4,1.6-5.8.3s-1.3.6-.6,1.1h0Z"/>
      <path class="st2" d="M31.2,35.9c-2.3-.7-3.9,2.5-2,4,2.3,1.8,6.2-2.3,2-4"/>
      <path class="st2" d="M38.1,27.4c-2.3-.7-3.9,2.5-2,4,2.3,1.8,6.2-2.3,2-4"/>
      <path class="st2" d="M34.9,39.7c.4.9,1,2,1.9,2.5s2,.4,2.6-.4c1-1.2.3-3.4-.4-4.6l-.7.9c1.4.5,3.7,1.1,4.8-.3s.6-2.1,0-3-1.7-1.6-2.9-1.7-.6.3-.6.6.3.6.6.6c.8,0,1.5.6,1.9,1.3s.3,1.3-.2,1.6c-.8.6-2.4,0-3.3-.2s-1,.5-.7.9.4,1,.6,1.5.1.6.1.9,0,.5-.1.7-.2.3-.4.3-.5,0-.8-.2c-.6-.5-1-1.3-1.3-2s-.6-.4-.9-.2-.4.5-.2.9h0Z"/>
    </g>
  </g>
  <g id="Layer_5" class="st1">
    <g>
      <path class="st0" d="M35.7,44.1c-.4-.3-.8-.2-1.3,0,0,0,0,0,0,0,0,0,0,0,0,0-1.2-.6-2.9-.8-3.9-.9-2.3-.3-4.1,1.1-5.5,2.8-1.7,2-2.8,4.9-3.3,7.5-.5,3.1,1.1,5.7,3,7.9.7.8,2.1.4,2.4-.6.5-2.3,1.9-4.1,3.2-5.9,1.5-1.9,2.6-4.1,3.8-6.2.2-.3.2-.6.2-.9.2-.2.4-.4.5-.6.4,0,.6-.2.8-.5.5-.2.8-.7.8-1.3h0c0-.6-.3-1-.7-1.3Z"/>
      <path class="st0" d="M53.1,27.8c-.1,0-.2,0-.3,0-.1,0-.3,0-.4,0-.8-.4-1.8-.6-2.7-.5-.2,0-.3,0-.4.2-3.4,0-6.5.8-8.9,3.5-1.2,1.4-2.5,3.3-2.9,5.2-.1.1-.2.3-.2.5,0,1.6,0,3.1.1,4.7,0,.7.9,1,1.3.4.3-.6.6-1.1,1-1.7.3-.1.5-.3.7-.6,2.2-3.3,5-6,8.3-8.1.3-.2.5-.5.6-.8,0,0,.1,0,.2,0,.3,0,.5-.1.7-.2,0,0,.2,0,.3,0,.8,0,1.2-.4,1.3-1,.2,0,.4,0,.6,0,.2,0,.3,0,.4-.2,0,0,.2,0,.3-.1,0,0,0,0,0,0,.9,0,.9-1.4,0-1.4Z"/>
      <path class="st2" d="M31.8,25.3c-9.6,1.8-16,11.4-20.2,19.5s-4.5,10.1-5.3,15.5-.4,7.6,1.2,11.1,3.6,5.3,6.8,5,7.3-4.6,9.2-8,2.2-4.4,3.5-6.5,3-4.9,4.5-7.4c2.4-4.2,4.9-8.4,7.7-12.3,5.6-7.8,13.8-15.3,24.1-13.8s9.7,3.4,13.6,6.7,6.2,7.1,8.2,11.5,3.4,8.3,4.9,12.6,2.7,7.5,2.9,11.4-1.6,7.1-5.4,8.5-8.3,2-12.4,2.4c-9.2.9-18.6,1-27.9.7s-19.9-.7-29.2-4.2-3.8-1.5-5.4-2.7-1.3.6-.6,1.1c3.4,2.3,7.5,3.5,11.4,4.6s9,1.6,13.4,2c10.1.8,20.3.9,30.5.4,4.6-.2,9.1-.6,13.7-1.3s7.9-1.3,10.6-3.9c5.4-5.2,1.4-14.3-.6-20-3.1-8.5-6.1-17.7-13.1-23.8s-8-5.7-12.7-6.8-9.5-.4-13.8,1.8c-8.2,4-13.5,12.3-18.1,19.9s-2.9,4.9-4.3,7.4-2.9,4.6-4.2,7c-2.2,4.2-4.3,9.6-9.1,11.4s-6.4-2-7.5-5.2-.9-9.2.4-13.7,4-10.5,6.9-15.3,5.9-8.3,10-11.2,4.3-2.4,6.7-2.9.5-1.4-.3-1.2h0Z"/>
      <path class="st2" d="M12.9,75c-1.4-3.1-1.2-6.1.3-9s3.7-4.8,4.5-7.7c1.4-5.1-2.4-12.9,3.2-16.3s4.2-1.9,6-3.4,3.1-4.2,3.9-6.6.9-4.7,2.5-6.3,1.6-1.1,2.6-1.3c1.6-.4,2.4.2,3.9.6,3,.8,5.9-1.6,8.6-2.7s7.1-2.3,10.4-.2,1.3-.6.6-1.1c-2.6-1.7-5.6-1.8-8.5-1s-2.9,1-4.3,1.7-3,1.8-4.7,2.1-2.7-.6-4.3-.8-2.4.2-3.5.6c-1.9.8-3,2.5-3.6,4.4-1,2.8-1.5,5.7-3.3,8.2s-4.2,3.2-6.6,4.5-3.8,3.5-4.2,6.3.4,6.2.2,9.3-3.7,6.7-5.2,10.2-1.2,6.2.2,9.3,1.4,0,1.1-.6h0Z"/>
      <path class="st2" d="M57.1,28.2c1.6-1.6,2.8-4,2.8-6.3s-1.5-3-2.2-4.7v.8c1.4-1.2,3,1.5,3.4,2.6.6,2.1.4,4.5-.5,6.5s.7,1.4,1.1.6c1.1-2.4,1.4-5.5.4-7.9s-3.2-4.4-5.4-2.7-.2.5,0,.8c.3.8.8,1.4,1.3,2.1s.7,1.1.7,1.8c0,2-1.1,4.1-2.5,5.5s.3,1.5.9.9h0Z"/>
      <path class="st2" d="M67.7,28.7c.4-1,.8-2.1,1.3-3s1.2-2,2.2-2.6.9-.5,1.5-.6.3,0,.4,0,.4,0,.3,0c0,0,.1,0,0,0-.1-.1-.1,0-.2-.3s0-.1,0-.2c-.2.2-.2.3-.3.4s-.4.4-.6.6c-.5.5-1.1,1-1.6,1.5-1.1,1.3-1.9,2.8-2.7,4.3s.7,1.4,1.1.6c.7-1.5,1.5-3,2.6-4.2s1.1-1.1,1.7-1.6.8-.8.9-1.3-.4-1.1-1-1.1-1.5.1-2.2.4c-1.2.5-2.2,1.6-2.9,2.7s-1.4,2.6-1.9,4,.1.7.4.8.6-.1.8-.4h0Z"/>
      <path class="st2" d="M62.7,22.7c.4-.4.8-.7,1.4-.7s1,0,1.5.3c1.1.6,1.9,1.5,2.6,2.4s.7.2.9,0,.2-.6,0-.9c-.9-1.1-1.9-2.2-3.2-2.7s-1.3-.4-2.1-.3-1.4.5-2,1.1.3,1.4.9.9h0Z"/>
      <path class="st2" d="M70.4,26.1c1.1.6,2.3.8,3.5,1.1s1.8.8,2.4,1.7.8,1.4,1.2,2,.9,1.2,1.3,1.9c.8,1.3,1.3,2.7,1,4.3s1.1,1.1,1.2.3c.3-1.7,0-3.3-.8-4.8s-.9-1.3-1.3-2-.9-1.6-1.4-2.3c-.7-1.1-1.5-2-2.8-2.3s-2.5-.5-3.6-1.1-1.3.7-.6,1.1h0Z"/>
      <path class="st2" d="M38.5,42.6c-.1-1.2-.5-2.3-.7-3.4s0-2.5.5-3.7c.9-2,2.2-3.9,3.9-5.2,3.1-2.5,7.9-3.3,11.4-1.3s1.3-.7.6-1.1c-3.9-2.2-9.1-1.5-12.6,1.2s-3.5,3.6-4.4,5.8-.9,2.4-.8,3.6.7,2.7.8,4.1,1.3.8,1.2,0h0Z"/>
      <path class="st2" d="M41.3,39.1c0-2.3.7-4.6,2.5-6.2s4-2,6.2-2,.8-1.3,0-1.2c-2,0-4.1.4-5.8,1.4s-2.9,2.5-3.5,4.3-.6,2.4-.6,3.7,1.2.8,1.2,0h0Z"/>
      <path class="st2" d="M44.8,35s0,.1,0,0,0,0,0,0c0,0,0,0,0-.1,0,0,0-.2,0-.3s0-.1,0-.2c0-.1,0,.1,0,0s0,0,0-.1c0,0,0-.1,0-.2s0,0,0,0c0-.1,0,.1,0,0s.1-.2.2-.3,0,0,0,0c0,0,0,0,0,0,0,0,0,0,0,0,0,0,0,0,.1-.1s0,0,0,0,0,0,0,0-.1,0,0,0,.1,0,.2-.1c.1,0,.2-.1.4-.2s0,0,0,0c0,0,0,0,0,0,0,0,0,0,0,0,0,0,.1,0,.2,0,.2,0,.3,0,.5-.1s0,0,.1,0,0,0,0,0c0,0-.1,0,0,0s.2,0,.3,0c.3,0,.6-.3.6-.6s-.3-.7-.6-.6c-.8,0-1.5.2-2.2.6s-1.1,1-1.3,1.7-.1,1,0,1.5.2.3.3.4.3.1.5,0c.4-.1.5-.4.4-.8h0Z"/>
      <path class="st2" d="M26.2,61.2c-4.8-1.8-4.6-7.2-2.8-11.2s2.5-4.3,4.7-5.5,3-1.1,4.4-.8,2.5,1.2,3.8,1.7,1.4-.8.6-1.1c-1.1-.5-2.1-1.2-3.2-1.6s-2.6-.4-3.8-.1c-2.4.5-4.5,2.1-6,4.1-2.2,3-3.7,7.5-2.6,11.2s2.4,3.7,4.5,4.5,1.1-.9.3-1.2h0Z"/>
      <path class="st2" d="M27.2,59.8c-2.9-1.1-3.3-4.3-2.6-7s2.8-5.7,5.6-6.6,3.3-.1,4.6.9,1.3-.6.6-1.1c-6.5-4.8-13.9,4.7-12.3,11s1.8,3.2,3.6,3.9,1.1-.9.3-1.2h0Z"/>
      <path class="st2" d="M36.9,43.9c-1-.9-1.9-2-2.7-3.2s-.8-1.2-1-1.9-.3-1.1-.2-1.6l-.6.5s0,0,.1,0c0,0,0,0,0,0,0,0,.1,0,.2,0-.1,0,0,0,0,0,0,0,.1,0,.2.1,0,0,0,0,0,0,0,0,.1.1.2.2s.2.2.2.3c.4.6.8,1.2,1.1,1.9.6,1.2,1,2.6,1.7,3.7s1.5,0,1.1-.6-.6-1.1-.8-1.7-.6-1.6-1-2.4c-.6-1.2-1.4-2.9-3-2.9s-.5.2-.6.5c-.4,1.5.5,3.1,1.3,4.3s1.8,2.6,3,3.6,1.5-.3.9-.9h0Z"/>
      <path class="st2" d="M28.2,58.6c-1-1.2-2.6-2.8-2-4.5s0,0,0-.1,0-.1.1-.2,0,0,0,0,0,0,0,0,.2-.2,0,0c0,0,.1,0,.2-.1s.2,0,.1,0,.1,0,.2,0c0,0,.2,0,.2,0s.2,0,.1,0c0,0,.2,0,.2,0,.2,0,.3,0,.5,0,.4,0,.6,0,.9.1.7.1,1.3.3,2,.5s1.1-1,.3-1.2c-1.4-.4-2.9-.9-4.4-.6s-1.5.6-1.8,1.3c-.5,1-.3,2.2,0,3.2s1.3,2,2.1,2.9,1.4-.3.9-.9h0Z"/>
      <path class="st2" d="M32,52.2c-.5-.4-1.1-.6-1.7-.9s-.3-.2-.4-.2-.2-.2-.1,0c0,0-.1-.1-.2-.2s0,0-.1-.1,0,0,0,0,0,0,0,0-.1-.2,0-.1,0,0,0,0c0,0,0,0,0-.1,0-.1,0,0,0,0,0,0,0,0,0-.1s0-.2,0-.1c0-.2,0-.4.1-.5s0-.1.1-.2.1-.2,0-.1c0,0,.1-.1.2-.2s.2-.1.2-.1c.2-.2.5-.3.8-.4s.3,0,.5-.1.2,0,.3,0,0,0,0,0,.1,0,.2,0c.8,0,1.6,0,2.3.1s.7,0,.8-.4-.1-.7-.4-.8c-.8-.2-1.7-.2-2.5-.2s-1.8.3-2.5.8-1.3,1.3-1.3,2.2.5,1.5,1.2,1.9,1.5.8,2.1,1.2.7,0,.9-.2,0-.7-.2-.9h0Z"/>
      <path class="st2" d="M27.6,55.4c.2,0,.5,0,.7,0h-.2c0,0,.1,0,.2,0,.2,0,.3,0,.5,0s.3-.2.3-.4,0-.3,0-.5-.2-.2-.4-.3c-.4,0-.7,0-1.1,0s-.3,0-.4.2-.2.3-.2.4,0,.3.2.4.3.2.4.2h0Z"/>
      <path class="st2" d="M31,49.8c0,.3.2.6.3.8s.2.3.3.4c0,0,.1,0,.2,0,0,0,.2,0,.2,0,.2,0,.3-.1.4-.3s.1-.3,0-.5c0-.3-.2-.6-.3-.8s-.2-.3-.3-.4c0,0-.1,0-.2,0,0,0-.2,0-.2,0-.2,0-.3.1-.4.3s-.1.3,0,.5h0Z"/>
      <path class="st2" d="M22.8,68.6c-1.1-1-2.5-1.4-3.5-2.5s-.2-.3,0,0c0,0,0-.1-.1-.2,0-.2-.2-.3-.3-.5s0,0,0,0,0,0,0-.1c0,0,0-.2-.1-.3,0-.2-.1-.5-.2-.7s0-.3,0-.5,0-.1,0-.2c0,0,0-.2,0,0s0-.2,0-.2c0,.2,0-.2,0,0s0,0,0,0c-.1,0,0,0,0,0s.1,0,0,0c0,0,.1,0,.2,0,0,0,0,0,0,0,0,0-.1,0-.2,0,0,0,0,0,0,0,0,0,0,0,0,0,0,0,0,0,0,0s0,.2.1.3c0,0,0,0,0,0,0,0,0,.1,0,.2,0,.1,0,.3.1.4.2.5.3,1,.5,1.5.5,1.4,2.1,2.5,3.6,2.6s.8-1.2,0-1.2-1.3-.4-1.8-.9-.4-.4-.5-.7,0,0-.1-.2,0-.3-.1-.4c-.2-.5-.3-1.1-.5-1.6s-.4-1-1-1.1-1.2.2-1.5.6-.3.9-.3,1.4c0,.9.4,2,.9,2.7.9,1.4,2.6,1.8,3.8,2.8s1.5-.3.9-.9h0Z"/>
      <path class="st2" d="M21.1,48.2c0,0,0-.1,0-.2s0-.2,0,0c0-.1,0-.2,0-.3s0-.1,0-.2c0,.1,0,0,0,0,0,0,0-.2,0-.3s0,0,0-.1c0,.1,0,0,0,0,0,0,0-.2.1-.3s.1-.2.2-.2c0,.1,0,0,0,0,0,0,0,0,.1-.1.1-.2.3-.3.4-.4s.2-.1.2-.2,0,0,0,0,0,0,.1,0c.3-.2.7-.5,1-.7s.4-.6.2-.9-.6-.4-.9-.2c-.8.5-1.6,1-2.2,1.7s-.6.8-.7,1.3-.2,1.1,0,1.6.5.5.8.4.5-.4.4-.8h0Z"/>
      <path class="st2" d="M29.9,39.7c0-.2,0-.3,0-.5s0-.2,0-.2c0,0,0,.1,0,0,0,0,0,0,0,0,0,0,0,0,0,0,0-.1,0-.3.1-.4s0-.1,0-.2c0,.1,0,0,0,0s0,0,0,0c0-.1.1-.3.2-.4s0-.1,0,0c0,0,0,0,0,0,0,0,0-.1.1-.2s.1-.1.2-.2,0,0,0,0c0,0,0,0,0,0,.1,0,.3-.2.4-.3.3-.2.4-.6.2-.9s-.5-.4-.9-.2c-.6.3-1.2.9-1.5,1.5s-.5,1.4-.5,2.2.3.6.6.6.6-.3.6-.6h0Z"/>
      <path class="st2" d="M33.5,33.1c0-.6,0-1.1.3-1.7s.4-.9.7-1.2c.4-.4.7-.6,1.2-.9s1-.5,1.6-.7.5-.4.4-.8-.5-.6-.8-.4c-1.2.5-2.4,1-3.3,2s-1.3,2.3-1.3,3.7,1.2.8,1.2,0h0Z"/>
      <path class="st2" d="M36.9,31.6c0,0,0-.1,0-.2h0c.1-.2.3-.5.5-.8h0c.2-.2.5-.5.8-.7s.2-.7,0-.9-.6-.2-.9,0c-.7.6-1.3,1.3-1.6,2.2s0,.4,0,.5.2.3.4.3.3,0,.5,0,.2-.2.3-.4h0Z"/>
      <path class="st2" d="M43.9,26.6c.8-.4,1.7-.7,2.7-.8s1.9,0,2.8.2.7,0,.8-.4-.1-.7-.4-.8c-1.1-.2-2.2-.3-3.3-.2s-2.2.5-3.2,1-.4.6-.2.9.5.4.9.2h0Z"/>
      <path class="st2" d="M52.5,24.5c.7.2,1.4.4,2,.5s.3,0,.5,0,.3-.2.3-.4c0-.3,0-.7-.4-.8-.7-.1-1.4-.3-2-.5s-.7.1-.8.4.1.7.4.8h0Z"/>
      <path class="st2" d="M63.3,26c.4,0,.8.1,1.2.3h-.1c.1,0,.3,0,.4.2h-.1c0,0,0,0,.1,0,.2.2.7.3.9,0s.2-.6,0-.9-.6-.5-1-.6-.6-.1-1-.2-.3,0-.5,0-.3.2-.3.4c0,.3,0,.7.4.8h0Z"/>
      <path class="st2" d="M73.3,30.2c.2,0,.5.1.7.2s0,0,.1,0c0,0,0,0,0,0,0,0,0,0,0,0,.1,0,.2.1.3.2s.2.1.3.2.1,0,0,0,0,0,0,0c0,0,0,0,.1.1,0,0,.2.2.2.3s0,0,0,0,0,.1,0,0,0,0,0,0c0,0,0,0,0,0,.2.3.6.4.9.2s.4-.6.2-.9c-.3-.5-.7-.9-1.3-1.2s-1-.5-1.5-.6-.7,0-.8.4,0,.7.4.8h0Z"/>
      <path class="st2" d="M17.3,71.2s0,0,0,0c0,0,0,0,0,0s0-.1-.1-.2c0-.1-.1-.2-.2-.4s0-.1,0-.2,0,0,0,0c0,.1,0,0,0,0,0-.1,0-.3-.1-.4s0-.1,0-.2,0-.2,0-.2c0,0,0,.1,0,0s0,0,0,0c0,0,0-.1,0-.2s0-.2,0-.2c0,0,0,.1,0,0s0,0,0,0c0,0,0-.1,0-.2s0,0,0,0c0,0,0,.1,0,0,.1-.3,0-.7-.2-.9s-.7,0-.9.2c-.6,1.3,0,2.9.8,4s.7.2.9,0,.2-.6,0-.9h0Z"/>
      <path class="st2" d="M6.9,62.5c.4.1.7.2,1.1.4h-.1c.3,0,.5.2.8.3s.7,0,.9-.2,0-.7-.2-.9c-.6-.4-1.3-.6-2-.8s-.7.1-.8.4.1.7.4.8h0Z"/>
      <path class="st2" d="M7.9,56.7c.8.3,1.5.6,2.3.8s.7-.1.8-.4,0-.7-.4-.8c-.8-.2-1.5-.6-2.3-.8s-.7.1-.8.4.1.6.4.8h0Z"/>
      <path class="st2" d="M10.4,50.1c0,0,.2,0,.3.1s0,0,.1,0c0,0,0,0,0,0,0,0,0,0,0,0,.2,0,.3.2.5.2.3.2.7.4,1,.6s.7,0,.9-.2,0-.7-.2-.9c-.7-.5-1.5-.8-2.3-1.1s-.4,0-.5,0-.3.2-.3.4c0,.4.1.6.4.8h0Z"/>
      <path class="st2" d="M12.5,44.2c.7.5,1.4.9,2.1,1.4h-.1c0,0,0,0,0,0,.1.1.3.2.4.2s.3,0,.4-.2.2-.3.2-.4,0-.3-.2-.4c-.7-.5-1.4-.9-2.1-1.4h.1c0,0,0,0,0,0-.1-.1-.3-.2-.4-.2s-.3,0-.4.2-.2.3-.2.4,0,.3.2.4h0Z"/>
      <path class="st2" d="M16.3,38.1l1.1.8c0,0,.1.1.2.1,0,0,.2,0,.2,0,.2,0,.3,0,.4-.2s.2-.3.2-.4,0-.3-.2-.4l-1.1-.8c0,0-.1-.1-.2-.1,0,0-.2,0-.2,0-.2,0-.3,0-.4.2s-.2.3-.2.4,0,.3.2.4h0Z"/>
      <path class="st2" d="M20.4,33.2c.4.4.9.8,1.3,1.2s.3.2.4.2.3,0,.4-.2.2-.3.2-.4,0-.3-.2-.4c-.4-.4-.9-.8-1.3-1.2s-.3-.2-.4-.2-.3,0-.4.2-.2.3-.2.4,0,.3.2.4h0Z"/>
      <path class="st2" d="M26.1,28.6c.3.4.6.6,1,.9,0,0,.1.1.2.1,0,0,.2,0,.2,0,.2,0,.3,0,.4-.2s.2-.3.2-.4,0-.3-.2-.4c-.4-.3-.7-.6-1-.9,0,0-.1-.1-.2-.1,0,0-.2,0-.2,0-.2,0-.3,0-.4.2s-.2.3-.2.4v.2c0,.1.1.2.2.3h0Z"/>
      <path class="st2" d="M21.7,79.4c0-.3.2-.5.3-.8q0,0,0,0s0,0,0,0c0,0,0-.1,0-.2,0-.1.1-.2.2-.4.2-.5.5-1,.7-1.5s.1-.3,0-.5-.2-.3-.3-.4c-.3-.1-.7,0-.9.2-.5,1.1-1.1,2.1-1.4,3.2s.1.7.4.8.7,0,.8-.4h0Z"/>
      <path class="st2" d="M28.6,81.1c.1-.9.5-1.7.7-2.5s-.1-.7-.4-.8-.7,0-.8.4c-.2.9-.6,1.7-.7,2.5s0,.3,0,.5.2.3.4.3c.3,0,.7,0,.8-.4h0Z"/>
      <path class="st2" d="M36.1,82c.2-1.3.5-2.5.8-3.8s0-.7-.4-.8-.7,0-.8.4c-.3,1.3-.6,2.5-.8,3.8s0,.7.4.8.7,0,.8-.4h0Z"/>
      <path class="st2" d="M44,82.3c.1-.9.2-1.8.6-2.7s0-.4,0-.5-.2-.3-.4-.3-.3,0-.5,0-.2.2-.3.4c-.4.9-.4,1.8-.6,2.7s0,.3,0,.5.2.3.4.3c.3,0,.7,0,.8-.4h0Z"/>
      <path class="st2" d="M52.2,82.7c0-1.1.3-2.2.4-3.4s-.3-.6-.6-.6-.6.3-.6.6c0,1.1-.3,2.2-.4,3.4s.3.6.6.6.6-.3.6-.6h0Z"/>
      <path class="st2" d="M60,82.5c0-.2,0-.4,0-.6,0,.2,0,0,0,0s0,0,0-.1c0-.1,0-.2,0-.3,0-.5.2-.9.2-1.4s-.3-.6-.6-.6-.6.3-.6.6,0,.1,0,.2,0,.2,0,0c0,.1,0,.2,0,.3,0,.2,0,.4-.1.7,0,.5-.2.9-.2,1.4s.3.6.6.6.6-.3.6-.6h0Z"/>
      <path class="st2" d="M69.3,82.4c0-.8,0-1.7,0-2.5s-.3-.6-.6-.6-.6.3-.6.6c0,.8,0,1.7,0,2.5s.3.6.6.6.6-.3.6-.6h0Z"/>
      <path class="st2" d="M79.3,81.1c0-1.3.1-2.5.3-3.8s-.3-.6-.6-.6-.6.3-.6.6c-.1,1.3-.3,2.5-.3,3.8s.3.6.6.6.6-.3.6-.6h0Z"/>
      <path class="st2" d="M86.4,79.7c0,.2,0,0,0,0,0,0,0-.1,0-.2,0-.1,0-.2,0-.4,0-.2,0-.5,0-.7s0-.1,0-.2c0,0,0,0,0-.1,0,0,0,0,0,0,0-.1,0-.2,0-.3,0-.2,0-.5.1-.7s0-.3,0-.5-.2-.3-.4-.3c-.3,0-.7,0-.8.4-.2,1.1-.4,2.1-.2,3.2s.5.5.8.4.5-.4.4-.8h0Z"/>
      <path class="st2" d="M91.5,77.4c0,0,0-.1,0-.2v.2c0-.3,0-.6,0-.9s0-.3-.2-.4-.3-.2-.4-.2-.3,0-.4.2-.2.3-.2.4c0,.4,0,.8,0,1.2s.2.3.3.4.3.1.5,0,.3-.1.4-.3h0c0-.3,0-.4,0-.5h0Z"/>
      <path class="st2" d="M53.4,54.4c-2.7-.6-4.1,3.4-1.3,4.2,2.3.6,4-3.2,1.3-4.2"/>
      <path class="st2" d="M65,52.4c-2.7-.6-4.1,3.4-1.3,4.2,2.3.6,4-3.2,1.3-4.2"/>
      <path class="st2" d="M55.3,59.2c0,.9,0,1.8.5,2.6s1,1.3,1.8,1.6,2.1.3,3-.1,1.6-1.2,2-2.1.6-2.3,0-3.3-1.5,0-1.1.6c.6,1.2,0,2.9-1.3,3.5s-1.3.4-2,.2-.2,0-.3,0-.2,0-.1,0c0,0-.1,0-.2-.1s0,0-.1,0-.1,0,0,0c0,0-.2-.2-.3-.3s0,0,0,0c0,0,0,0,0,0,0,0,0-.1-.1-.2s0,0,0-.1c0-.2,0,0,0,0s0-.2,0-.3c0-.2,0-.4-.1-.6,0-.3,0-.8,0-1.2,0-.8-1.3-.8-1.2,0h0Z"/>
      <path class="st2" d="M29.6,66.6c.8,0,.8-1.2,0-1.2s-.8,1.2,0,1.2h0Z"/>
      <path class="st2" d="M31.5,62.9c.8,0,.8-1.2,0-1.2s-.8,1.2,0,1.2h0Z"/>
      <path class="st2" d="M32.5,65.6c.8,0,.8-1.2,0-1.2s-.8,1.2,0,1.2h0Z"/>
      <path class="st2" d="M51.9,73.5c.8,0,.8-1.2,0-1.2s-.8,1.2,0,1.2h0Z"/>
      <path class="st2" d="M55.2,71.7c.8,0,.8-1.2,0-1.2s-.8,1.2,0,1.2h0Z"/>
      <path class="st2" d="M52.5,70.3c.8,0,.8-1.2,0-1.2s-.8,1.2,0,1.2h0Z"/>
      <path class="st2" d="M44.2,51.9c.8,0,.8-1.2,0-1.2s-.8,1.2,0,1.2h0Z"/>
      <path class="st2" d="M47.5,49.5c.8,0,.8-1.2,0-1.2s-.8,1.2,0,1.2h0Z"/>
      <path class="st2" d="M47.9,51.8c.8,0,.8-1.2,0-1.2s-.8,1.2,0,1.2h0Z"/>
      <path class="st2" d="M73.6,46.3c.8,0,.8-1.2,0-1.2s-.8,1.2,0,1.2h0Z"/>
      <path class="st2" d="M77.2,45.7c.8,0,.8-1.2,0-1.2s-.8,1.2,0,1.2h0Z"/>
      <path class="st2" d="M75.2,44c.8,0,.8-1.2,0-1.2s-.8,1.2,0,1.2h0Z"/>
      <path class="st2" d="M58.2,37.4c.8,0,.8-1.2,0-1.2s-.8,1.2,0,1.2h0Z"/>
      <path class="st2" d="M61,35.5c.8,0,.8-1.2,0-1.2s-.8,1.2,0,1.2h0Z"/>
      <path class="st2" d="M74.9,68.8c.8,0,.8-1.2,0-1.2s-.8,1.2,0,1.2h0Z"/>
      <path class="st2" d="M77.8,64c.8,0,.8-1.2,0-1.2s-.8,1.2,0,1.2h0Z"/>
      <path class="st2" d="M79.7,69.3c.8,0,.8-1.2,0-1.2s-.8,1.2,0,1.2h0Z"/>
      <path class="st2" d="M84.6,66.7c.8,0,.8-1.2,0-1.2s-.8,1.2,0,1.2h0Z"/>
    </g>
  </g>
</svg>