<?xml version="1.0" encoding="UTF-8"?>
<svg id="Layer_1" data-name="Layer 1" xmlns="http://www.w3.org/2000/svg" viewBox="0 0 296.26 299.68">
  <defs>
    <style>
      .cls-1 {
        fill: #e4414a;
      }

      .cls-2 {
        fill: #fff;
      }
    </style>
  </defs>
  <g>
    <path class="cls-2" d="M42.7,29.56c-3.95-.14-2.79,3.51-3.19,5.82-.67,3.85-2.15,7.31-6.15,8.51-2.05.61-4.94-.07-5.1,2.45-.24,3.84,3.75,2.65,6.14,3.87,2.26,1.16,4.12,4.19,4.71,6.6.73,2.99-.39,6.16,3.52,6.8,3.37-1.04,2.23-4.76,2.98-7.47s2.21-4.96,4.83-6.05c2.1-.87,5.48-.3,5.4-3.36s-4.01-2.34-5.83-2.9c-2.33-.72-4.26-4.26-4.82-6.49-.4-1.6-.25-6.16-.67-6.85s-1.02-.89-1.82-.92ZM26.05,145.45c-4.76-.82-9.02-2.62-9.85-7.94-.35-2.23.78-6.49-2.78-6.37-3.85.13-2.49,4.42-2.95,7.12s-2.31,5.44-4.95,6.36c-1.96.69-7.37.76-4.87,4.67.94,1.47,5.42.81,7.91,3.4,2.7,2.81,2.39,11.27,5.59,11,3.89-.33,2.3-6.15,3.74-9.21,2.37-5.05,7.54-3.4,8.47-5.35l-.3-3.67ZM48.66,282.37c-4.12.72.51,7,2.58,1.02-.56-.86-1.61-1.19-2.58-1.02ZM231.24,282.37c-3,.88.94,5,2.63,3.08,1.55-1.75-.58-3.68-2.63-3.08ZM54.98,286.55c-1.34-2.12-6.33,2.43-2.14,3.22,1.98.37,2.88-2.04,2.14-3.22ZM230.05,286.96l-2.99-.83c-1.09.43-1.28,1.49-1.15,2.58l2.68,1.53c.74-.57,1.98-2.44,1.47-3.28ZM234.4,290.16c1.6,1.58,4.27-.41,3.04-2.41s-4.93.54-3.04,2.41ZM44.22,287.81c-1.92,1.22,1.94,5.86,3.62.98-.08-1.04-2.95-1.4-3.62-.98ZM57.25,290.37l-.77,2.84,2.77.64c1.06-1.64,1.21-3.04-.81-3.81l-1.19.33ZM222.88,290.32c-3.1.42-.97,5.28,1.51,2.81,1.42-1.4-.2-2.99-1.51-2.81ZM50.32,291.59c-3.07.91.95,5.29,2.61,1.03-.56-1-1.5-1.35-2.61-1.03ZM107.81,294.45c2.17.57,4.2-1.72,1.71-2.75-1.68-.34-5.05,4.78-3.41,5.91l2.54.18-.84-3.35ZM171.05,291.52c-.12,1.69.17,3.68,2.28,3.36,3.09-.48-.13-4.02-2.28-3.36ZM232.51,294.34c.34-.33.58-1.22.46-1.69l-.78-.94c-.72-.48-3.11.18-3.33.88-.11,1.8,2.34,3.05,3.65,1.75ZM165.86,292.38c-1.69.99-1.38,3.37-.05,4.59,3.3,3.04,2.81-3.89.05-4.59ZM157.5,293.25c-1.52.51.05,6.12,2.4,5.35,1.23-.4,1.35-6.6-2.4-5.35ZM63.72,293.67c-1.65.47-1.99,3-.73,4.36,3.4,3.7,4.81-5.53.73-4.36ZM218.69,294.55c-1.28-1.29-4.45.27-3.46,2.4,1.76,3.77,5.47-.37,3.46-2.4ZM226.28,294.08l-3.28.39c-.16,4.09,4.95,3.79,3.28-.39ZM153.83,298.17c.2-1.4.34-3.49-1.44-3.73-3.63-.49-3,6.05,1.44,3.73ZM177.29,297.76c1.15-3.44-4.43-4.63-3.21-.48l3.21.48ZM58.81,295.29l-3.35-.42c-.8,4.72,4.13,1.5,3.35.42ZM112.52,295.39c-2.16,2.16,1.77,4.5,3.04,2.41s-1.48-3.98-3.04-2.41ZM71.26,295.36c-1.68.5-1.59,3.44.36,3.71,3.32.46,2.97-4.69-.36-3.71ZM79.63,295.34c-1.54.43-2.15,3.07-.29,3.92,3.79,1.73,4-4.96.29-3.92ZM102.31,295.35l-3.29-.06.82,3.58c2.71.9,3.63-1.28,2.47-3.52ZM125.82,295.28c-.14,2.06-.29,4.88,2.52,3.99,2.33-2.72.58-4.14-2.52-3.99ZM186.49,296.18c-.46-.76-4.57-1.64-4.56.58.02,2.98,6.08,1.94,4.56-.58ZM207.79,295.36c-2.54.76-.15,4.68,2.21,3.5,1.98-.99.22-4.23-2.21-3.5ZM88.46,299.38c.9-.51,1.48-3.09-.21-3.6-3.67-1.1-2.81,5.32.21,3.6ZM93.87,295.78c-1.71.51-1.92,4.52,1.09,3.62,1.71-.51,1.92-4.52-1.09-3.62ZM121.98,299.4c1.57-2.78.37-4.26-2.84-3.67l.02,3.7,2.82-.03ZM135.82,296.18c-.27-.44-3.72-1.34-3.74.98-.04,4.25,5.4,1.65,3.74-.98ZM142.12,296.16l-3.31-.46c-.16,2.23-.26,4.11,2.52,3.15l.79-2.69ZM144.85,295.86c-1.09.61-1.14,3.12.86,3.23,3.51.19,2.02-4.83-.86-3.23ZM192.26,295.76c-1.5.5-.67,3.02.97,3.54,2.87.9,2.82-4.81-.97-3.54ZM199.8,295.76c-1.23.41-1.04,3.47.81,3.72,3.46.48,2.92-4.98-.81-3.72Z"/>
    <path d="M243.5,57.83c-6.4-5.07-13.43-6.61-21.09-3.29-3.54,1.53-8.66,5.22-8.15,9.67.18,1.58,3.03,8.47,4.01,9.85,1.17,1.66,2.04,1.61,3.87,2.2v-13.61c0-.99,2.81-1.55,3.79-.33,2.45,3.02.33,10.19,1.42,13.54.73,2.25,7.41,1.34,8.28-.55,1.21-2.61,1.29-11.69,1.95-12.61.4-.56,3.77-.86,4.17-.19.59,4.37.92,8.64-1.19,12.72.64,1.05,1.97,0,2.92-.21v4.61c-7.47,3.59-15.03,4.32-23,1.84l-.85.46c2.26,15.72-2.79,31.49-12.1,44.09-.18.9,1.06,2.03,1.4,3.05,2.37,7.25,1.14,13.98-3.48,19.95,5.8,8.73,9,18.91,11.44,29.05h.85c4.59-3.73,9.12-6.75,12.76-11.53,1.36-1.79,8.23-13.16,8-14.61-17.09-6.31-11.99-33.72,4.99-36.27M251.04,60.76c1.78,9.5-1.76,15.08-1.76,15.08,2.85,58.63-5.78,81.66-5.78,81.66-2.55,3.05-4.05,6.89-6.36,10.18-4.29,6.13-10.42,12.47-17.5,15.15,1.04,1.2.98,3.2,1.88,4.39.72.95,4.03,2.8,5.24,3.97,7.51,7.27,12,19.41,12.55,29.72.9,16.74-3.51,32.46-15.46,44.48,4.81,7.27,4.7,18.92-2.76,24.44-1.09.81-8.59,4.19-9.58,4.17-1.14-.03-2.43-.85-3.82-.85-1.41,0-2.43.76-3.76.87-6.21.52-15.35.39-21.35-.43-4.36-.59-7.48-2.71-10.89-5.29-6.19,2.45-13,3.09-19.55,4.17-4.02.66-5.98,1.32-10.19,1.51-8.62.39-18.71.34-27.1-2.18-2.06-.62-3.67-1.77-5.57-2.66-3.7,2.9-6.65,3.94-11.31,4.45-11.42,1.26-28.17,2.3-37.61-4.68-6.07-4.49-6.04-14.04-3.65-20.66.28-.77.88-1.34,1.17-2.09-8.98-8.77-15.88-22.04-16.68-34.74-.93-14.86,1.64-29.35,11.19-41.07-12.09-18.32.17-42.59,18.61-50.75-.14-4.23-.01-8.48,2.4-12.15-15.96-17.89-18.05-42.26-9.88-64.3.41-1.12,2.67-5.24,2.68-5.55,0-.93-1.39-5.22-1.52-7.13-1.82-25.92,4.03-65.72,39.07-44.1,5.99,3.69,11.46,8.46,15.65,14.11,13.86-3.61,28.94-4.21,42.65.34,10.81-13.92,37.09-33.43,48.86-9.8,5.74,11.54,6.33,27.53,4.54,40.07,2.14-.74,3.91-2.14,6.06-2.94,7.57-2.8,15.33-2.09,22,2.52,0,0,6.28,3.35,7.54,10.05ZM124.56,25.17c-2.75.57-4.66,2.67-6.86,4.17-4.81-7.56-10.34-13.73-18.13-18.33-10.22-6.03-18.82-8.06-24.49,4.24-4.94,10.7-4.91,23.27-4.11,34.83l1.99,8.74c-11.36,18.61-10.71,42.78,2.02,60.54,17.6,24.55,57.17,28.96,84.91,24.68,29.49-4.55,55.86-24.74,53.9-57.12-.48-7.99-3.45-13.35-5.49-20.48-1.16-4.07,1.35-14.05,1.66-18.94.52-8.37.29-17.54-1.85-25.68-4.15-15.78-10.95-19.84-25.72-11.07-7.94,4.72-13.93,11.46-19.09,19.01-2.09-1.87-3.16-4.66-6.49-4.18,1.49,4.17-2.09,9.19-5.25,11.71-10.65,8.52-27.83,2.29-27-12.13ZM106.56,201.06c3.88-.74,5.56-6.23,5.45-9.83-.25-7.89-12.53-21.91-18.23-27.45-5.21-5.06-10.9-7.9-15.9-12.16-2.08-1.77-3.85-6.4-6.51-5.67-1.31.36-8.14,4.84-8.33,5.95,5.64,7.27-1.74,17.81-9.66,19.01-1.76,14.4,11.2,22.76,20.1,31.59,3.6,3.58,6.92,9.01,13.06,8.51,4.51-.37,2.14-4.45.69-7.18-.67-1.27-3.54-4.42-3.11-5.29,3.03-2.99,6.07,2.06,7.7,4.47,1.06,1.57,1.99,3.34,2.63,5.13,7.98-.84,9.54-4.8,6.05-11.71-.71-1.41-3.2-3.65-2.55-5l2.44-1.19c2.02.31,6.89,8.3,6.17,10.82ZM96.37,146.26c-1.18.4-1.35,2.7-.9,3.69.73,1.59,4.97,2.41,6.45,3.6,2.09.75,3.74-.32,3.83-2.55.12-2.79-2.69-2.59-4.64-3.34-1.57-.6-2.48-2.17-4.74-1.4ZM177.63,147.12c-2.15.64-3.38,4.34-1.12,5.97,3.67,2.65,6.17-3.1,3.77-5.85-.62-.37-1.95-.33-2.64-.12ZM116.45,152.75c.36-.63.74-1.57.19-2.19l-3.81-1.24c-1.2,1.27-.88,2.82-.32,4.31,1.6.74,3.02.74,3.93-.88ZM131.68,151.23l-10.88-1.26c-.18,1.18.2.78,1.04.84s4.55.33,5.03.48c.14.05.5,1.35,1.89.78.08,1.98-1.01,1.29-1.47,1.64-1.01.76-2.03,3.34-2.29,4.64,1.54-1.41,2.71-3.78,4.19-5.23.81-.79,1.97-1.04,2.51-1.88ZM169.71,150.46l-3.4-.45c-3.3,2.74-.3,5,3.07,3.93,1.09-.51.78-2.55.33-3.48ZM155.97,150.8l-5.86.62,5.02,4.4-2.51-3.76c.94-.4,2.06-.36,2.95-.55.75-.16.71-.46.4-.71ZM211.25,184.72c-.24-11.16-3.29-23.41-10.32-32.2-12.65,7.99-27.72,13.42-42.87,13.36.15,23.92-34.36,24.01-33.92,0-8.28.15-16.47-1.61-24.29-4.18,6.83,7.75,15.25,16.26,17.19,26.78,25.31-2.37,50.06,13.67,57.78,37.71l.96-6.36c3.66-17.23,15.95-35.6,35.47-35.1ZM129.59,165.88c7.37-.92,14.77-.74,22.17-.16l.85-.46c-2.45-13.61-21.88-13.54-23.02.62ZM166.02,158.76c-1.94-.12-6.96,1.8-8.19.87-.77-.58-.8-2.18-1.85-2.55.17.66.71,2.54,1.04,2.93.73.88,6.52-.19,7.95-.44.74-.13,1.25.46,1.05-.82ZM151.79,170.91c-.79-.88-14.1-.99-16.14-.86-.82.05-4.68.46-4.8,1.07,4.28,9.43,16.93,9.55,20.94-.22ZM218.65,260.26c.28.23.53,1.09.78,1.09,16.44-14.76,19.65-49.29,3.57-65.13-17.37-17.1-35.18,2.71-40.51,19.81-.91,2.91-4.63,14.93-4.7,17.12-.06,2.06.77,4.93.83,7.04.19,6.55-.03,13.07-1.27,19.49,2.49-1.6,4.99-3.2,7.86-4.07,10.34-3.14,24.9-2.49,33.45,4.64ZM119.03,194.05c-.54.09-1.98.33-2.23.7-.22,3.62-2.43,8.4-5.49,10.42-1.29.85-3.28,1.1-4.14,1.72s-1.89,2.91-3.15,3.97c-3.31,2.79-5.3,2.07-8.88,2.85-1.61.35-3.6,2.11-5.4,2.55-1.05.26-3.53.13-3.92.69-7.03,25.16,2.68,49.98,25.83,62.16,14.05,7.39,28.5,7.95,42.21-.4,31.27-19.04,19.43-66.1-10.57-79.82-5.71-2.61-18.15-5.8-24.25-4.84ZM79.71,215.35c-5.95-1.94-8.92-7.67-13.13-11.79-3.05-2.98-6.94-5.45-9.64-8.78-16.03,19.56-12.5,49.94,5.46,66.99h.61c3.56-5.56,12.13-7.19,18.43-7.11-4.42-12.77-4.1-26.15-1.72-39.31ZM208.33,288.16c16.48-.56,16.5-17.83,4.33-25.48-9.91-6.23-26.21-4.08-35.46,2.51-2.63,1.87-3.74,9.15-3.66,12.29.18,7.06,5.82,10.11,12.19,10.5.83-.6.17-12.48,1.3-14.42,2.98-.51,3.74.32,4.08,3.13.42,3.53.15,7.85.46,11.47,3.75.37,7.51.78,11.23-.08.64-.4,2.02-6.2,2.13-7.3.19-2.01-.67-6.37-.31-7.43.28-.84,1.48-.82,2.23-.68,4.15.75,2.95,12.59,1.49,15.49ZM95.25,287.75c2.23,1.19,11.24-2.12,10.45-4.76-.14-.46-6.58-4.77-7.71-5.72-5.73-4.82-10.57-10.71-14.04-17.37-11.54-2.24-26.44,7.9-22.32,20.64,1.58,4.9,7.29,7.96,12.26,7.63-.91-3.67-1.57-7.27-1.25-11.09.15-1.78.31-4.58,2.68-4.39,3.18.25,1.63,6.01,1.95,8.54.16,1.24,1.71,6.17,2.6,6.82,1.09.79,9.81.82,10.29.07-.26-2.16.43-4.41.49-6.41s-1.56-10.57,2.73-7.79c2.09,1.36,2.18,11.23,1.85,13.85ZM168.92,283.1l-1.43-5.4-10.26,7.53c4.06,1.05,7.88-.92,11.69-2.13Z"/>
    <path class="cls-2" d="M243.5,115.62c-16.98,2.55-22.08,29.95-4.99,36.27.23,1.45-6.64,12.82-8,14.61-3.65,4.79-8.17,7.8-12.76,11.53h-.85c-2.43-10.13-5.64-20.32-11.44-29.04,4.62-5.97,5.85-12.7,3.48-19.95-.33-1.02-1.57-2.14-1.4-3.05,9.31-12.59,14.36-28.37,12.1-44.09l.85-.46c7.97,2.48,15.53,1.75,23-1.84v36.02Z"/>
    <path class="cls-2" d="M243.5,75c-.47.85-2.28,1.26-2.92.21,2.11-4.07,1.77-8.35,1.19-12.72-.41-.67-3.77-.36-4.17.19-.66.92-.75,10-1.95,12.61-.88,1.9-7.55,2.8-8.28.55-1.09-3.35,1.03-10.52-1.42-13.54-.99-1.22-3.79-.66-3.79.33v13.61c-1.83-.59-2.7-.54-3.87-2.2-.98-1.38-3.82-8.27-4.01-9.85-.51-4.45,4.61-8.14,8.15-9.67,7.65-3.32,14.69-1.78,21.09,3.29,0,0,5.03,7.96,0,17.17Z"/>
    <path d="M42.7,29.56c.79.03,1.39.23,1.82.92s.27,5.25.67,6.85c.56,2.23,2.49,5.77,4.82,6.49,1.83.56,5.75-.14,5.83,2.9s-3.29,2.49-5.4,3.36c-2.63,1.09-4.09,3.39-4.83,6.05s.39,6.43-2.98,7.47c-3.92-.63-2.79-3.8-3.52-6.8-.59-2.41-2.45-5.44-4.71-6.6-2.39-1.22-6.38-.03-6.14-3.87.16-2.52,3.05-1.83,5.1-2.45,4-1.2,5.47-4.66,6.15-8.51.4-2.31-.76-5.96,3.19-5.82ZM47.09,46.53c-2.17.2-4.2-4.61-5.23-4.62-.92,2.15-2.68,3.91-4.82,4.82,2.62,1.21,3.66,3.18,5.44,5.24.49-2.79,2.81-3.73,4.61-5.44Z"/>
    <path d="M26.05,145.45l.3,3.67c-.93,1.95-6.1.3-8.47,5.35-1.44,3.07.15,8.88-3.74,9.21-3.2.27-2.88-8.19-5.59-11-2.49-2.58-6.97-1.92-7.91-3.4-2.5-3.91,2.91-3.99,4.87-4.67,2.64-.92,4.49-3.68,4.95-6.36s-.9-6.99,2.95-7.12c3.56-.12,2.43,4.14,2.78,6.37.83,5.33,5.09,7.12,9.85,7.94ZM18.19,148.28c.55-.78-2.13-1.97-2.68-2.55-.91-.95-1.2-2.36-2.13-3.3-1.38,2.75-2.48,3.86-5.23,5.23,2.57.58,4.14,2.84,5.66,4.81l3.13-3.58,1.26-.61Z"/>
    <path d="M63.72,293.67c4.08-1.16,2.66,8.06-.73,4.36-1.25-1.36-.91-3.89.73-4.36Z"/>
    <path d="M107.81,294.45l.84,3.35-2.54-.18c-1.64-1.13,1.72-6.25,3.41-5.91,2.49,1.02.46,3.31-1.71,2.75Z"/>
    <path d="M157.5,293.25c3.75-1.25,3.63,4.95,2.4,5.35-2.35.77-3.92-4.85-2.4-5.35Z"/>
    <path d="M218.69,294.55c2.01,2.03-1.69,6.17-3.46,2.4-1-2.13,2.18-3.69,3.46-2.4Z"/>
    <path d="M79.63,295.34c3.71-1.04,3.5,5.65-.29,3.92-1.86-.85-1.25-3.48.29-3.92Z"/>
    <path d="M153.83,298.17c-4.44,2.32-5.08-4.23-1.44-3.73,1.78.24,1.64,2.34,1.44,3.73Z"/>
    <path d="M165.86,292.38c2.76.7,3.25,7.63-.05,4.59-1.32-1.22-1.64-3.6.05-4.59Z"/>
    <path d="M230.05,286.96c.52.84-.72,2.7-1.47,3.28l-2.68-1.53c-.13-1.09.06-2.15,1.15-2.58l2.99.83Z"/>
    <path d="M121.98,299.4l-2.82.03-.02-3.7c3.21-.59,4.4.89,2.84,3.67Z"/>
    <path d="M199.8,295.76c3.72-1.25,4.27,4.21.81,3.72-1.85-.26-2.04-3.31-.81-3.72Z"/>
    <path d="M102.31,295.35c1.16,2.24.24,4.42-2.47,3.52l-.82-3.58,3.29.06Z"/>
    <path d="M125.82,295.28c3.1-.14,4.85,1.28,2.52,3.99-2.82.89-2.67-1.93-2.52-3.99Z"/>
    <path d="M207.79,295.36c2.43-.73,4.19,2.51,2.21,3.5-2.36,1.18-4.75-2.74-2.21-3.5Z"/>
    <path d="M71.26,295.36c3.33-.98,3.67,4.17.36,3.71-1.94-.27-2.03-3.21-.36-3.71Z"/>
    <path d="M186.49,296.18c1.53,2.52-4.53,3.55-4.56.58-.02-2.22,4.1-1.33,4.56-.58Z"/>
    <path d="M231.24,282.37c2.05-.6,4.18,1.33,2.63,3.08-1.69,1.92-5.63-2.2-2.63-3.08Z"/>
    <path d="M135.82,296.18c1.66,2.64-3.78,5.23-3.74.98.02-2.33,3.47-1.42,3.74-.98Z"/>
    <path d="M48.66,282.37c.98-.17,2.02.16,2.58,1.02-2.07,5.98-6.7-.31-2.58-1.02Z"/>
    <path d="M112.52,295.39c1.57-1.57,4.28.38,3.04,2.41s-5.2-.26-3.04-2.41Z"/>
    <path d="M192.26,295.76c3.79-1.27,3.84,4.44.97,3.54-1.65-.52-2.48-3.04-.97-3.54Z"/>
    <path d="M54.98,286.55c.75,1.18-.15,3.59-2.14,3.22-4.2-.79.79-5.34,2.14-3.22Z"/>
    <path d="M93.87,295.78c3.01-.9,2.8,3.1,1.09,3.62-3.01.9-2.8-3.1-1.09-3.62Z"/>
    <path d="M88.46,299.38c-3.02,1.73-3.88-4.7-.21-3.6,1.69.51,1.11,3.09.21,3.6Z"/>
    <path d="M57.25,290.37l1.19-.33c2.02.77,1.87,2.18.81,3.81l-2.77-.64.77-2.84Z"/>
    <path d="M234.4,290.16c-1.89-1.87,1.84-4.39,3.04-2.41s-1.44,4-3.04,2.41Z"/>
    <path d="M232.51,294.34c-1.31,1.3-3.76.05-3.65-1.75.22-.7,2.61-1.36,3.33-.88l.78.94c.12.47-.13,1.36-.46,1.69Z"/>
    <path d="M144.85,295.86c2.87-1.6,4.37,3.43.86,3.23-2-.11-1.95-2.62-.86-3.23Z"/>
    <path d="M44.22,287.81c.66-.42,3.54-.06,3.62.98-1.68,4.89-5.53.24-3.62-.98Z"/>
    <path d="M222.88,290.32c1.32-.18,2.93,1.41,1.51,2.81-2.49,2.46-4.61-2.4-1.51-2.81Z"/>
    <path d="M226.28,294.08c1.67,4.18-3.44,4.48-3.28.39l3.28-.39Z"/>
    <path d="M142.12,296.16l-.79,2.69c-2.78.96-2.68-.92-2.52-3.15l3.31.46Z"/>
    <path d="M177.29,297.76l-3.21-.48c-1.22-4.15,4.36-2.96,3.21.48Z"/>
    <path d="M171.05,291.52c2.15-.66,5.37,2.88,2.28,3.36-2.11.33-2.4-1.67-2.28-3.36Z"/>
    <path d="M50.32,291.59c1.1-.33,2.05.03,2.61,1.03-1.66,4.27-5.68-.11-2.61-1.03Z"/>
    <path d="M58.81,295.29c.78,1.08-4.15,4.3-3.35-.42l3.35.42Z"/>
    <path class="cls-2" d="M124.56,25.17c-.82,14.42,16.36,20.65,27,12.13,3.16-2.53,6.73-7.54,5.25-11.71,3.33-.48,4.4,2.3,6.49,4.18,5.15-7.55,11.15-14.3,19.09-19.01,14.77-8.77,21.57-4.72,25.72,11.07,2.14,8.13,2.36,17.3,1.85,25.68-.3,4.9-2.82,14.87-1.66,18.94,2.03,7.13,5,12.48,5.49,20.48,1.96,32.38-24.41,52.56-53.9,57.12-27.74,4.28-67.31-.12-84.91-24.68-12.73-17.75-13.38-41.93-2.02-60.54l-1.99-8.74c-.8-11.55-.83-24.13,4.11-34.83,5.68-12.3,14.27-10.27,24.49-4.24,7.8,4.6,13.32,10.76,18.13,18.33,2.2-1.5,4.12-3.6,6.86-4.17ZM112.42,33.12c.5-.66-7.14-9.78-8.16-10.89-4.68-5.07-16.96-15.68-23.24-8.15-5.22,6.27-6.1,24.3-5.47,32.25.09,1.18,1.17,7.61,2.96,6.71,6.12-8.57,15.29-15.7,25.63-18.35,2.8-.72,5.5-.84,8.27-1.57ZM199.38,13.17c-3.91-3.62-9.39-.91-13.22,1.35-3.62,2.14-8.07,6.14-10.72,9.38-.95,1.16-5.83,8.06-5.67,8.97,12.57,2.52,21.78,9.16,30.39,18.25,1.55,1.63,2.71,4.66,4.18.42,2.54-7.34,1.07-32.8-4.96-38.38ZM111.95,40.29l-1.65-.3c-.51.64-.95,2.02-.3,2.65l1.8.13.14-2.48ZM88.61,48.25c-1.36,1.54.69,5.31,2.46,4.36,2.65-1.42.49-5.35-2.46-4.36ZM138.69,50.39c-6.75,1.24-5.6,13.31,2.73,11.94,7.6-1.24,6.18-13.58-2.73-11.94ZM87.69,56.56c1.09-2.15-.29-4.13-2.28-5.01-1.62,2.11-.58,5.18,2.28,5.01ZM115.66,52.46c-4.68.94-.39,7.47,3.2,5.32,3.18-1.9.07-5.98-3.2-5.32ZM162.15,52.49c-5.15,1.34-1.14,8.84,3.85,4.27,2.34-2.14-.62-5.11-3.85-4.27ZM82.05,56.29c-3.29,2.22,1.37,6.66,2.94,3.2.92-2.02-1.35-2.8-2.94-3.2ZM106.47,68.84c-1.83.19-3.97.72-5.65,1.47-2.55,1.15-10.22,7.22-6.82,9.91,2.33,1.85,3.8-1.25,5.47-2.47,5.79-4.22,12.1-4.29,17.75.18,1.6,1.27,3.97,5.37,6.04,2.24,1.64-2.48-3.49-7.4-5.44-8.71-3.6-2.4-7.05-3.07-11.35-2.64ZM169.28,68.83c-1.75.24-4.85,1.47-6.32,2.47-1.99,1.35-8.45,8.03-4.45,9.78,1.82.8,3.96-2.59,5.23-3.56,4.21-3.24,10.62-3.66,15.3-1.08,1.99,1.1,4.56,5.37,6.55,4.54,2.94-1.23.96-4.35-.37-6.12-3.52-4.72-10.24-6.82-15.94-6.04ZM72.22,80.44c1.76-1.54,3.75-6.96-.21-6.74-1.9.11-2.11,1.62-1.92,3.2.29,2.41,2.74.92,2.13,3.54ZM147.91,86.41c-1.62-1.7-9.03-1.59-11.36-1.32-1.8.21-3.83.81-4.35,2.74-.17,1.86,3.9,5.32,5.59,6l.1.54c-.99,6.44-9.09,9.38-14.46,6.25-3.9-2.28-1.96-4.68-3.25-6.38s-5.16.5-5.11,3.08,2.26,5.76,4.34,7.33c6.79,5.12,15.55,3.45,20.87-2.85,5.83,7.23,19.04,8.33,24.1-.2,2.23-3.77,1.66-8.8-3.54-7.31-1.48,1.07.48,3.84-2.36,6.02-4.88,3.75-14.03.8-15.46-5.43.02-1.18,7.73-5.51,4.91-8.47ZM72.91,87.72c-2.14.09-3.03,1.19-2.31,3.35.34,1.03,5.1.98,6.38,1.16,4.09.58,8.17,1.23,12.21,2.08l1.46-.24c2.43-3.54-.52-3.86-3.35-4.61-3.87-1.02-10.44-1.89-14.38-1.73ZM208.21,91.64c.85-1.22,1.22-2.61-.41-3.35s-10.43.3-12.55.65c-3.49.57-12.12,1.56-5.6,5.71l18.56-3.01ZM106.94,97.16c1.47-3.44-.56-5.72-4.15-5.4.31,2.47.98,5.88,4.15,5.4ZM176.08,91.75c-3.07-.79-6.98,4.12-2.74,5.04,1.41.13,3.11-4.69,2.74-5.04ZM98.49,92.66c-2.91.58-2.73,6.26.33,6.21,2.17-.04,3.03-6.88-.33-6.21ZM179.73,92.65c-2.12.57-2.51,4.98.1,5.62,4.84,1.18,2.97-6.45-.1-5.62ZM88.43,98.65c-4.03.26-11.04,1.45-14.63,3.27-2.49,1.26-2.73,4.27.23,4.8l15.59-4.06c1.99-.87,2.5-2.33,1.01-4.02-.48-.3-1.59-.04-2.21,0ZM188.85,98.87c-1.11,0-.27,3.63.62,3.99,3.18.44,6.38,1.01,9.48,1.82,3.45.9,8.41,4.59,8.9-.91-.29-1.14-4.28-2.5-5.49-2.92-1.32-.45-6.19-1.98-7.23-1.98h-6.28ZM184.5,105.62c-1.87,4.41,3.03,5.31,5.87,7.23,1.7,1.15,6.14,4.93,7.5,5.48,2.61,1.07,3.99-1.79,2.51-3.77-.63-.84-4-3.32-5.08-4.13-3.09-2.32-6.76-5.17-10.8-4.81ZM93.52,106.05c-.33-.21-1.33-.11-1.79-.03-1.66.28-10.1,6.12-11.75,7.52-2.14,1.81-2.98,3.49.09,4.95,1.19.18,4.26-2.62,5.59-3.46,1.74-1.1,7.15-3.79,8.15-4.83,1.28-1.33.11-2.69-.29-4.15ZM86.32,122.88c-.93-.91-2.43-.99-3.42-1.81-1.28,1.79,4.71,7.81,5.65,7.12,1.24-.92-1.41-4.51-2.23-5.3ZM197.85,121.49c-2.03-.67-2.16.92-2.8,1.27-1.42.79-4.03.79-3.71,3.33,2.57,2.73,4.54-.01,3.59-2.93,1.67.25,3,.62,2.93-1.68ZM187.65,126.99c-1.71.57-.2,4.1,1.53,3.67s1.96-4.83-1.53-3.67ZM93.47,128.29l-3.2-.47c-1.01,2.09.55,3.51,2.61,3.68,1.14-.74,1.37-2.13.59-3.21ZM184.84,129.48c-3-.4-3.95,2.21-1.78,4.11,3.22.23,2.56-1.87,1.78-4.11ZM96.57,130.32c-.08.04-.76,1.38-.8,1.54-.78,3.31,4.59,4.05,4.04-.04-.23-.7-2.9-1.69-3.25-1.5ZM179.33,132.47c-.84-.91-4.44.23-3.47,2.41,1.51,3.41,6.15.5,3.47-2.41ZM103.07,133.26c-2.48.78-.66,5.36,2.25,4.78,2.48-1.75.16-5.54-2.25-4.78ZM111.94,136.2c-4.25-2.34-4.66,4.06-.41,3.24l.41-3.24ZM169.8,136.14l-3.17.39.21,2.78c2.45.69,3.18-.95,2.96-3.17ZM117.39,137.46l-2.42-.44c-1.05,2.54-.58,4.34,2.47,4.15l-.06-3.71ZM163.48,137.86c-1.74-.13-3.68-.51-3.31,1.81.61,3.82,4.64,1.37,3.31-1.81ZM120.8,138.24c-1.01,2.93,3.04,5.6,3.7,2.2.44-2.26-1.99-2.3-3.7-2.2ZM134.68,143.2c.42.27,2.75.18,3.1-.33.87-1.25.22-3.66-1.7-3.75-2.31-.11-2.16,3.6-1.4,4.08ZM144.67,143.27l-.18-3.8c-2.56-1.54-4.28.84-3.21,3.2l3.39.59ZM157.17,139.56l-2.01-.47c-.24.84-.9,2.56-.05,3.16l1.93-.22.13-2.47ZM148.08,139.56c-.54.34-1.24,3.2.98,3.32,3.68.21,1.74-5.03-.98-3.32Z"/>
    <path class="cls-2" d="M119.03,194.05c6.1-.96,18.54,2.23,24.25,4.84,30,13.72,41.84,60.78,10.57,79.82-13.71,8.35-28.16,7.79-42.21.4-23.15-12.18-32.86-36.99-25.83-62.16.39-.55,2.87-.43,3.92-.69,1.8-.45,3.8-2.2,5.4-2.55,3.58-.78,5.57-.06,8.88-2.85,1.26-1.06,2.29-3.34,3.15-3.97s2.85-.87,4.14-1.72c3.06-2.02,5.27-6.8,5.49-10.42.25-.37,1.69-.62,2.23-.7ZM123.34,224.55c4.07-2.24,8.57-4.81,12.42-7.48,2.8-1.94,8.19-4.79,3.87-8.28l-.83-.04-17.8,11.15c-.57,0-2.66-1.7-2.1-2.53,2.38-2.28,13.16-7.65,14.25-10.05.87-1.93-.42-4.27-2.5-4.57l-14.45,9.82c-1.51-1.01-3.95-.59-5.19.66-.96.97-.46,1.53-.89,2.46-.75,1.64-11.84,7.01-14.14,8.47-.78.5-2.46,1.43-2.72,2.31-.5,1.68.75,4.41,2.6,4.31,2.52-.13,15.55-10.23,16.74-10l1.97,3.06-19.67,12.2c-2.11,2.17.74,6.11,3.62,4.46l18.09-11.19c1.22-.26,3.74,3.4,3.2,4.4l-19.35,12.29c-2.17,1.94.35,5.66,2.89,5.23l20.83-13.33c.3,2.61,4.77,5.67.64,7.17-.75.27-1.34-.1-1.62-.02-.31.08-.24.7-.54.79-.43.13-1.8-.41-2.66-.19-5.57,1.45-13.85,9.69-7.15,14.69,2.56-.96,3.44-3.23,5.68-4.85,5.72-4.16,13.75-8.76,19.94-12.73,3.29-2.1,8.99-4.56,11.67-6.76,4.73-3.9-1.68-7.95-5.61-7.74-2.55.13-5.65,2.41-6.08,5.04h2.72s.21.83.21.83l-7.53,5.67c-1.73.74-2.28-5.31-5.03-4.41,2.95-2.81,6.99-5.58,10.5-7.71,2.31-1.4,9.66-4.36,10.27-6.52.71-2.52-3.38-4.76-5.58-3.45l-17.67,11.2c-1.48.44-3.42-3.69-2.94-4.37ZM160.04,238.87c-.44-.55-3.04-1.8-3.85-1.81-1.37-.01-3.58,1.24-4.83,1.89-8.69,4.51-20.64,12.42-28.86,18.05-2.66,1.82-6.26,4.56-6.7,7.96-.19,1.49-.36,3.05,1.43,3.38l18.09-12.79c1.21-.64,2.9,2.94,2.64,3.29-2.77,1.44-5.88,3.03-8.5,4.7s-7.22,4.15-6.98,7.61c.12,1.73,3.44,7.98,4.79,9.07,2.02,1.63,3.8,1.09,5.95.07,4.05-1.94,12.94-7.27,16.28-10.11,2.63-2.23,1.91-1.52,4.93-3.03,1.5-.75,2.9-2.28,4.34-3.19,2.57-1.63,7.76-3.47,7.68-6.97-.1-4.37-3.84-12.71-9.34-10.61-4.23,1.61-9.06,5.93-12.71,8.68-1.1-.63-3.39-2.64-1.98-3.68,2.86-2.1,7.55-4.7,10.75-6.42,1.14-.61,7.12-3,7.34-3.34.33-.53-.04-2.21-.48-2.75Z"/>
    <path class="cls-2" d="M211.25,184.72c-19.51-.5-31.81,17.87-35.47,35.1l-.96,6.36c-7.72-24.04-32.47-40.08-57.78-37.71-1.94-10.51-10.36-19.03-17.19-26.78,7.82,2.57,16.01,4.34,24.29,4.18-.44,24.01,34.07,23.92,33.92,0,15.14.06,30.22-5.37,42.87-13.36,7.03,8.79,10.08,21.03,10.32,32.2Z"/>
    <path class="cls-2" d="M106.56,201.06c.72-2.52-4.15-10.51-6.17-10.82l-2.44,1.19c-.65,1.35,1.84,3.59,2.55,5,3.49,6.92,1.94,10.88-6.05,11.71-.64-1.79-1.57-3.56-2.63-5.13-1.63-2.41-4.67-7.46-7.7-4.47-.43.87,2.44,4.03,3.11,5.29,1.45,2.73,3.82,6.81-.69,7.18-6.14.5-9.46-4.93-13.06-8.51-8.9-8.83-21.86-17.19-20.1-31.59,7.92-1.2,15.3-11.75,9.66-19.01.19-1.11,7.02-5.59,8.33-5.95,2.65-.73,4.43,3.9,6.51,5.67,5,4.26,10.7,7.1,15.9,12.16,5.69,5.53,17.97,19.56,18.23,27.45.12,3.6-1.57,9.08-5.45,9.83Z"/>
    <path class="cls-2" d="M79.71,215.35c-2.38,13.16-2.7,26.55,1.72,39.31-6.3-.08-14.87,1.55-18.43,7.12h-.61c-17.95-17.06-21.49-47.43-5.46-67,2.7,3.32,6.59,5.79,9.64,8.78,4.22,4.12,7.18,9.85,13.13,11.79ZM54.13,212.47c-.48.03-2.11.33-2.43.53-1.72,1.06-1.85,13.92-1.68,16.32s1.93,11.61,2.99,13.34c1.5,2.45,8.22.38,10.28-.9,12.39-7.76,5.51-30.31-9.16-29.3Z"/>
    <path class="cls-2" d="M208.33,288.16c1.47-2.9,2.66-14.74-1.49-15.49-.75-.14-1.94-.16-2.23.68-.36,1.06.5,5.42.31,7.43-.11,1.09-1.49,6.89-2.13,7.3-3.72.86-7.47.46-11.23.08-.31-3.62-.04-7.94-.46-11.47-.34-2.81-1.1-3.64-4.08-3.13-1.13,1.94-.47,13.82-1.3,14.42-6.37-.39-12.01-3.44-12.19-10.5-.08-3.13,1.03-10.41,3.66-12.29,9.25-6.59,25.55-8.74,35.46-2.51,12.17,7.65,12.15,24.92-4.33,25.48Z"/>
    <path class="cls-2" d="M95.25,287.75c.33-2.62.24-12.49-1.85-13.85-4.29-2.78-2.67,5.71-2.73,7.79s-.75,4.26-.49,6.41c-.47.75-9.2.73-10.29-.07-.89-.65-2.45-5.57-2.6-6.82-.32-2.53,1.23-8.28-1.95-8.54-2.37-.19-2.53,2.61-2.68,4.39-.32,3.82.34,7.42,1.25,11.09-4.97.33-10.68-2.73-12.26-7.63-4.12-12.74,10.78-22.88,22.32-20.64,3.46,6.67,8.31,12.55,14.04,17.37,1.13.95,7.57,5.26,7.71,5.72.8,2.64-8.21,5.95-10.45,4.76Z"/>
    <path class="cls-1" d="M129.59,165.88c1.13-14.16,20.57-14.23,23.02-.62l-.85.46c-7.4-.58-14.79-.76-22.17.16Z"/>
    <path class="cls-1" d="M151.79,170.91c-4.01,9.77-16.66,9.64-20.94.22.12-.62,3.98-1.02,4.8-1.07,2.04-.14,15.35-.02,16.14.86Z"/>
    <path class="cls-2" d="M96.37,146.26c2.27-.77,3.18.8,4.74,1.4,1.96.75,4.76.55,4.64,3.34-.09,2.23-1.75,3.3-3.83,2.55-1.49-1.19-5.73-2.01-6.45-3.6-.45-.99-.28-3.29.9-3.69Z"/>
    <path class="cls-2" d="M168.92,283.1c-3.81,1.21-7.63,3.18-11.69,2.13l10.26-7.53,1.43,5.4Z"/>
    <path class="cls-2" d="M177.63,147.12c.7-.21,2.02-.25,2.64.12,2.4,2.76-.09,8.5-3.77,5.85-2.26-1.63-1.03-5.33,1.12-5.97Z"/>
    <path class="cls-2" d="M169.71,150.46c.45.92.76,2.97-.33,3.48-3.37,1.08-6.37-1.18-3.07-3.93l3.4.45Z"/>
    <path class="cls-2" d="M116.45,152.75c-.91,1.62-2.33,1.62-3.93.88-.56-1.49-.88-3.05.32-4.31l3.81,1.24c.55.62.17,1.56-.19,2.19Z"/>
    <path d="M131.68,151.23c-.53.85-1.7,1.09-2.51,1.88-1.48,1.45-2.64,3.82-4.19,5.23.27-1.3,1.28-3.89,2.29-4.64.47-.35,1.55.34,1.47-1.64-1.38.57-1.75-.73-1.89-.78-.48-.16-4.23-.43-5.03-.48s-1.22.34-1.04-.84l10.88,1.26Z"/>
    <path d="M155.97,150.8c.31.25.36.55-.4.71-.89.19-2.01.15-2.95.55l2.51,3.76-5.02-4.4,5.86-.62Z"/>
    <path d="M166.02,158.76c.2,1.28-.31.69-1.05.82-1.43.25-7.22,1.32-7.95.44-.33-.4-.87-2.28-1.04-2.93,1.05.37,1.08,1.97,1.85,2.55,1.24.92,6.25-1,8.19-.87Z"/>
    <path class="cls-1" d="M47.09,46.53c-1.8,1.71-4.12,2.65-4.61,5.44-1.78-2.05-2.81-4.02-5.44-5.24,2.14-.91,3.9-2.67,4.82-4.82,1.02,0,3.06,4.81,5.23,4.62Z"/>
    <path class="cls-1" d="M18.19,148.28l-1.26.61-3.13,3.58c-1.52-1.97-3.09-4.23-5.66-4.81,2.75-1.37,3.86-2.48,5.23-5.23.93.94,1.23,2.35,2.13,3.3.55.57,3.23,1.77,2.68,2.55Z"/>
    <path class="cls-1" d="M199.38,13.17c6.03,5.58,7.49,31.04,4.96,38.38-1.47,4.24-2.63,1.21-4.18-.42-8.61-9.09-17.82-15.73-30.39-18.25-.16-.91,4.73-7.81,5.67-8.97,2.65-3.25,7.09-7.25,10.72-9.38,3.83-2.26,9.31-4.97,13.22-1.35Z"/>
    <path class="cls-1" d="M112.42,33.12c-2.77.73-5.47.85-8.27,1.57-10.34,2.65-19.51,9.79-25.63,18.35-1.79.9-2.87-5.53-2.96-6.71-.63-7.95.25-25.98,5.47-32.25,6.27-7.53,18.56,3.08,23.24,8.15,1.02,1.11,8.66,10.23,8.16,10.89Z"/>
    <path d="M147.91,86.41c2.83,2.95-4.89,7.29-4.91,8.47,1.43,6.23,10.59,9.18,15.46,5.43,2.84-2.18.87-4.95,2.36-6.02,5.2-1.49,5.77,3.54,3.54,7.31-5.05,8.53-18.27,7.43-24.1.2-5.32,6.3-14.07,7.98-20.87,2.85-2.07-1.56-4.28-4.66-4.34-7.33s3.76-4.85,5.11-3.08-.65,4.1,3.25,6.38c5.36,3.13,13.47.18,14.46-6.25l-.1-.54c-1.69-.68-5.76-4.15-5.59-6,.52-1.93,2.56-2.53,4.35-2.74,2.33-.27,9.74-.38,11.36,1.32Z"/>
    <path d="M106.47,68.84c4.31-.44,7.76.23,11.35,2.64,1.95,1.3,7.08,6.22,5.44,8.71-2.07,3.13-4.43-.98-6.04-2.24-5.65-4.47-11.96-4.41-17.75-.18-1.67,1.22-3.14,4.31-5.47,2.47-3.4-2.7,4.27-8.77,6.82-9.91,1.68-.75,3.82-1.29,5.65-1.47Z"/>
    <path d="M169.28,68.83c5.7-.78,12.42,1.32,15.94,6.04,1.32,1.77,3.31,4.89.37,6.12-1.99.83-4.56-3.44-6.55-4.54-4.67-2.58-11.09-2.16-15.3,1.08-1.26.97-3.41,4.36-5.23,3.56-4-1.75,2.46-8.43,4.45-9.78,1.47-1,4.57-2.23,6.32-2.47Z"/>
    <path class="cls-1" d="M138.69,50.39c8.91-1.64,10.33,10.7,2.73,11.94-8.34,1.37-9.49-10.7-2.73-11.94Z"/>
    <path d="M184.5,105.62c4.05-.36,7.71,2.5,10.8,4.81,1.08.81,4.45,3.29,5.08,4.13,1.48,1.98.1,4.83-2.51,3.77-1.36-.56-5.8-4.33-7.5-5.48-2.84-1.92-7.74-2.81-5.87-7.23Z"/>
    <path d="M208.21,91.64l-18.56,3.01c-6.53-4.15,2.11-5.14,5.6-5.71,2.12-.35,10.94-1.38,12.55-.65s1.26,2.13.41,3.35Z"/>
    <path d="M72.91,87.72c3.95-.16,10.51.71,14.38,1.73,2.83.75,5.79,1.07,3.35,4.61l-1.46.24c-4.04-.85-8.12-1.5-12.21-2.08-1.28-.18-6.03-.12-6.38-1.16-.72-2.16.17-3.26,2.31-3.35Z"/>
    <path d="M88.43,98.65c.62-.04,1.73-.3,2.21,0,1.49,1.69.98,3.15-1.01,4.02l-15.59,4.06c-2.96-.53-2.72-3.54-.23-4.8,3.58-1.82,10.59-3.01,14.63-3.27Z"/>
    <path d="M188.85,98.87h6.28c1.04,0,5.91,1.53,7.23,1.98,1.21.42,5.2,1.78,5.49,2.92-.49,5.5-5.45,1.82-8.9.91-3.1-.81-6.3-1.38-9.48-1.82-.89-.36-1.73-3.99-.62-3.99Z"/>
    <path d="M93.52,106.05c.39,1.47,1.57,2.82.29,4.15-1,1.04-6.41,3.73-8.15,4.83-1.33.84-4.4,3.64-5.59,3.46-3.06-1.46-2.23-3.13-.09-4.95,1.66-1.4,10.09-7.24,11.75-7.52.46-.08,1.46-.18,1.79.03Z"/>
    <path d="M162.15,52.49c3.23-.84,6.19,2.13,3.85,4.27-4.99,4.57-9-2.93-3.85-4.27Z"/>
    <path d="M115.66,52.46c3.27-.66,6.39,3.43,3.2,5.32-3.59,2.14-7.88-4.38-3.2-5.32Z"/>
    <path d="M179.73,92.65c3.07-.83,4.94,6.8.1,5.62-2.61-.64-2.22-5.05-.1-5.62Z"/>
    <path d="M98.49,92.66c3.36-.67,2.5,6.17.33,6.21-3.06.06-3.25-5.62-.33-6.21Z"/>
    <path d="M72.22,80.44c.62-2.62-1.84-1.14-2.13-3.54-.19-1.58.02-3.09,1.92-3.2,3.96-.22,1.97,5.2.21,6.74Z"/>
    <path d="M86.32,122.88c.82.79,3.47,4.39,2.23,5.3-.94.7-6.93-5.33-5.65-7.12.99.82,2.49.91,3.42,1.81Z"/>
    <path d="M106.94,97.16c-3.17.48-3.84-2.94-4.15-5.4,3.58-.31,5.61,1.96,4.15,5.4Z"/>
    <path d="M197.85,121.49c.07,2.3-1.26,1.92-2.93,1.68.95,2.91-1.02,5.66-3.59,2.93-.31-2.53,2.29-2.53,3.71-3.33.64-.36.78-1.94,2.8-1.27Z"/>
    <path d="M103.07,133.26c2.41-.76,4.73,3.03,2.25,4.78-2.91.57-4.73-4.01-2.25-4.78Z"/>
    <path d="M176.08,91.75c.37.35-1.33,5.17-2.74,5.04-4.24-.92-.33-5.83,2.74-5.04Z"/>
    <path d="M88.61,48.25c2.95-.98,5.11,2.94,2.46,4.36-1.77.94-3.81-2.82-2.46-4.36Z"/>
    <path d="M144.67,143.27l-3.39-.59c-1.07-2.37.65-4.75,3.21-3.2l.18,3.8Z"/>
    <path d="M82.05,56.29c1.59.41,3.86,1.18,2.94,3.2-1.58,3.46-6.23-.98-2.94-3.2Z"/>
    <path d="M179.33,132.47c2.67,2.9-1.96,5.81-3.47,2.41-.97-2.17,2.64-3.32,3.47-2.41Z"/>
    <path d="M96.57,130.32c.35-.19,3.02.79,3.25,1.5.55,4.09-4.82,3.35-4.04.04.04-.16.72-1.5.8-1.54Z"/>
    <path d="M134.68,143.2c-.76-.48-.91-4.19,1.4-4.08,1.92.09,2.58,2.5,1.7,3.75-.35.51-2.68.59-3.1.33Z"/>
    <path d="M87.69,56.56c-2.86.17-3.89-2.9-2.28-5.01,1.99.88,3.37,2.86,2.28,5.01Z"/>
    <path d="M184.84,129.48c.78,2.24,1.44,4.34-1.78,4.11-2.18-1.9-1.22-4.51,1.78-4.11Z"/>
    <path d="M93.47,128.29c.78,1.09.55,2.47-.59,3.21-2.06-.17-3.62-1.59-2.61-3.68l3.2.47Z"/>
    <path d="M120.8,138.24c1.71-.09,4.14-.06,3.7,2.2-.66,3.4-4.71.73-3.7-2.2Z"/>
    <path d="M163.48,137.86c1.33,3.19-2.7,5.64-3.31,1.81-.37-2.32,1.57-1.94,3.31-1.81Z"/>
    <path d="M111.94,136.2l-.41,3.24c-4.24.83-3.83-5.58.41-3.24Z"/>
    <path d="M117.39,137.46l.06,3.71c-3.05.18-3.52-1.61-2.47-4.15l2.42.44Z"/>
    <path d="M187.65,126.99c3.49-1.17,3.27,3.24,1.53,3.67s-3.24-3.1-1.53-3.67Z"/>
    <path d="M148.08,139.56c2.72-1.7,4.67,3.53.98,3.32-2.22-.12-1.52-2.99-.98-3.32Z"/>
    <path d="M169.8,136.14c.22,2.23-.51,3.86-2.96,3.17l-.21-2.78,3.17-.39Z"/>
    <path d="M157.17,139.56l-.13,2.47-1.93.22c-.85-.6-.19-2.32.05-3.16l2.01.47Z"/>
    <path d="M111.95,40.29l-.14,2.48-1.8-.13c-.64-.63-.21-2.01.3-2.65l1.65.3Z"/>
    <path class="cls-1" d="M123.34,224.55c-.49.68,1.46,4.81,2.94,4.37l17.67-11.2c2.2-1.31,6.29.93,5.58,3.45-.61,2.16-7.96,5.12-10.27,6.52-3.51,2.13-7.55,4.9-10.5,7.71,2.76-.9,3.3,5.15,5.03,4.41l7.53-5.67-.21-.83h-2.72c.43-2.63,3.54-4.91,6.08-5.04,3.93-.21,10.34,3.84,5.61,7.74-2.68,2.21-8.38,4.66-11.67,6.76-6.19,3.96-14.21,8.57-19.94,12.73-2.24,1.63-3.12,3.9-5.68,4.85-6.7-5,1.58-13.24,7.15-14.69.86-.22,2.23.32,2.66.19.31-.09.24-.7.54-.79.28-.07.87.29,1.62.02,4.13-1.5-.34-4.56-.64-7.17l-20.83,13.33c-2.54.43-5.06-3.29-2.89-5.23l19.35-12.29c.54-1-1.98-4.66-3.2-4.4l-18.09,11.19c-2.88,1.66-5.73-2.29-3.62-4.46l19.67-12.2-1.97-3.06c-1.19-.23-14.22,9.86-16.74,10-1.86.1-3.1-2.63-2.6-4.31.26-.88,1.94-1.81,2.72-2.31,2.3-1.47,13.39-6.83,14.14-8.47.43-.93-.07-1.49.89-2.46,1.23-1.25,3.68-1.67,5.19-.66l14.45-9.82c2.09.3,3.38,2.64,2.5,4.57-1.09,2.4-11.86,7.77-14.25,10.05-.55.83,1.53,2.53,2.1,2.53l17.8-11.15.83.04c4.32,3.48-1.07,6.33-3.87,8.28-3.85,2.67-8.35,5.24-12.42,7.48Z"/>
    <path class="cls-1" d="M160.04,238.87c.44.54.81,2.22.48,2.75-.21.34-6.2,2.73-7.34,3.34-3.2,1.72-7.89,4.32-10.75,6.42-1.42,1.04.88,3.04,1.98,3.68,3.65-2.75,8.48-7.07,12.71-8.68,5.51-2.1,9.25,6.24,9.34,10.61.08,3.49-5.11,5.34-7.68,6.97-1.44.91-2.84,2.44-4.34,3.19-3.01,1.5-2.3.8-4.93,3.03-3.34,2.84-12.23,8.17-16.28,10.11-2.15,1.03-3.93,1.56-5.95-.07-1.35-1.09-4.68-7.34-4.79-9.07-.24-3.46,4.49-6.03,6.98-7.61,2.62-1.67,5.73-3.26,8.5-4.7.26-.36-1.43-3.93-2.64-3.29l-18.09,12.79c-1.79-.32-1.62-1.89-1.43-3.38.43-3.4,4.04-6.14,6.7-7.96,8.22-5.62,20.17-13.54,28.86-18.05,1.25-.65,3.46-1.9,4.83-1.89.81,0,3.41,1.26,3.85,1.81ZM158.45,253.02c-.88-.63-9.93,5.44-11.52,6.24l2.36,5.44,1.24-.19c2.78-4.03,12.02-5.51,7.92-11.49ZM141.69,262.67c-.49-.28-3.58,1.67-4.28,2.11-1.3.83-8.69,5.7-8.59,6.76.75,1.12,1.11,3.87,2.85,3.01,2.15-2.77,9.7-4.67,11.36-7.11.79-1.15-.91-3.56-1.35-4.78Z"/>
    <path d="M228.33,211.21c2.12,8.43,3.25,16.91,1.15,25.45-1.65,6.7-2.32,8.82-9.86,6.92s-11.51-10.63-10.87-18.01c.81-9.31,10.01-18.89,19.58-14.36Z"/>
    <path d="M54.13,212.47c14.67-1.02,21.55,21.54,9.16,29.3-2.05,1.29-8.77,3.35-10.28.9-1.06-1.73-2.82-11.01-2.99-13.34s-.04-15.26,1.68-16.32c.32-.2,1.95-.5,2.43-.53Z"/>
    <path class="cls-2" d="M141.69,262.67c.44,1.22,2.14,3.62,1.35,4.78-1.66,2.44-9.21,4.34-11.36,7.11-1.74.86-2.11-1.89-2.85-3.01-.1-1.06,7.29-5.93,8.59-6.76.69-.44,3.79-2.4,4.28-2.11Z"/>
    <path class="cls-2" d="M158.45,253.02c4.09,5.98-5.14,7.46-7.92,11.49l-1.24.19-2.36-5.44c1.58-.8,10.63-6.87,11.52-6.24Z"/>
  </g>
  <path class="cls-2" d="M283.12,74.83c-3.95-.14-2.79,3.51-3.19,5.82-.67,3.85-2.15,7.31-6.15,8.51-2.05.61-4.94-.07-5.1,2.45-.24,3.84,3.75,2.65,6.14,3.87,2.26,1.16,4.12,4.19,4.71,6.6.73,2.99-.39,6.16,3.52,6.8,3.37-1.04,2.23-4.76,2.98-7.47s2.21-4.96,4.83-6.05c2.1-.87,5.48-.3,5.4-3.36s-4.01-2.34-5.83-2.9c-2.33-.72-4.26-4.26-4.82-6.49-.4-1.6-.25-6.16-.67-6.85s-1.02-.89-1.82-.92Z"/>
  <path d="M283.12,74.83c.79.03,1.39.23,1.82.92s.27,5.25.67,6.85c.56,2.23,2.49,5.77,4.82,6.49,1.83.56,5.75-.14,5.83,2.9s-3.29,2.49-5.4,3.36c-2.63,1.09-4.09,3.39-4.83,6.05s.39,6.43-2.98,7.47c-3.92-.63-2.79-3.8-3.52-6.8-.59-2.41-2.45-5.44-4.71-6.6-2.39-1.22-6.38-.03-6.14-3.87.16-2.52,3.05-1.83,5.1-2.45,4-1.2,5.47-4.66,6.15-8.51.4-2.31-.76-5.96,3.19-5.82ZM287.51,91.8c-2.17.2-4.2-4.61-5.23-4.62-.92,2.15-2.68,3.91-4.82,4.82,2.62,1.21,3.66,3.18,5.44,5.24.49-2.79,2.81-3.73,4.61-5.44Z"/>
  <path class="cls-1" d="M287.51,91.8c-1.8,1.71-4.12,2.65-4.61,5.44-1.78-2.05-2.81-4.02-5.44-5.24,2.14-.91,3.9-2.67,4.82-4.82,1.02,0,3.06,4.81,5.23,4.62Z"/>
</svg>