<?xml version="1.0" encoding="UTF-8"?>
<svg id="Layer_1" xmlns="http://www.w3.org/2000/svg" xmlns:xlink="http://www.w3.org/1999/xlink" version="1.1" viewBox="0 0 1920 300">
  <!-- Generator: Adobe Illustrator 29.0.0, SVG Export Plug-In . SVG Version: 2.1.0 Build 186)  -->
  <defs>
    <style>
      .st0 {
        fill: none;
      }

      .st1 {
        <!-- fill: #fff; -->
        fill: #FA3E47
      }

      .st2 {
        clip-path: url(#clippath);
      }
    </style>
    <clipPath id="clippath">
      <rect class="st0" x="-.5" y="-.5" width="1920" height="300"/>
    </clipPath>
  </defs>
  <g class="st2">
    <g>
      <g>
        <g>
          <path class="st1" d="M83.4,264c-39.3,0-71.3-32-71.3-71.3s32-71.3,71.3-71.3,71.3,32,71.3,71.3-32,71.3-71.3,71.3Z"/>
          <path d="M83.4,124c37.9,0,68.8,30.8,68.8,68.8s-30.8,68.8-68.8,68.8S14.6,230.7,14.6,192.8s30.8-68.8,68.8-68.8M83.4,119c-40.7,0-73.8,33-73.8,73.8s33,73.8,73.8,73.8,73.8-33,73.8-73.8-33-73.8-73.8-73.8h0Z"/>
        </g>
        <g>
          <path class="st1" d="M83.4,253c-33.2,0-60.2-27-60.2-60.2s27-60.2,60.2-60.2,60.2,27,60.2,60.2-27,60.2-60.2,60.2Z"/>
          <path d="M83.4,135c31.8,0,57.7,25.9,57.7,57.7s-25.9,57.7-57.7,57.7-57.7-25.9-57.7-57.7,25.9-57.7,57.7-57.7M83.4,130c-34.6,0-62.7,28.1-62.7,62.7s28.1,62.7,62.7,62.7,62.7-28.1,62.7-62.7-28.1-62.7-62.7-62.7h0Z"/>
        </g>
        <g>
          <path class="st1" d="M83.4,240.3c-26.2,0-47.6-21.3-47.6-47.6s21.3-47.6,47.6-47.6,47.6,21.3,47.6,47.6-21.3,47.6-47.6,47.6Z"/>
          <path d="M83.4,147.7c24.9,0,45.1,20.2,45.1,45.1s-20.2,45.1-45.1,45.1-45.1-20.2-45.1-45.1,20.2-45.1,45.1-45.1M83.4,142.7c-27.7,0-50.1,22.4-50.1,50.1s22.4,50.1,50.1,50.1,50.1-22.4,50.1-50.1-22.4-50.1-50.1-50.1h0Z"/>
        </g>
        <g>
          <path class="st1" d="M83.4,228c-19.4,0-35.2-15.8-35.2-35.2s15.8-35.2,35.2-35.2,35.2,15.8,35.2,35.2-15.8,35.2-35.2,35.2Z"/>
          <path d="M83.4,160c18,0,32.7,14.7,32.7,32.7s-14.7,32.7-32.7,32.7-32.7-14.7-32.7-32.7,14.7-32.7,32.7-32.7M83.4,155c-20.8,0-37.7,16.9-37.7,37.7s16.9,37.7,37.7,37.7,37.7-16.9,37.7-37.7-16.9-37.7-37.7-37.7h0Z"/>
        </g>
      </g>
      <g>
        <g>
          <path class="st1" d="M258.1,264c-39.3,0-71.3-32-71.3-71.3s32-71.3,71.3-71.3,71.3,32,71.3,71.3-32,71.3-71.3,71.3Z"/>
          <path d="M258.1,124c37.9,0,68.8,30.8,68.8,68.8s-30.8,68.8-68.8,68.8-68.8-30.8-68.8-68.8,30.8-68.8,68.8-68.8M258.1,119c-40.7,0-73.8,33-73.8,73.8s33,73.8,73.8,73.8,73.8-33,73.8-73.8-33-73.8-73.8-73.8h0Z"/>
        </g>
        <g>
          <path class="st1" d="M258.1,253c-33.2,0-60.2-27-60.2-60.2s27-60.2,60.2-60.2,60.2,27,60.2,60.2-27,60.2-60.2,60.2Z"/>
          <path d="M258.1,135c31.8,0,57.7,25.9,57.7,57.7s-25.9,57.7-57.7,57.7-57.7-25.9-57.7-57.7,25.9-57.7,57.7-57.7M258.1,130c-34.6,0-62.7,28.1-62.7,62.7s28.1,62.7,62.7,62.7,62.7-28.1,62.7-62.7-28.1-62.7-62.7-62.7h0Z"/>
        </g>
        <g>
          <path class="st1" d="M258.1,240.3c-26.2,0-47.6-21.3-47.6-47.6s21.3-47.6,47.6-47.6,47.6,21.3,47.6,47.6-21.3,47.6-47.6,47.6Z"/>
          <path d="M258.1,147.7c24.9,0,45.1,20.2,45.1,45.1s-20.2,45.1-45.1,45.1-45.1-20.2-45.1-45.1,20.2-45.1,45.1-45.1M258.1,142.7c-27.7,0-50.1,22.4-50.1,50.1s22.4,50.1,50.1,50.1,50.1-22.4,50.1-50.1-22.4-50.1-50.1-50.1h0Z"/>
        </g>
        <g>
          <path class="st1" d="M258.1,228c-19.4,0-35.2-15.8-35.2-35.2s15.8-35.2,35.2-35.2,35.2,15.8,35.2,35.2-15.8,35.2-35.2,35.2Z"/>
          <path d="M258.1,160c18,0,32.7,14.7,32.7,32.7s-14.7,32.7-32.7,32.7-32.7-14.7-32.7-32.7,14.7-32.7,32.7-32.7M258.1,155c-20.8,0-37.7,16.9-37.7,37.7s16.9,37.7,37.7,37.7,37.7-16.9,37.7-37.7-16.9-37.7-37.7-37.7h0Z"/>
        </g>
      </g>
      <g>
        <g>
          <path class="st1" d="M432.9,264c-39.3,0-71.3-32-71.3-71.3s32-71.3,71.3-71.3,71.3,32,71.3,71.3-32,71.3-71.3,71.3Z"/>
          <path d="M432.9,124c37.9,0,68.8,30.8,68.8,68.8s-30.8,68.8-68.8,68.8-68.8-30.8-68.8-68.8,30.8-68.8,68.8-68.8M432.9,119c-40.7,0-73.8,33-73.8,73.8s33,73.8,73.8,73.8,73.8-33,73.8-73.8-33-73.8-73.8-73.8h0Z"/>
        </g>
        <g>
          <path class="st1" d="M432.9,253c-33.2,0-60.2-27-60.2-60.2s27-60.2,60.2-60.2,60.2,27,60.2,60.2-27,60.2-60.2,60.2Z"/>
          <path d="M432.9,135c31.8,0,57.7,25.9,57.7,57.7s-25.9,57.7-57.7,57.7-57.7-25.9-57.7-57.7,25.9-57.7,57.7-57.7M432.9,130c-34.6,0-62.7,28.1-62.7,62.7s28.1,62.7,62.7,62.7,62.7-28.1,62.7-62.7-28.1-62.7-62.7-62.7h0Z"/>
        </g>
        <g>
          <path class="st1" d="M432.9,240.3c-26.2,0-47.6-21.3-47.6-47.6s21.3-47.6,47.6-47.6,47.6,21.3,47.6,47.6-21.3,47.6-47.6,47.6Z"/>
          <path d="M432.9,147.7c24.9,0,45.1,20.2,45.1,45.1s-20.2,45.1-45.1,45.1-45.1-20.2-45.1-45.1,20.2-45.1,45.1-45.1M432.9,142.7c-27.7,0-50.1,22.4-50.1,50.1s22.4,50.1,50.1,50.1,50.1-22.4,50.1-50.1-22.4-50.1-50.1-50.1h0Z"/>
        </g>
        <g>
          <path class="st1" d="M432.9,228c-19.4,0-35.2-15.8-35.2-35.2s15.8-35.2,35.2-35.2,35.2,15.8,35.2,35.2-15.8,35.2-35.2,35.2Z"/>
          <path d="M432.9,160c18,0,32.7,14.7,32.7,32.7s-14.7,32.7-32.7,32.7-32.7-14.7-32.7-32.7,14.7-32.7,32.7-32.7M432.9,155c-20.8,0-37.7,16.9-37.7,37.7s16.9,37.7,37.7,37.7,37.7-16.9,37.7-37.7-16.9-37.7-37.7-37.7h0Z"/>
        </g>
      </g>
      <g>
        <g>
          <path class="st1" d="M607.6,264c-39.3,0-71.3-32-71.3-71.3s32-71.3,71.3-71.3,71.3,32,71.3,71.3-32,71.3-71.3,71.3Z"/>
          <path d="M607.6,124c37.9,0,68.8,30.8,68.8,68.8s-30.8,68.8-68.8,68.8-68.8-30.8-68.8-68.8,30.8-68.8,68.8-68.8M607.6,119c-40.7,0-73.8,33-73.8,73.8s33,73.8,73.8,73.8,73.8-33,73.8-73.8-33-73.8-73.8-73.8h0Z"/>
        </g>
        <g>
          <path class="st1" d="M607.6,253c-33.2,0-60.2-27-60.2-60.2s27-60.2,60.2-60.2,60.2,27,60.2,60.2-27,60.2-60.2,60.2Z"/>
          <path d="M607.6,135c31.8,0,57.7,25.9,57.7,57.7s-25.9,57.7-57.7,57.7-57.7-25.9-57.7-57.7,25.9-57.7,57.7-57.7M607.6,130c-34.6,0-62.7,28.1-62.7,62.7s28.1,62.7,62.7,62.7,62.7-28.1,62.7-62.7-28.1-62.7-62.7-62.7h0Z"/>
        </g>
        <g>
          <path class="st1" d="M607.6,240.3c-26.2,0-47.6-21.3-47.6-47.6s21.3-47.6,47.6-47.6,47.6,21.3,47.6,47.6-21.3,47.6-47.6,47.6Z"/>
          <path d="M607.6,147.7c24.9,0,45.1,20.2,45.1,45.1s-20.2,45.1-45.1,45.1-45.1-20.2-45.1-45.1,20.2-45.1,45.1-45.1M607.6,142.7c-27.7,0-50.1,22.4-50.1,50.1s22.4,50.1,50.1,50.1,50.1-22.4,50.1-50.1-22.4-50.1-50.1-50.1h0Z"/>
        </g>
        <g>
          <path class="st1" d="M607.6,228c-19.4,0-35.2-15.8-35.2-35.2s15.8-35.2,35.2-35.2,35.2,15.8,35.2,35.2-15.8,35.2-35.2,35.2Z"/>
          <path d="M607.6,160c18,0,32.7,14.7,32.7,32.7s-14.7,32.7-32.7,32.7-32.7-14.7-32.7-32.7,14.7-32.7,32.7-32.7M607.6,155c-20.8,0-37.7,16.9-37.7,37.7s16.9,37.7,37.7,37.7,37.7-16.9,37.7-37.7-16.9-37.7-37.7-37.7h0Z"/>
        </g>
      </g>
      <g>
        <g>
          <path class="st1" d="M782.3,264c-39.3,0-71.3-32-71.3-71.3s32-71.3,71.3-71.3,71.3,32,71.3,71.3-32,71.3-71.3,71.3Z"/>
          <path d="M782.3,124c37.9,0,68.8,30.8,68.8,68.8s-30.8,68.8-68.8,68.8-68.8-30.8-68.8-68.8,30.8-68.8,68.8-68.8M782.3,119c-40.7,0-73.8,33-73.8,73.8s33,73.8,73.8,73.8,73.8-33,73.8-73.8-33-73.8-73.8-73.8h0Z"/>
        </g>
        <g>
          <path class="st1" d="M782.3,253c-33.2,0-60.2-27-60.2-60.2s27-60.2,60.2-60.2,60.2,27,60.2,60.2-27,60.2-60.2,60.2Z"/>
          <path d="M782.3,135c31.8,0,57.7,25.9,57.7,57.7s-25.9,57.7-57.7,57.7-57.7-25.9-57.7-57.7,25.9-57.7,57.7-57.7M782.3,130c-34.6,0-62.7,28.1-62.7,62.7s28.1,62.7,62.7,62.7,62.7-28.1,62.7-62.7-28.1-62.7-62.7-62.7h0Z"/>
        </g>
        <g>
          <path class="st1" d="M782.3,240.3c-26.2,0-47.6-21.3-47.6-47.6s21.3-47.6,47.6-47.6,47.6,21.3,47.6,47.6-21.3,47.6-47.6,47.6Z"/>
          <path d="M782.3,147.7c24.9,0,45.1,20.2,45.1,45.1s-20.2,45.1-45.1,45.1-45.1-20.2-45.1-45.1,20.2-45.1,45.1-45.1M782.3,142.7c-27.7,0-50.1,22.4-50.1,50.1s22.4,50.1,50.1,50.1,50.1-22.4,50.1-50.1-22.4-50.1-50.1-50.1h0Z"/>
        </g>
        <g>
          <path class="st1" d="M782.3,228c-19.4,0-35.2-15.8-35.2-35.2s15.8-35.2,35.2-35.2,35.2,15.8,35.2,35.2-15.8,35.2-35.2,35.2Z"/>
          <path d="M782.3,160c18,0,32.7,14.7,32.7,32.7s-14.7,32.7-32.7,32.7-32.7-14.7-32.7-32.7,14.7-32.7,32.7-32.7M782.3,155c-20.8,0-37.7,16.9-37.7,37.7s16.9,37.7,37.7,37.7,37.7-16.9,37.7-37.7-16.9-37.7-37.7-37.7h0Z"/>
        </g>
      </g>
      <g>
        <g>
          <path class="st1" d="M957.1,264c-39.3,0-71.3-32-71.3-71.3s32-71.3,71.3-71.3,71.3,32,71.3,71.3-32,71.3-71.3,71.3Z"/>
          <path d="M957.1,124c37.9,0,68.8,30.8,68.8,68.8s-30.8,68.8-68.8,68.8-68.8-30.8-68.8-68.8,30.8-68.8,68.8-68.8M957.1,119c-40.7,0-73.8,33-73.8,73.8s33,73.8,73.8,73.8,73.8-33,73.8-73.8-33-73.8-73.8-73.8h0Z"/>
        </g>
        <g>
          <path class="st1" d="M957.1,253c-33.2,0-60.2-27-60.2-60.2s27-60.2,60.2-60.2,60.2,27,60.2,60.2-27,60.2-60.2,60.2Z"/>
          <path d="M957.1,135c31.8,0,57.7,25.9,57.7,57.7s-25.9,57.7-57.7,57.7-57.7-25.9-57.7-57.7,25.9-57.7,57.7-57.7M957.1,130c-34.6,0-62.7,28.1-62.7,62.7s28.1,62.7,62.7,62.7,62.7-28.1,62.7-62.7-28.1-62.7-62.7-62.7h0Z"/>
        </g>
        <g>
          <path class="st1" d="M957.1,240.3c-26.2,0-47.6-21.3-47.6-47.6s21.3-47.6,47.6-47.6,47.6,21.3,47.6,47.6-21.3,47.6-47.6,47.6Z"/>
          <path d="M957.1,147.7c24.9,0,45.1,20.2,45.1,45.1s-20.2,45.1-45.1,45.1-45.1-20.2-45.1-45.1,20.2-45.1,45.1-45.1M957.1,142.7c-27.7,0-50.1,22.4-50.1,50.1s22.4,50.1,50.1,50.1,50.1-22.4,50.1-50.1-22.4-50.1-50.1-50.1h0Z"/>
        </g>
        <g>
          <path class="st1" d="M957.1,228c-19.4,0-35.2-15.8-35.2-35.2s15.8-35.2,35.2-35.2,35.2,15.8,35.2,35.2-15.8,35.2-35.2,35.2Z"/>
          <path d="M957.1,160c18,0,32.7,14.7,32.7,32.7s-14.7,32.7-32.7,32.7-32.7-14.7-32.7-32.7,14.7-32.7,32.7-32.7M957.1,155c-20.8,0-37.7,16.9-37.7,37.7s16.9,37.7,37.7,37.7,37.7-16.9,37.7-37.7-16.9-37.7-37.7-37.7h0Z"/>
        </g>
      </g>
      <g>
        <g>
          <path class="st1" d="M1131.8,264c-39.3,0-71.3-32-71.3-71.3s32-71.3,71.3-71.3,71.3,32,71.3,71.3-32,71.3-71.3,71.3Z"/>
          <path d="M1131.8,124c37.9,0,68.8,30.8,68.8,68.8s-30.8,68.8-68.8,68.8-68.8-30.8-68.8-68.8,30.8-68.8,68.8-68.8M1131.8,119c-40.7,0-73.8,33-73.8,73.8s33,73.8,73.8,73.8,73.8-33,73.8-73.8-33-73.8-73.8-73.8h0Z"/>
        </g>
        <g>
          <path class="st1" d="M1131.8,253c-33.2,0-60.2-27-60.2-60.2s27-60.2,60.2-60.2,60.2,27,60.2,60.2-27,60.2-60.2,60.2Z"/>
          <path d="M1131.8,135c31.8,0,57.7,25.9,57.7,57.7s-25.9,57.7-57.7,57.7-57.7-25.9-57.7-57.7,25.9-57.7,57.7-57.7M1131.8,130c-34.6,0-62.7,28.1-62.7,62.7s28.1,62.7,62.7,62.7,62.7-28.1,62.7-62.7-28.1-62.7-62.7-62.7h0Z"/>
        </g>
        <g>
          <path class="st1" d="M1131.8,240.3c-26.2,0-47.6-21.3-47.6-47.6s21.3-47.6,47.6-47.6,47.6,21.3,47.6,47.6-21.3,47.6-47.6,47.6Z"/>
          <path d="M1131.8,147.7c24.9,0,45.1,20.2,45.1,45.1s-20.2,45.1-45.1,45.1-45.1-20.2-45.1-45.1,20.2-45.1,45.1-45.1M1131.8,142.7c-27.7,0-50.1,22.4-50.1,50.1s22.4,50.1,50.1,50.1,50.1-22.4,50.1-50.1-22.4-50.1-50.1-50.1h0Z"/>
        </g>
        <g>
          <path class="st1" d="M1131.8,228c-19.4,0-35.2-15.8-35.2-35.2s15.8-35.2,35.2-35.2,35.2,15.8,35.2,35.2-15.8,35.2-35.2,35.2Z"/>
          <path d="M1131.8,160c18,0,32.7,14.7,32.7,32.7s-14.7,32.7-32.7,32.7-32.7-14.7-32.7-32.7,14.7-32.7,32.7-32.7M1131.8,155c-20.8,0-37.7,16.9-37.7,37.7s16.9,37.7,37.7,37.7,37.7-16.9,37.7-37.7-16.9-37.7-37.7-37.7h0Z"/>
        </g>
      </g>
      <g>
        <g>
          <path class="st1" d="M1306.6,264c-39.3,0-71.3-32-71.3-71.3s32-71.3,71.3-71.3,71.3,32,71.3,71.3-32,71.3-71.3,71.3Z"/>
          <path d="M1306.6,124c37.9,0,68.8,30.8,68.8,68.8s-30.8,68.8-68.8,68.8-68.8-30.8-68.8-68.8,30.8-68.8,68.8-68.8M1306.6,119c-40.7,0-73.8,33-73.8,73.8s33,73.8,73.8,73.8,73.8-33,73.8-73.8-33-73.8-73.8-73.8h0Z"/>
        </g>
        <g>
          <path class="st1" d="M1306.6,253c-33.2,0-60.2-27-60.2-60.2s27-60.2,60.2-60.2,60.2,27,60.2,60.2-27,60.2-60.2,60.2Z"/>
          <path d="M1306.6,135c31.8,0,57.7,25.9,57.7,57.7s-25.9,57.7-57.7,57.7-57.7-25.9-57.7-57.7,25.9-57.7,57.7-57.7M1306.6,130c-34.6,0-62.7,28.1-62.7,62.7s28.1,62.7,62.7,62.7,62.7-28.1,62.7-62.7-28.1-62.7-62.7-62.7h0Z"/>
        </g>
        <g>
          <path class="st1" d="M1306.6,240.3c-26.2,0-47.6-21.3-47.6-47.6s21.3-47.6,47.6-47.6,47.6,21.3,47.6,47.6-21.3,47.6-47.6,47.6Z"/>
          <path d="M1306.6,147.7c24.9,0,45.1,20.2,45.1,45.1s-20.2,45.1-45.1,45.1-45.1-20.2-45.1-45.1,20.2-45.1,45.1-45.1M1306.6,142.7c-27.7,0-50.1,22.4-50.1,50.1s22.4,50.1,50.1,50.1,50.1-22.4,50.1-50.1-22.4-50.1-50.1-50.1h0Z"/>
        </g>
        <g>
          <path class="st1" d="M1306.6,228c-19.4,0-35.2-15.8-35.2-35.2s15.8-35.2,35.2-35.2,35.2,15.8,35.2,35.2-15.8,35.2-35.2,35.2Z"/>
          <path d="M1306.6,160c18,0,32.7,14.7,32.7,32.7s-14.7,32.7-32.7,32.7-32.7-14.7-32.7-32.7,14.7-32.7,32.7-32.7M1306.6,155c-20.8,0-37.7,16.9-37.7,37.7s16.9,37.7,37.7,37.7,37.7-16.9,37.7-37.7-16.9-37.7-37.7-37.7h0Z"/>
        </g>
      </g>
      <g>
        <g>
          <path class="st1" d="M1481.3,264c-39.3,0-71.3-32-71.3-71.3s32-71.3,71.3-71.3,71.3,32,71.3,71.3-32,71.3-71.3,71.3Z"/>
          <path d="M1481.3,124c37.9,0,68.8,30.8,68.8,68.8s-30.8,68.8-68.8,68.8-68.8-30.8-68.8-68.8,30.8-68.8,68.8-68.8M1481.3,119c-40.7,0-73.8,33-73.8,73.8s33,73.8,73.8,73.8,73.8-33,73.8-73.8-33-73.8-73.8-73.8h0Z"/>
        </g>
        <g>
          <path class="st1" d="M1481.3,253c-33.2,0-60.2-27-60.2-60.2s27-60.2,60.2-60.2,60.2,27,60.2,60.2-27,60.2-60.2,60.2Z"/>
          <path d="M1481.3,135c31.8,0,57.7,25.9,57.7,57.7s-25.9,57.7-57.7,57.7-57.7-25.9-57.7-57.7,25.9-57.7,57.7-57.7M1481.3,130c-34.6,0-62.7,28.1-62.7,62.7s28.1,62.7,62.7,62.7,62.7-28.1,62.7-62.7-28.1-62.7-62.7-62.7h0Z"/>
        </g>
        <g>
          <path class="st1" d="M1481.3,240.3c-26.2,0-47.6-21.3-47.6-47.6s21.3-47.6,47.6-47.6,47.6,21.3,47.6,47.6-21.3,47.6-47.6,47.6Z"/>
          <path d="M1481.3,147.7c24.9,0,45.1,20.2,45.1,45.1s-20.2,45.1-45.1,45.1-45.1-20.2-45.1-45.1,20.2-45.1,45.1-45.1M1481.3,142.7c-27.7,0-50.1,22.4-50.1,50.1s22.4,50.1,50.1,50.1,50.1-22.4,50.1-50.1-22.4-50.1-50.1-50.1h0Z"/>
        </g>
        <g>
          <path class="st1" d="M1481.3,228c-19.4,0-35.2-15.8-35.2-35.2s15.8-35.2,35.2-35.2,35.2,15.8,35.2,35.2-15.8,35.2-35.2,35.2Z"/>
          <path d="M1481.3,160c18,0,32.7,14.7,32.7,32.7s-14.7,32.7-32.7,32.7-32.7-14.7-32.7-32.7,14.7-32.7,32.7-32.7M1481.3,155c-20.8,0-37.7,16.9-37.7,37.7s16.9,37.7,37.7,37.7,37.7-16.9,37.7-37.7-16.9-37.7-37.7-37.7h0Z"/>
        </g>
      </g>
      <g>
        <g>
          <path class="st1" d="M1656.1,264c-39.3,0-71.3-32-71.3-71.3s32-71.3,71.3-71.3,71.3,32,71.3,71.3-32,71.3-71.3,71.3Z"/>
          <path d="M1656.1,124c37.9,0,68.8,30.8,68.8,68.8s-30.8,68.8-68.8,68.8-68.8-30.8-68.8-68.8,30.8-68.8,68.8-68.8M1656.1,119c-40.7,0-73.8,33-73.8,73.8s33,73.8,73.8,73.8,73.8-33,73.8-73.8-33-73.8-73.8-73.8h0Z"/>
        </g>
        <g>
          <path class="st1" d="M1656.1,253c-33.2,0-60.2-27-60.2-60.2s27-60.2,60.2-60.2,60.2,27,60.2,60.2-27,60.2-60.2,60.2Z"/>
          <path d="M1656.1,135c31.8,0,57.7,25.9,57.7,57.7s-25.9,57.7-57.7,57.7-57.7-25.9-57.7-57.7,25.9-57.7,57.7-57.7M1656.1,130c-34.6,0-62.7,28.1-62.7,62.7s28.1,62.7,62.7,62.7,62.7-28.1,62.7-62.7-28.1-62.7-62.7-62.7h0Z"/>
        </g>
        <g>
          <path class="st1" d="M1656.1,240.3c-26.2,0-47.6-21.3-47.6-47.6s21.3-47.6,47.6-47.6,47.6,21.3,47.6,47.6-21.3,47.6-47.6,47.6Z"/>
          <path d="M1656.1,147.7c24.9,0,45.1,20.2,45.1,45.1s-20.2,45.1-45.1,45.1-45.1-20.2-45.1-45.1,20.2-45.1,45.1-45.1M1656.1,142.7c-27.7,0-50.1,22.4-50.1,50.1s22.4,50.1,50.1,50.1,50.1-22.4,50.1-50.1-22.4-50.1-50.1-50.1h0Z"/>
        </g>
        <g>
          <path class="st1" d="M1656.1,228c-19.4,0-35.2-15.8-35.2-35.2s15.8-35.2,35.2-35.2,35.2,15.8,35.2,35.2-15.8,35.2-35.2,35.2Z"/>
          <path d="M1656.1,160c18,0,32.7,14.7,32.7,32.7s-14.7,32.7-32.7,32.7-32.7-14.7-32.7-32.7,14.7-32.7,32.7-32.7M1656.1,155c-20.8,0-37.7,16.9-37.7,37.7s16.9,37.7,37.7,37.7,37.7-16.9,37.7-37.7-16.9-37.7-37.7-37.7h0Z"/>
        </g>
      </g>
      <g>
        <g>
          <path class="st1" d="M1830.8,264c-39.3,0-71.3-32-71.3-71.3s32-71.3,71.3-71.3,71.3,32,71.3,71.3-32,71.3-71.3,71.3Z"/>
          <path d="M1830.8,124c37.9,0,68.8,30.8,68.8,68.8s-30.8,68.8-68.8,68.8-68.8-30.8-68.8-68.8,30.8-68.8,68.8-68.8M1830.8,119c-40.7,0-73.8,33-73.8,73.8s33,73.8,73.8,73.8,73.8-33,73.8-73.8-33-73.8-73.8-73.8h0Z"/>
        </g>
        <g>
          <path class="st1" d="M1830.8,253c-33.2,0-60.2-27-60.2-60.2s27-60.2,60.2-60.2,60.2,27,60.2,60.2-27,60.2-60.2,60.2Z"/>
          <path d="M1830.8,135c31.8,0,57.7,25.9,57.7,57.7s-25.9,57.7-57.7,57.7-57.7-25.9-57.7-57.7,25.9-57.7,57.7-57.7M1830.8,130c-34.6,0-62.7,28.1-62.7,62.7s28.1,62.7,62.7,62.7,62.7-28.1,62.7-62.7-28.1-62.7-62.7-62.7h0Z"/>
        </g>
        <g>
          <path class="st1" d="M1830.8,240.3c-26.2,0-47.6-21.3-47.6-47.6s21.3-47.6,47.6-47.6,47.6,21.3,47.6,47.6-21.3,47.6-47.6,47.6Z"/>
          <path d="M1830.8,147.7c24.9,0,45.1,20.2,45.1,45.1s-20.2,45.1-45.1,45.1-45.1-20.2-45.1-45.1,20.2-45.1,45.1-45.1M1830.8,142.7c-27.7,0-50.1,22.4-50.1,50.1s22.4,50.1,50.1,50.1,50.1-22.4,50.1-50.1-22.4-50.1-50.1-50.1h0Z"/>
        </g>
        <g>
          <path class="st1" d="M1830.8,228c-19.4,0-35.2-15.8-35.2-35.2s15.8-35.2,35.2-35.2,35.2,15.8,35.2,35.2-15.8,35.2-35.2,35.2Z"/>
          <path d="M1830.8,160c18,0,32.7,14.7,32.7,32.7s-14.7,32.7-32.7,32.7-32.7-14.7-32.7-32.7,14.7-32.7,32.7-32.7M1830.8,155c-20.8,0-37.7,16.9-37.7,37.7s16.9,37.7,37.7,37.7,37.7-16.9,37.7-37.7-16.9-37.7-37.7-37.7h0Z"/>
        </g>
      </g>
      <g>
        <g>
          <path class="st1" d="M2005.5,264c-39.3,0-71.3-32-71.3-71.3s32-71.3,71.3-71.3,71.3,32,71.3,71.3-32,71.3-71.3,71.3Z"/>
          <path d="M2005.5,124c37.9,0,68.8,30.8,68.8,68.8s-30.8,68.8-68.8,68.8-68.8-30.8-68.8-68.8,30.8-68.8,68.8-68.8M2005.5,119c-40.7,0-73.8,33-73.8,73.8s33,73.8,73.8,73.8,73.8-33,73.8-73.8-33-73.8-73.8-73.8h0Z"/>
        </g>
        <g>
          <path class="st1" d="M2005.5,253c-33.2,0-60.2-27-60.2-60.2s27-60.2,60.2-60.2,60.2,27,60.2,60.2-27,60.2-60.2,60.2Z"/>
          <path d="M2005.5,135c31.8,0,57.7,25.9,57.7,57.7s-25.9,57.7-57.7,57.7-57.7-25.9-57.7-57.7,25.9-57.7,57.7-57.7M2005.5,130c-34.6,0-62.7,28.1-62.7,62.7s28.1,62.7,62.7,62.7,62.7-28.1,62.7-62.7-28.1-62.7-62.7-62.7h0Z"/>
        </g>
        <g>
          <path class="st1" d="M2005.5,240.3c-26.2,0-47.6-21.3-47.6-47.6s21.3-47.6,47.6-47.6,47.6,21.3,47.6,47.6-21.3,47.6-47.6,47.6Z"/>
          <path d="M2005.5,147.7c24.9,0,45.1,20.2,45.1,45.1s-20.2,45.1-45.1,45.1-45.1-20.2-45.1-45.1,20.2-45.1,45.1-45.1M2005.5,142.7c-27.7,0-50.1,22.4-50.1,50.1s22.4,50.1,50.1,50.1,50.1-22.4,50.1-50.1-22.4-50.1-50.1-50.1h0Z"/>
        </g>
        <g>
          <path class="st1" d="M2005.5,228c-19.4,0-35.2-15.8-35.2-35.2s15.8-35.2,35.2-35.2,35.2,15.8,35.2,35.2-15.8,35.2-35.2,35.2Z"/>
          <path d="M2005.5,160c18,0,32.7,14.7,32.7,32.7s-14.7,32.7-32.7,32.7-32.7-14.7-32.7-32.7,14.7-32.7,32.7-32.7M2005.5,155c-20.8,0-37.7,16.9-37.7,37.7s16.9,37.7,37.7,37.7,37.7-16.9,37.7-37.7-16.9-37.7-37.7-37.7h0Z"/>
        </g>
      </g>
    </g>
    <g>
      <g>
        <g>
          <path class="st1" d="M-1.6,294.6c-39.3,0-71.3-32-71.3-71.3S-40.9,152.1-1.6,152.1s71.3,32,71.3,71.3S37.7,294.6-1.6,294.6Z"/>
          <path d="M-1.6,154.6c37.9,0,68.8,30.8,68.8,68.8S36.3,292.1-1.6,292.1s-68.8-30.8-68.8-68.8S-39.5,154.6-1.6,154.6M-1.6,149.6c-40.7,0-73.8,33-73.8,73.8S-42.3,297.1-1.6,297.1s73.8-33,73.8-73.8S39.1,149.6-1.6,149.6h0Z"/>
        </g>
        <g>
          <path class="st1" d="M-1.6,283.5c-33.2,0-60.2-27-60.2-60.2s27-60.2,60.2-60.2,60.2,27,60.2,60.2-27,60.2-60.2,60.2Z"/>
          <path d="M-1.6,165.6c31.8,0,57.7,25.9,57.7,57.7s-25.9,57.7-57.7,57.7-57.7-25.9-57.7-57.7,25.9-57.7,57.7-57.7M-1.6,160.6c-34.6,0-62.7,28.1-62.7,62.7s28.1,62.7,62.7,62.7,62.7-28.1,62.7-62.7-28.1-62.7-62.7-62.7h0Z"/>
        </g>
        <g>
          <path class="st1" d="M-1.6,270.9c-26.2,0-47.6-21.3-47.6-47.6S-27.8,175.7-1.6,175.7s47.6,21.3,47.6,47.6-21.3,47.6-47.6,47.6Z"/>
          <path d="M-1.6,178.2c24.9,0,45.1,20.2,45.1,45.1s-20.2,45.1-45.1,45.1-45.1-20.2-45.1-45.1S-26.5,178.2-1.6,178.2M-1.6,173.2c-27.7,0-50.1,22.4-50.1,50.1s22.4,50.1,50.1,50.1,50.1-22.4,50.1-50.1S26.1,173.2-1.6,173.2h0Z"/>
        </g>
        <g>
          <path class="st1" d="M-1.6,258.5c-19.4,0-35.2-15.8-35.2-35.2s15.8-35.2,35.2-35.2,35.2,15.8,35.2,35.2-15.8,35.2-35.2,35.2Z"/>
          <path d="M-1.6,190.6c18,0,32.7,14.7,32.7,32.7s-14.7,32.7-32.7,32.7-32.7-14.7-32.7-32.7,14.7-32.7,32.7-32.7M-1.6,185.6c-20.8,0-37.7,16.9-37.7,37.7s16.9,37.7,37.7,37.7,37.7-16.9,37.7-37.7S19.2,185.6-1.6,185.6h0Z"/>
        </g>
      </g>
      <g>
        <g>
          <path class="st1" d="M173.1,294.6c-39.3,0-71.3-32-71.3-71.3s32-71.3,71.3-71.3,71.3,32,71.3,71.3-32,71.3-71.3,71.3Z"/>
          <path d="M173.1,154.6c37.9,0,68.8,30.8,68.8,68.8s-30.8,68.8-68.8,68.8-68.8-30.8-68.8-68.8,30.8-68.8,68.8-68.8M173.1,149.6c-40.7,0-73.8,33-73.8,73.8s33,73.8,73.8,73.8,73.8-33,73.8-73.8-33-73.8-73.8-73.8h0Z"/>
        </g>
        <g>
          <path class="st1" d="M173.1,283.5c-33.2,0-60.2-27-60.2-60.2s27-60.2,60.2-60.2,60.2,27,60.2,60.2-27,60.2-60.2,60.2Z"/>
          <path d="M173.1,165.6c31.8,0,57.7,25.9,57.7,57.7s-25.9,57.7-57.7,57.7-57.7-25.9-57.7-57.7,25.9-57.7,57.7-57.7M173.1,160.6c-34.6,0-62.7,28.1-62.7,62.7s28.1,62.7,62.7,62.7,62.7-28.1,62.7-62.7-28.1-62.7-62.7-62.7h0Z"/>
        </g>
        <g>
          <path class="st1" d="M173.1,270.9c-26.2,0-47.6-21.3-47.6-47.6s21.3-47.6,47.6-47.6,47.6,21.3,47.6,47.6-21.3,47.6-47.6,47.6Z"/>
          <path d="M173.1,178.2c24.9,0,45.1,20.2,45.1,45.1s-20.2,45.1-45.1,45.1-45.1-20.2-45.1-45.1,20.2-45.1,45.1-45.1M173.1,173.2c-27.7,0-50.1,22.4-50.1,50.1s22.4,50.1,50.1,50.1,50.1-22.4,50.1-50.1-22.4-50.1-50.1-50.1h0Z"/>
        </g>
        <g>
          <path class="st1" d="M173.1,258.5c-19.4,0-35.2-15.8-35.2-35.2s15.8-35.2,35.2-35.2,35.2,15.8,35.2,35.2-15.8,35.2-35.2,35.2Z"/>
          <path d="M173.1,190.6c18,0,32.7,14.7,32.7,32.7s-14.7,32.7-32.7,32.7-32.7-14.7-32.7-32.7,14.7-32.7,32.7-32.7M173.1,185.6c-20.8,0-37.7,16.9-37.7,37.7s16.9,37.7,37.7,37.7,37.7-16.9,37.7-37.7-16.9-37.7-37.7-37.7h0Z"/>
        </g>
      </g>
      <g>
        <g>
          <path class="st1" d="M347.9,294.6c-39.3,0-71.3-32-71.3-71.3s32-71.3,71.3-71.3,71.3,32,71.3,71.3-32,71.3-71.3,71.3Z"/>
          <path d="M347.9,154.6c37.9,0,68.8,30.8,68.8,68.8s-30.8,68.8-68.8,68.8-68.8-30.8-68.8-68.8,30.8-68.8,68.8-68.8M347.9,149.6c-40.7,0-73.8,33-73.8,73.8s33,73.8,73.8,73.8,73.8-33,73.8-73.8-33-73.8-73.8-73.8h0Z"/>
        </g>
        <g>
          <path class="st1" d="M347.9,283.5c-33.2,0-60.2-27-60.2-60.2s27-60.2,60.2-60.2,60.2,27,60.2,60.2-27,60.2-60.2,60.2Z"/>
          <path d="M347.9,165.6c31.8,0,57.7,25.9,57.7,57.7s-25.9,57.7-57.7,57.7-57.7-25.9-57.7-57.7,25.9-57.7,57.7-57.7M347.9,160.6c-34.6,0-62.7,28.1-62.7,62.7s28.1,62.7,62.7,62.7,62.7-28.1,62.7-62.7-28.1-62.7-62.7-62.7h0Z"/>
        </g>
        <g>
          <path class="st1" d="M347.9,270.9c-26.2,0-47.6-21.3-47.6-47.6s21.3-47.6,47.6-47.6,47.6,21.3,47.6,47.6-21.3,47.6-47.6,47.6Z"/>
          <path d="M347.9,178.2c24.9,0,45.1,20.2,45.1,45.1s-20.2,45.1-45.1,45.1-45.1-20.2-45.1-45.1,20.2-45.1,45.1-45.1M347.9,173.2c-27.7,0-50.1,22.4-50.1,50.1s22.4,50.1,50.1,50.1,50.1-22.4,50.1-50.1-22.4-50.1-50.1-50.1h0Z"/>
        </g>
        <g>
          <path class="st1" d="M347.9,258.5c-19.4,0-35.2-15.8-35.2-35.2s15.8-35.2,35.2-35.2,35.2,15.8,35.2,35.2-15.8,35.2-35.2,35.2Z"/>
          <path d="M347.9,190.6c18,0,32.7,14.7,32.7,32.7s-14.7,32.7-32.7,32.7-32.7-14.7-32.7-32.7,14.7-32.7,32.7-32.7M347.9,185.6c-20.8,0-37.7,16.9-37.7,37.7s16.9,37.7,37.7,37.7,37.7-16.9,37.7-37.7-16.9-37.7-37.7-37.7h0Z"/>
        </g>
      </g>
      <g>
        <g>
          <path class="st1" d="M522.6,294.6c-39.3,0-71.3-32-71.3-71.3s32-71.3,71.3-71.3,71.3,32,71.3,71.3-32,71.3-71.3,71.3Z"/>
          <path d="M522.6,154.6c37.9,0,68.8,30.8,68.8,68.8s-30.8,68.8-68.8,68.8-68.8-30.8-68.8-68.8,30.8-68.8,68.8-68.8M522.6,149.6c-40.7,0-73.8,33-73.8,73.8s33,73.8,73.8,73.8,73.8-33,73.8-73.8-33-73.8-73.8-73.8h0Z"/>
        </g>
        <g>
          <path class="st1" d="M522.6,283.5c-33.2,0-60.2-27-60.2-60.2s27-60.2,60.2-60.2,60.2,27,60.2,60.2-27,60.2-60.2,60.2Z"/>
          <path d="M522.6,165.6c31.8,0,57.7,25.9,57.7,57.7s-25.9,57.7-57.7,57.7-57.7-25.9-57.7-57.7,25.9-57.7,57.7-57.7M522.6,160.6c-34.6,0-62.7,28.1-62.7,62.7s28.1,62.7,62.7,62.7,62.7-28.1,62.7-62.7-28.1-62.7-62.7-62.7h0Z"/>
        </g>
        <g>
          <path class="st1" d="M522.6,270.9c-26.2,0-47.6-21.3-47.6-47.6s21.3-47.6,47.6-47.6,47.6,21.3,47.6,47.6-21.3,47.6-47.6,47.6Z"/>
          <path d="M522.6,178.2c24.9,0,45.1,20.2,45.1,45.1s-20.2,45.1-45.1,45.1-45.1-20.2-45.1-45.1,20.2-45.1,45.1-45.1M522.6,173.2c-27.7,0-50.1,22.4-50.1,50.1s22.4,50.1,50.1,50.1,50.1-22.4,50.1-50.1-22.4-50.1-50.1-50.1h0Z"/>
        </g>
        <g>
          <path class="st1" d="M522.6,258.5c-19.4,0-35.2-15.8-35.2-35.2s15.8-35.2,35.2-35.2,35.2,15.8,35.2,35.2-15.8,35.2-35.2,35.2Z"/>
          <path d="M522.6,190.6c18,0,32.7,14.7,32.7,32.7s-14.7,32.7-32.7,32.7-32.7-14.7-32.7-32.7,14.7-32.7,32.7-32.7M522.6,185.6c-20.8,0-37.7,16.9-37.7,37.7s16.9,37.7,37.7,37.7,37.7-16.9,37.7-37.7-16.9-37.7-37.7-37.7h0Z"/>
        </g>
      </g>
      <g>
        <g>
          <path class="st1" d="M697.4,294.6c-39.3,0-71.3-32-71.3-71.3s32-71.3,71.3-71.3,71.3,32,71.3,71.3-32,71.3-71.3,71.3Z"/>
          <path d="M697.4,154.6c37.9,0,68.8,30.8,68.8,68.8s-30.8,68.8-68.8,68.8-68.8-30.8-68.8-68.8,30.8-68.8,68.8-68.8M697.4,149.6c-40.7,0-73.8,33-73.8,73.8s33,73.8,73.8,73.8,73.8-33,73.8-73.8-33-73.8-73.8-73.8h0Z"/>
        </g>
        <g>
          <path class="st1" d="M697.4,283.5c-33.2,0-60.2-27-60.2-60.2s27-60.2,60.2-60.2,60.2,27,60.2,60.2-27,60.2-60.2,60.2Z"/>
          <path d="M697.4,165.6c31.8,0,57.7,25.9,57.7,57.7s-25.9,57.7-57.7,57.7-57.7-25.9-57.7-57.7,25.9-57.7,57.7-57.7M697.4,160.6c-34.6,0-62.7,28.1-62.7,62.7s28.1,62.7,62.7,62.7,62.7-28.1,62.7-62.7-28.1-62.7-62.7-62.7h0Z"/>
        </g>
        <g>
          <path class="st1" d="M697.4,270.9c-26.2,0-47.6-21.3-47.6-47.6s21.3-47.6,47.6-47.6,47.6,21.3,47.6,47.6-21.3,47.6-47.6,47.6Z"/>
          <path d="M697.4,178.2c24.9,0,45.1,20.2,45.1,45.1s-20.2,45.1-45.1,45.1-45.1-20.2-45.1-45.1,20.2-45.1,45.1-45.1M697.4,173.2c-27.7,0-50.1,22.4-50.1,50.1s22.4,50.1,50.1,50.1,50.1-22.4,50.1-50.1-22.4-50.1-50.1-50.1h0Z"/>
        </g>
        <g>
          <path class="st1" d="M697.4,258.5c-19.4,0-35.2-15.8-35.2-35.2s15.8-35.2,35.2-35.2,35.2,15.8,35.2,35.2-15.8,35.2-35.2,35.2Z"/>
          <path d="M697.4,190.6c18,0,32.7,14.7,32.7,32.7s-14.7,32.7-32.7,32.7-32.7-14.7-32.7-32.7,14.7-32.7,32.7-32.7M697.4,185.6c-20.8,0-37.7,16.9-37.7,37.7s16.9,37.7,37.7,37.7,37.7-16.9,37.7-37.7-16.9-37.7-37.7-37.7h0Z"/>
        </g>
      </g>
      <g>
        <g>
          <path class="st1" d="M872.1,294.6c-39.3,0-71.3-32-71.3-71.3s32-71.3,71.3-71.3,71.3,32,71.3,71.3-32,71.3-71.3,71.3Z"/>
          <path d="M872.1,154.6c37.9,0,68.8,30.8,68.8,68.8s-30.8,68.8-68.8,68.8-68.8-30.8-68.8-68.8,30.8-68.8,68.8-68.8M872.1,149.6c-40.7,0-73.8,33-73.8,73.8s33,73.8,73.8,73.8,73.8-33,73.8-73.8-33-73.8-73.8-73.8h0Z"/>
        </g>
        <g>
          <path class="st1" d="M872.1,283.5c-33.2,0-60.2-27-60.2-60.2s27-60.2,60.2-60.2,60.2,27,60.2,60.2-27,60.2-60.2,60.2Z"/>
          <path d="M872.1,165.6c31.8,0,57.7,25.9,57.7,57.7s-25.9,57.7-57.7,57.7-57.7-25.9-57.7-57.7,25.9-57.7,57.7-57.7M872.1,160.6c-34.6,0-62.7,28.1-62.7,62.7s28.1,62.7,62.7,62.7,62.7-28.1,62.7-62.7-28.1-62.7-62.7-62.7h0Z"/>
        </g>
        <g>
          <path class="st1" d="M872.1,270.9c-26.2,0-47.6-21.3-47.6-47.6s21.3-47.6,47.6-47.6,47.6,21.3,47.6,47.6-21.3,47.6-47.6,47.6Z"/>
          <path d="M872.1,178.2c24.9,0,45.1,20.2,45.1,45.1s-20.2,45.1-45.1,45.1-45.1-20.2-45.1-45.1,20.2-45.1,45.1-45.1M872.1,173.2c-27.7,0-50.1,22.4-50.1,50.1s22.4,50.1,50.1,50.1,50.1-22.4,50.1-50.1-22.4-50.1-50.1-50.1h0Z"/>
        </g>
        <g>
          <path class="st1" d="M872.1,258.5c-19.4,0-35.2-15.8-35.2-35.2s15.8-35.2,35.2-35.2,35.2,15.8,35.2,35.2-15.8,35.2-35.2,35.2Z"/>
          <path d="M872.1,190.6c18,0,32.7,14.7,32.7,32.7s-14.7,32.7-32.7,32.7-32.7-14.7-32.7-32.7,14.7-32.7,32.7-32.7M872.1,185.6c-20.8,0-37.7,16.9-37.7,37.7s16.9,37.7,37.7,37.7,37.7-16.9,37.7-37.7-16.9-37.7-37.7-37.7h0Z"/>
        </g>
      </g>
      <g>
        <g>
          <path class="st1" d="M1046.9,294.6c-39.3,0-71.3-32-71.3-71.3s32-71.3,71.3-71.3,71.3,32,71.3,71.3-32,71.3-71.3,71.3Z"/>
          <path d="M1046.9,154.6c37.9,0,68.8,30.8,68.8,68.8s-30.8,68.8-68.8,68.8-68.8-30.8-68.8-68.8,30.8-68.8,68.8-68.8M1046.9,149.6c-40.7,0-73.8,33-73.8,73.8s33,73.8,73.8,73.8,73.8-33,73.8-73.8-33-73.8-73.8-73.8h0Z"/>
        </g>
        <g>
          <path class="st1" d="M1046.9,283.5c-33.2,0-60.2-27-60.2-60.2s27-60.2,60.2-60.2,60.2,27,60.2,60.2-27,60.2-60.2,60.2Z"/>
          <path d="M1046.9,165.6c31.8,0,57.7,25.9,57.7,57.7s-25.9,57.7-57.7,57.7-57.7-25.9-57.7-57.7,25.9-57.7,57.7-57.7M1046.9,160.6c-34.6,0-62.7,28.1-62.7,62.7s28.1,62.7,62.7,62.7,62.7-28.1,62.7-62.7-28.1-62.7-62.7-62.7h0Z"/>
        </g>
        <g>
          <path class="st1" d="M1046.9,270.9c-26.2,0-47.6-21.3-47.6-47.6s21.3-47.6,47.6-47.6,47.6,21.3,47.6,47.6-21.3,47.6-47.6,47.6Z"/>
          <path d="M1046.9,178.2c24.9,0,45.1,20.2,45.1,45.1s-20.2,45.1-45.1,45.1-45.1-20.2-45.1-45.1,20.2-45.1,45.1-45.1M1046.9,173.2c-27.7,0-50.1,22.4-50.1,50.1s22.4,50.1,50.1,50.1,50.1-22.4,50.1-50.1-22.4-50.1-50.1-50.1h0Z"/>
        </g>
        <g>
          <path class="st1" d="M1046.9,258.5c-19.4,0-35.2-15.8-35.2-35.2s15.8-35.2,35.2-35.2,35.2,15.8,35.2,35.2-15.8,35.2-35.2,35.2Z"/>
          <path d="M1046.9,190.6c18,0,32.7,14.7,32.7,32.7s-14.7,32.7-32.7,32.7-32.7-14.7-32.7-32.7,14.7-32.7,32.7-32.7M1046.9,185.6c-20.8,0-37.7,16.9-37.7,37.7s16.9,37.7,37.7,37.7,37.7-16.9,37.7-37.7-16.9-37.7-37.7-37.7h0Z"/>
        </g>
      </g>
      <g>
        <g>
          <path class="st1" d="M1221.6,294.6c-39.3,0-71.3-32-71.3-71.3s32-71.3,71.3-71.3,71.3,32,71.3,71.3-32,71.3-71.3,71.3Z"/>
          <path d="M1221.6,154.6c37.9,0,68.8,30.8,68.8,68.8s-30.8,68.8-68.8,68.8-68.8-30.8-68.8-68.8,30.8-68.8,68.8-68.8M1221.6,149.6c-40.7,0-73.8,33-73.8,73.8s33,73.8,73.8,73.8,73.8-33,73.8-73.8-33-73.8-73.8-73.8h0Z"/>
        </g>
        <g>
          <path class="st1" d="M1221.6,283.5c-33.2,0-60.2-27-60.2-60.2s27-60.2,60.2-60.2,60.2,27,60.2,60.2-27,60.2-60.2,60.2Z"/>
          <path d="M1221.6,165.6c31.8,0,57.7,25.9,57.7,57.7s-25.9,57.7-57.7,57.7-57.7-25.9-57.7-57.7,25.9-57.7,57.7-57.7M1221.6,160.6c-34.6,0-62.7,28.1-62.7,62.7s28.1,62.7,62.7,62.7,62.7-28.1,62.7-62.7-28.1-62.7-62.7-62.7h0Z"/>
        </g>
        <g>
          <path class="st1" d="M1221.6,270.9c-26.2,0-47.6-21.3-47.6-47.6s21.3-47.6,47.6-47.6,47.6,21.3,47.6,47.6-21.3,47.6-47.6,47.6Z"/>
          <path d="M1221.6,178.2c24.9,0,45.1,20.2,45.1,45.1s-20.2,45.1-45.1,45.1-45.1-20.2-45.1-45.1,20.2-45.1,45.1-45.1M1221.6,173.2c-27.7,0-50.1,22.4-50.1,50.1s22.4,50.1,50.1,50.1,50.1-22.4,50.1-50.1-22.4-50.1-50.1-50.1h0Z"/>
        </g>
        <g>
          <path class="st1" d="M1221.6,258.5c-19.4,0-35.2-15.8-35.2-35.2s15.8-35.2,35.2-35.2,35.2,15.8,35.2,35.2-15.8,35.2-35.2,35.2Z"/>
          <path d="M1221.6,190.6c18,0,32.7,14.7,32.7,32.7s-14.7,32.7-32.7,32.7-32.7-14.7-32.7-32.7,14.7-32.7,32.7-32.7M1221.6,185.6c-20.8,0-37.7,16.9-37.7,37.7s16.9,37.7,37.7,37.7,37.7-16.9,37.7-37.7-16.9-37.7-37.7-37.7h0Z"/>
        </g>
      </g>
      <g>
        <g>
          <path class="st1" d="M1396.3,294.6c-39.3,0-71.3-32-71.3-71.3s32-71.3,71.3-71.3,71.3,32,71.3,71.3-32,71.3-71.3,71.3Z"/>
          <path d="M1396.3,154.6c37.9,0,68.8,30.8,68.8,68.8s-30.8,68.8-68.8,68.8-68.8-30.8-68.8-68.8,30.8-68.8,68.8-68.8M1396.3,149.6c-40.7,0-73.8,33-73.8,73.8s33,73.8,73.8,73.8,73.8-33,73.8-73.8-33-73.8-73.8-73.8h0Z"/>
        </g>
        <g>
          <path class="st1" d="M1396.3,283.5c-33.2,0-60.2-27-60.2-60.2s27-60.2,60.2-60.2,60.2,27,60.2,60.2-27,60.2-60.2,60.2Z"/>
          <path d="M1396.3,165.6c31.8,0,57.7,25.9,57.7,57.7s-25.9,57.7-57.7,57.7-57.7-25.9-57.7-57.7,25.9-57.7,57.7-57.7M1396.3,160.6c-34.6,0-62.7,28.1-62.7,62.7s28.1,62.7,62.7,62.7,62.7-28.1,62.7-62.7-28.1-62.7-62.7-62.7h0Z"/>
        </g>
        <g>
          <path class="st1" d="M1396.3,270.9c-26.2,0-47.6-21.3-47.6-47.6s21.3-47.6,47.6-47.6,47.6,21.3,47.6,47.6-21.3,47.6-47.6,47.6Z"/>
          <path d="M1396.3,178.2c24.9,0,45.1,20.2,45.1,45.1s-20.2,45.1-45.1,45.1-45.1-20.2-45.1-45.1,20.2-45.1,45.1-45.1M1396.3,173.2c-27.7,0-50.1,22.4-50.1,50.1s22.4,50.1,50.1,50.1,50.1-22.4,50.1-50.1-22.4-50.1-50.1-50.1h0Z"/>
        </g>
        <g>
          <path class="st1" d="M1396.3,258.5c-19.4,0-35.2-15.8-35.2-35.2s15.8-35.2,35.2-35.2,35.2,15.8,35.2,35.2-15.8,35.2-35.2,35.2Z"/>
          <path d="M1396.3,190.6c18,0,32.7,14.7,32.7,32.7s-14.7,32.7-32.7,32.7-32.7-14.7-32.7-32.7,14.7-32.7,32.7-32.7M1396.3,185.6c-20.8,0-37.7,16.9-37.7,37.7s16.9,37.7,37.7,37.7,37.7-16.9,37.7-37.7-16.9-37.7-37.7-37.7h0Z"/>
        </g>
      </g>
      <g>
        <g>
          <path class="st1" d="M1571.1,294.6c-39.3,0-71.3-32-71.3-71.3s32-71.3,71.3-71.3,71.3,32,71.3,71.3-32,71.3-71.3,71.3Z"/>
          <path d="M1571.1,154.6c37.9,0,68.8,30.8,68.8,68.8s-30.8,68.8-68.8,68.8-68.8-30.8-68.8-68.8,30.8-68.8,68.8-68.8M1571.1,149.6c-40.7,0-73.8,33-73.8,73.8s33,73.8,73.8,73.8,73.8-33,73.8-73.8-33-73.8-73.8-73.8h0Z"/>
        </g>
        <g>
          <path class="st1" d="M1571.1,283.5c-33.2,0-60.2-27-60.2-60.2s27-60.2,60.2-60.2,60.2,27,60.2,60.2-27,60.2-60.2,60.2Z"/>
          <path d="M1571.1,165.6c31.8,0,57.7,25.9,57.7,57.7s-25.9,57.7-57.7,57.7-57.7-25.9-57.7-57.7,25.9-57.7,57.7-57.7M1571.1,160.6c-34.6,0-62.7,28.1-62.7,62.7s28.1,62.7,62.7,62.7,62.7-28.1,62.7-62.7-28.1-62.7-62.7-62.7h0Z"/>
        </g>
        <g>
          <path class="st1" d="M1571.1,270.9c-26.2,0-47.6-21.3-47.6-47.6s21.3-47.6,47.6-47.6,47.6,21.3,47.6,47.6-21.3,47.6-47.6,47.6Z"/>
          <path d="M1571.1,178.2c24.9,0,45.1,20.2,45.1,45.1s-20.2,45.1-45.1,45.1-45.1-20.2-45.1-45.1,20.2-45.1,45.1-45.1M1571.1,173.2c-27.7,0-50.1,22.4-50.1,50.1s22.4,50.1,50.1,50.1,50.1-22.4,50.1-50.1-22.4-50.1-50.1-50.1h0Z"/>
        </g>
        <g>
          <path class="st1" d="M1571.1,258.5c-19.4,0-35.2-15.8-35.2-35.2s15.8-35.2,35.2-35.2,35.2,15.8,35.2,35.2-15.8,35.2-35.2,35.2Z"/>
          <path d="M1571.1,190.6c18,0,32.7,14.7,32.7,32.7s-14.7,32.7-32.7,32.7-32.7-14.7-32.7-32.7,14.7-32.7,32.7-32.7M1571.1,185.6c-20.8,0-37.7,16.9-37.7,37.7s16.9,37.7,37.7,37.7,37.7-16.9,37.7-37.7-16.9-37.7-37.7-37.7h0Z"/>
        </g>
      </g>
      <g>
        <g>
          <path class="st1" d="M1745.8,294.6c-39.3,0-71.3-32-71.3-71.3s32-71.3,71.3-71.3,71.3,32,71.3,71.3-32,71.3-71.3,71.3Z"/>
          <path d="M1745.8,154.6c37.9,0,68.8,30.8,68.8,68.8s-30.8,68.8-68.8,68.8-68.8-30.8-68.8-68.8,30.8-68.8,68.8-68.8M1745.8,149.6c-40.7,0-73.8,33-73.8,73.8s33,73.8,73.8,73.8,73.8-33,73.8-73.8-33-73.8-73.8-73.8h0Z"/>
        </g>
        <g>
          <path class="st1" d="M1745.8,283.5c-33.2,0-60.2-27-60.2-60.2s27-60.2,60.2-60.2,60.2,27,60.2,60.2-27,60.2-60.2,60.2Z"/>
          <path d="M1745.8,165.6c31.8,0,57.7,25.9,57.7,57.7s-25.9,57.7-57.7,57.7-57.7-25.9-57.7-57.7,25.9-57.7,57.7-57.7M1745.8,160.6c-34.6,0-62.7,28.1-62.7,62.7s28.1,62.7,62.7,62.7,62.7-28.1,62.7-62.7-28.1-62.7-62.7-62.7h0Z"/>
        </g>
        <g>
          <path class="st1" d="M1745.8,270.9c-26.2,0-47.6-21.3-47.6-47.6s21.3-47.6,47.6-47.6,47.6,21.3,47.6,47.6-21.3,47.6-47.6,47.6Z"/>
          <path d="M1745.8,178.2c24.9,0,45.1,20.2,45.1,45.1s-20.2,45.1-45.1,45.1-45.1-20.2-45.1-45.1,20.2-45.1,45.1-45.1M1745.8,173.2c-27.7,0-50.1,22.4-50.1,50.1s22.4,50.1,50.1,50.1,50.1-22.4,50.1-50.1-22.4-50.1-50.1-50.1h0Z"/>
        </g>
        <g>
          <path class="st1" d="M1745.8,258.5c-19.4,0-35.2-15.8-35.2-35.2s15.8-35.2,35.2-35.2,35.2,15.8,35.2,35.2-15.8,35.2-35.2,35.2Z"/>
          <path d="M1745.8,190.6c18,0,32.7,14.7,32.7,32.7s-14.7,32.7-32.7,32.7-32.7-14.7-32.7-32.7,14.7-32.7,32.7-32.7M1745.8,185.6c-20.8,0-37.7,16.9-37.7,37.7s16.9,37.7,37.7,37.7,37.7-16.9,37.7-37.7-16.9-37.7-37.7-37.7h0Z"/>
        </g>
      </g>
      <g>
        <g>
          <path class="st1" d="M1920.6,294.6c-39.3,0-71.3-32-71.3-71.3s32-71.3,71.3-71.3,71.3,32,71.3,71.3-32,71.3-71.3,71.3Z"/>
          <path d="M1920.6,154.6c37.9,0,68.8,30.8,68.8,68.8s-30.8,68.8-68.8,68.8-68.8-30.8-68.8-68.8,30.8-68.8,68.8-68.8M1920.6,149.6c-40.7,0-73.8,33-73.8,73.8s33,73.8,73.8,73.8,73.8-33,73.8-73.8-33-73.8-73.8-73.8h0Z"/>
        </g>
        <g>
          <path class="st1" d="M1920.6,283.5c-33.2,0-60.2-27-60.2-60.2s27-60.2,60.2-60.2,60.2,27,60.2,60.2-27,60.2-60.2,60.2Z"/>
          <path d="M1920.6,165.6c31.8,0,57.7,25.9,57.7,57.7s-25.9,57.7-57.7,57.7-57.7-25.9-57.7-57.7,25.9-57.7,57.7-57.7M1920.6,160.6c-34.6,0-62.7,28.1-62.7,62.7s28.1,62.7,62.7,62.7,62.7-28.1,62.7-62.7-28.1-62.7-62.7-62.7h0Z"/>
        </g>
        <g>
          <path class="st1" d="M1920.6,270.9c-26.2,0-47.6-21.3-47.6-47.6s21.3-47.6,47.6-47.6,47.6,21.3,47.6,47.6-21.3,47.6-47.6,47.6Z"/>
          <path d="M1920.6,178.2c24.9,0,45.1,20.2,45.1,45.1s-20.2,45.1-45.1,45.1-45.1-20.2-45.1-45.1,20.2-45.1,45.1-45.1M1920.6,173.2c-27.7,0-50.1,22.4-50.1,50.1s22.4,50.1,50.1,50.1,50.1-22.4,50.1-50.1-22.4-50.1-50.1-50.1h0Z"/>
        </g>
        <g>
          <path class="st1" d="M1920.6,258.5c-19.4,0-35.2-15.8-35.2-35.2s15.8-35.2,35.2-35.2,35.2,15.8,35.2,35.2-15.8,35.2-35.2,35.2Z"/>
          <path d="M1920.6,190.6c18,0,32.7,14.7,32.7,32.7s-14.7,32.7-32.7,32.7-32.7-14.7-32.7-32.7,14.7-32.7,32.7-32.7M1920.6,185.6c-20.8,0-37.7,16.9-37.7,37.7s16.9,37.7,37.7,37.7,37.7-16.9,37.7-37.7-16.9-37.7-37.7-37.7h0Z"/>
        </g>
      </g>
    </g>
    <g>
      <g>
        <g>
          <path class="st1" d="M83.4,345.1c-39.3,0-71.3-32-71.3-71.3s32-71.3,71.3-71.3,71.3,32,71.3,71.3-32,71.3-71.3,71.3Z"/>
          <path d="M83.4,205.1c37.9,0,68.8,30.8,68.8,68.8s-30.8,68.8-68.8,68.8-68.8-30.8-68.8-68.8,30.8-68.8,68.8-68.8M83.4,200.1c-40.7,0-73.8,33-73.8,73.8s33,73.8,73.8,73.8,73.8-33,73.8-73.8-33-73.8-73.8-73.8h0Z"/>
        </g>
        <g>
          <path class="st1" d="M83.4,334.1c-33.2,0-60.2-27-60.2-60.2s27-60.2,60.2-60.2,60.2,27,60.2,60.2-27,60.2-60.2,60.2Z"/>
          <path d="M83.4,216.1c31.8,0,57.7,25.9,57.7,57.7s-25.9,57.7-57.7,57.7-57.7-25.9-57.7-57.7,25.9-57.7,57.7-57.7M83.4,211.1c-34.6,0-62.7,28.1-62.7,62.7s28.1,62.7,62.7,62.7,62.7-28.1,62.7-62.7-28.1-62.7-62.7-62.7h0Z"/>
        </g>
        <g>
          <path class="st1" d="M83.4,321.4c-26.2,0-47.6-21.3-47.6-47.6s21.3-47.6,47.6-47.6,47.6,21.3,47.6,47.6-21.3,47.6-47.6,47.6Z"/>
          <path d="M83.4,228.8c24.9,0,45.1,20.2,45.1,45.1s-20.2,45.1-45.1,45.1-45.1-20.2-45.1-45.1,20.2-45.1,45.1-45.1M83.4,223.8c-27.7,0-50.1,22.4-50.1,50.1s22.4,50.1,50.1,50.1,50.1-22.4,50.1-50.1-22.4-50.1-50.1-50.1h0Z"/>
        </g>
        <g>
          <path class="st1" d="M83.4,309.1c-19.4,0-35.2-15.8-35.2-35.2s15.8-35.2,35.2-35.2,35.2,15.8,35.2,35.2-15.8,35.2-35.2,35.2Z"/>
          <path d="M83.4,241.1c18,0,32.7,14.7,32.7,32.7s-14.7,32.7-32.7,32.7-32.7-14.7-32.7-32.7,14.7-32.7,32.7-32.7M83.4,236.1c-20.8,0-37.7,16.9-37.7,37.7s16.9,37.7,37.7,37.7,37.7-16.9,37.7-37.7-16.9-37.7-37.7-37.7h0Z"/>
        </g>
      </g>
      <g>
        <g>
          <path class="st1" d="M258.1,345.1c-39.3,0-71.3-32-71.3-71.3s32-71.3,71.3-71.3,71.3,32,71.3,71.3-32,71.3-71.3,71.3Z"/>
          <path d="M258.1,205.1c37.9,0,68.8,30.8,68.8,68.8s-30.8,68.8-68.8,68.8-68.8-30.8-68.8-68.8,30.8-68.8,68.8-68.8M258.1,200.1c-40.7,0-73.8,33-73.8,73.8s33,73.8,73.8,73.8,73.8-33,73.8-73.8-33-73.8-73.8-73.8h0Z"/>
        </g>
        <g>
          <path class="st1" d="M258.1,334.1c-33.2,0-60.2-27-60.2-60.2s27-60.2,60.2-60.2,60.2,27,60.2,60.2-27,60.2-60.2,60.2Z"/>
          <path d="M258.1,216.1c31.8,0,57.7,25.9,57.7,57.7s-25.9,57.7-57.7,57.7-57.7-25.9-57.7-57.7,25.9-57.7,57.7-57.7M258.1,211.1c-34.6,0-62.7,28.1-62.7,62.7s28.1,62.7,62.7,62.7,62.7-28.1,62.7-62.7-28.1-62.7-62.7-62.7h0Z"/>
        </g>
        <g>
          <path class="st1" d="M258.1,321.4c-26.2,0-47.6-21.3-47.6-47.6s21.3-47.6,47.6-47.6,47.6,21.3,47.6,47.6-21.3,47.6-47.6,47.6Z"/>
          <path d="M258.1,228.8c24.9,0,45.1,20.2,45.1,45.1s-20.2,45.1-45.1,45.1-45.1-20.2-45.1-45.1,20.2-45.1,45.1-45.1M258.1,223.8c-27.7,0-50.1,22.4-50.1,50.1s22.4,50.1,50.1,50.1,50.1-22.4,50.1-50.1-22.4-50.1-50.1-50.1h0Z"/>
        </g>
        <g>
          <path class="st1" d="M258.1,309.1c-19.4,0-35.2-15.8-35.2-35.2s15.8-35.2,35.2-35.2,35.2,15.8,35.2,35.2-15.8,35.2-35.2,35.2Z"/>
          <path d="M258.1,241.1c18,0,32.7,14.7,32.7,32.7s-14.7,32.7-32.7,32.7-32.7-14.7-32.7-32.7,14.7-32.7,32.7-32.7M258.1,236.1c-20.8,0-37.7,16.9-37.7,37.7s16.9,37.7,37.7,37.7,37.7-16.9,37.7-37.7-16.9-37.7-37.7-37.7h0Z"/>
        </g>
      </g>
      <g>
        <g>
          <path class="st1" d="M432.9,345.1c-39.3,0-71.3-32-71.3-71.3s32-71.3,71.3-71.3,71.3,32,71.3,71.3-32,71.3-71.3,71.3Z"/>
          <path d="M432.9,205.1c37.9,0,68.8,30.8,68.8,68.8s-30.8,68.8-68.8,68.8-68.8-30.8-68.8-68.8,30.8-68.8,68.8-68.8M432.9,200.1c-40.7,0-73.8,33-73.8,73.8s33,73.8,73.8,73.8,73.8-33,73.8-73.8-33-73.8-73.8-73.8h0Z"/>
        </g>
        <g>
          <path class="st1" d="M432.9,334.1c-33.2,0-60.2-27-60.2-60.2s27-60.2,60.2-60.2,60.2,27,60.2,60.2-27,60.2-60.2,60.2Z"/>
          <path d="M432.9,216.1c31.8,0,57.7,25.9,57.7,57.7s-25.9,57.7-57.7,57.7-57.7-25.9-57.7-57.7,25.9-57.7,57.7-57.7M432.9,211.1c-34.6,0-62.7,28.1-62.7,62.7s28.1,62.7,62.7,62.7,62.7-28.1,62.7-62.7-28.1-62.7-62.7-62.7h0Z"/>
        </g>
        <g>
          <path class="st1" d="M432.9,321.4c-26.2,0-47.6-21.3-47.6-47.6s21.3-47.6,47.6-47.6,47.6,21.3,47.6,47.6-21.3,47.6-47.6,47.6Z"/>
          <path d="M432.9,228.8c24.9,0,45.1,20.2,45.1,45.1s-20.2,45.1-45.1,45.1-45.1-20.2-45.1-45.1,20.2-45.1,45.1-45.1M432.9,223.8c-27.7,0-50.1,22.4-50.1,50.1s22.4,50.1,50.1,50.1,50.1-22.4,50.1-50.1-22.4-50.1-50.1-50.1h0Z"/>
        </g>
        <g>
          <path class="st1" d="M432.9,309.1c-19.4,0-35.2-15.8-35.2-35.2s15.8-35.2,35.2-35.2,35.2,15.8,35.2,35.2-15.8,35.2-35.2,35.2Z"/>
          <path d="M432.9,241.1c18,0,32.7,14.7,32.7,32.7s-14.7,32.7-32.7,32.7-32.7-14.7-32.7-32.7,14.7-32.7,32.7-32.7M432.9,236.1c-20.8,0-37.7,16.9-37.7,37.7s16.9,37.7,37.7,37.7,37.7-16.9,37.7-37.7-16.9-37.7-37.7-37.7h0Z"/>
        </g>
      </g>
      <g>
        <g>
          <path class="st1" d="M607.6,345.1c-39.3,0-71.3-32-71.3-71.3s32-71.3,71.3-71.3,71.3,32,71.3,71.3-32,71.3-71.3,71.3Z"/>
          <path d="M607.6,205.1c37.9,0,68.8,30.8,68.8,68.8s-30.8,68.8-68.8,68.8-68.8-30.8-68.8-68.8,30.8-68.8,68.8-68.8M607.6,200.1c-40.7,0-73.8,33-73.8,73.8s33,73.8,73.8,73.8,73.8-33,73.8-73.8-33-73.8-73.8-73.8h0Z"/>
        </g>
        <g>
          <path class="st1" d="M607.6,334.1c-33.2,0-60.2-27-60.2-60.2s27-60.2,60.2-60.2,60.2,27,60.2,60.2-27,60.2-60.2,60.2Z"/>
          <path d="M607.6,216.1c31.8,0,57.7,25.9,57.7,57.7s-25.9,57.7-57.7,57.7-57.7-25.9-57.7-57.7,25.9-57.7,57.7-57.7M607.6,211.1c-34.6,0-62.7,28.1-62.7,62.7s28.1,62.7,62.7,62.7,62.7-28.1,62.7-62.7-28.1-62.7-62.7-62.7h0Z"/>
        </g>
        <g>
          <path class="st1" d="M607.6,321.4c-26.2,0-47.6-21.3-47.6-47.6s21.3-47.6,47.6-47.6,47.6,21.3,47.6,47.6-21.3,47.6-47.6,47.6Z"/>
          <path d="M607.6,228.8c24.9,0,45.1,20.2,45.1,45.1s-20.2,45.1-45.1,45.1-45.1-20.2-45.1-45.1,20.2-45.1,45.1-45.1M607.6,223.8c-27.7,0-50.1,22.4-50.1,50.1s22.4,50.1,50.1,50.1,50.1-22.4,50.1-50.1-22.4-50.1-50.1-50.1h0Z"/>
        </g>
        <g>
          <path class="st1" d="M607.6,309.1c-19.4,0-35.2-15.8-35.2-35.2s15.8-35.2,35.2-35.2,35.2,15.8,35.2,35.2-15.8,35.2-35.2,35.2Z"/>
          <path d="M607.6,241.1c18,0,32.7,14.7,32.7,32.7s-14.7,32.7-32.7,32.7-32.7-14.7-32.7-32.7,14.7-32.7,32.7-32.7M607.6,236.1c-20.8,0-37.7,16.9-37.7,37.7s16.9,37.7,37.7,37.7,37.7-16.9,37.7-37.7-16.9-37.7-37.7-37.7h0Z"/>
        </g>
      </g>
      <g>
        <g>
          <path class="st1" d="M782.3,345.1c-39.3,0-71.3-32-71.3-71.3s32-71.3,71.3-71.3,71.3,32,71.3,71.3-32,71.3-71.3,71.3Z"/>
          <path d="M782.3,205.1c37.9,0,68.8,30.8,68.8,68.8s-30.8,68.8-68.8,68.8-68.8-30.8-68.8-68.8,30.8-68.8,68.8-68.8M782.3,200.1c-40.7,0-73.8,33-73.8,73.8s33,73.8,73.8,73.8,73.8-33,73.8-73.8-33-73.8-73.8-73.8h0Z"/>
        </g>
        <g>
          <path class="st1" d="M782.3,334.1c-33.2,0-60.2-27-60.2-60.2s27-60.2,60.2-60.2,60.2,27,60.2,60.2-27,60.2-60.2,60.2Z"/>
          <path d="M782.3,216.1c31.8,0,57.7,25.9,57.7,57.7s-25.9,57.7-57.7,57.7-57.7-25.9-57.7-57.7,25.9-57.7,57.7-57.7M782.3,211.1c-34.6,0-62.7,28.1-62.7,62.7s28.1,62.7,62.7,62.7,62.7-28.1,62.7-62.7-28.1-62.7-62.7-62.7h0Z"/>
        </g>
        <g>
          <path class="st1" d="M782.3,321.4c-26.2,0-47.6-21.3-47.6-47.6s21.3-47.6,47.6-47.6,47.6,21.3,47.6,47.6-21.3,47.6-47.6,47.6Z"/>
          <path d="M782.3,228.8c24.9,0,45.1,20.2,45.1,45.1s-20.2,45.1-45.1,45.1-45.1-20.2-45.1-45.1,20.2-45.1,45.1-45.1M782.3,223.8c-27.7,0-50.1,22.4-50.1,50.1s22.4,50.1,50.1,50.1,50.1-22.4,50.1-50.1-22.4-50.1-50.1-50.1h0Z"/>
        </g>
        <g>
          <path class="st1" d="M782.3,309.1c-19.4,0-35.2-15.8-35.2-35.2s15.8-35.2,35.2-35.2,35.2,15.8,35.2,35.2-15.8,35.2-35.2,35.2Z"/>
          <path d="M782.3,241.1c18,0,32.7,14.7,32.7,32.7s-14.7,32.7-32.7,32.7-32.7-14.7-32.7-32.7,14.7-32.7,32.7-32.7M782.3,236.1c-20.8,0-37.7,16.9-37.7,37.7s16.9,37.7,37.7,37.7,37.7-16.9,37.7-37.7-16.9-37.7-37.7-37.7h0Z"/>
        </g>
      </g>
      <g>
        <g>
          <path class="st1" d="M957.1,345.1c-39.3,0-71.3-32-71.3-71.3s32-71.3,71.3-71.3,71.3,32,71.3,71.3-32,71.3-71.3,71.3Z"/>
          <path d="M957.1,205.1c37.9,0,68.8,30.8,68.8,68.8s-30.8,68.8-68.8,68.8-68.8-30.8-68.8-68.8,30.8-68.8,68.8-68.8M957.1,200.1c-40.7,0-73.8,33-73.8,73.8s33,73.8,73.8,73.8,73.8-33,73.8-73.8-33-73.8-73.8-73.8h0Z"/>
        </g>
        <g>
          <path class="st1" d="M957.1,334.1c-33.2,0-60.2-27-60.2-60.2s27-60.2,60.2-60.2,60.2,27,60.2,60.2-27,60.2-60.2,60.2Z"/>
          <path d="M957.1,216.1c31.8,0,57.7,25.9,57.7,57.7s-25.9,57.7-57.7,57.7-57.7-25.9-57.7-57.7,25.9-57.7,57.7-57.7M957.1,211.1c-34.6,0-62.7,28.1-62.7,62.7s28.1,62.7,62.7,62.7,62.7-28.1,62.7-62.7-28.1-62.7-62.7-62.7h0Z"/>
        </g>
        <g>
          <path class="st1" d="M957.1,321.4c-26.2,0-47.6-21.3-47.6-47.6s21.3-47.6,47.6-47.6,47.6,21.3,47.6,47.6-21.3,47.6-47.6,47.6Z"/>
          <path d="M957.1,228.8c24.9,0,45.1,20.2,45.1,45.1s-20.2,45.1-45.1,45.1-45.1-20.2-45.1-45.1,20.2-45.1,45.1-45.1M957.1,223.8c-27.7,0-50.1,22.4-50.1,50.1s22.4,50.1,50.1,50.1,50.1-22.4,50.1-50.1-22.4-50.1-50.1-50.1h0Z"/>
        </g>
        <g>
          <path class="st1" d="M957.1,309.1c-19.4,0-35.2-15.8-35.2-35.2s15.8-35.2,35.2-35.2,35.2,15.8,35.2,35.2-15.8,35.2-35.2,35.2Z"/>
          <path d="M957.1,241.1c18,0,32.7,14.7,32.7,32.7s-14.7,32.7-32.7,32.7-32.7-14.7-32.7-32.7,14.7-32.7,32.7-32.7M957.1,236.1c-20.8,0-37.7,16.9-37.7,37.7s16.9,37.7,37.7,37.7,37.7-16.9,37.7-37.7-16.9-37.7-37.7-37.7h0Z"/>
        </g>
      </g>
      <g>
        <g>
          <path class="st1" d="M1131.8,345.1c-39.3,0-71.3-32-71.3-71.3s32-71.3,71.3-71.3,71.3,32,71.3,71.3-32,71.3-71.3,71.3Z"/>
          <path d="M1131.8,205.1c37.9,0,68.8,30.8,68.8,68.8s-30.8,68.8-68.8,68.8-68.8-30.8-68.8-68.8,30.8-68.8,68.8-68.8M1131.8,200.1c-40.7,0-73.8,33-73.8,73.8s33,73.8,73.8,73.8,73.8-33,73.8-73.8-33-73.8-73.8-73.8h0Z"/>
        </g>
        <g>
          <path class="st1" d="M1131.8,334.1c-33.2,0-60.2-27-60.2-60.2s27-60.2,60.2-60.2,60.2,27,60.2,60.2-27,60.2-60.2,60.2Z"/>
          <path d="M1131.8,216.1c31.8,0,57.7,25.9,57.7,57.7s-25.9,57.7-57.7,57.7-57.7-25.9-57.7-57.7,25.9-57.7,57.7-57.7M1131.8,211.1c-34.6,0-62.7,28.1-62.7,62.7s28.1,62.7,62.7,62.7,62.7-28.1,62.7-62.7-28.1-62.7-62.7-62.7h0Z"/>
        </g>
        <g>
          <path class="st1" d="M1131.8,321.4c-26.2,0-47.6-21.3-47.6-47.6s21.3-47.6,47.6-47.6,47.6,21.3,47.6,47.6-21.3,47.6-47.6,47.6Z"/>
          <path d="M1131.8,228.8c24.9,0,45.1,20.2,45.1,45.1s-20.2,45.1-45.1,45.1-45.1-20.2-45.1-45.1,20.2-45.1,45.1-45.1M1131.8,223.8c-27.7,0-50.1,22.4-50.1,50.1s22.4,50.1,50.1,50.1,50.1-22.4,50.1-50.1-22.4-50.1-50.1-50.1h0Z"/>
        </g>
        <g>
          <path class="st1" d="M1131.8,309.1c-19.4,0-35.2-15.8-35.2-35.2s15.8-35.2,35.2-35.2,35.2,15.8,35.2,35.2-15.8,35.2-35.2,35.2Z"/>
          <path d="M1131.8,241.1c18,0,32.7,14.7,32.7,32.7s-14.7,32.7-32.7,32.7-32.7-14.7-32.7-32.7,14.7-32.7,32.7-32.7M1131.8,236.1c-20.8,0-37.7,16.9-37.7,37.7s16.9,37.7,37.7,37.7,37.7-16.9,37.7-37.7-16.9-37.7-37.7-37.7h0Z"/>
        </g>
      </g>
      <g>
        <g>
          <path class="st1" d="M1306.6,345.1c-39.3,0-71.3-32-71.3-71.3s32-71.3,71.3-71.3,71.3,32,71.3,71.3-32,71.3-71.3,71.3Z"/>
          <path d="M1306.6,205.1c37.9,0,68.8,30.8,68.8,68.8s-30.8,68.8-68.8,68.8-68.8-30.8-68.8-68.8,30.8-68.8,68.8-68.8M1306.6,200.1c-40.7,0-73.8,33-73.8,73.8s33,73.8,73.8,73.8,73.8-33,73.8-73.8-33-73.8-73.8-73.8h0Z"/>
        </g>
        <g>
          <path class="st1" d="M1306.6,334.1c-33.2,0-60.2-27-60.2-60.2s27-60.2,60.2-60.2,60.2,27,60.2,60.2-27,60.2-60.2,60.2Z"/>
          <path d="M1306.6,216.1c31.8,0,57.7,25.9,57.7,57.7s-25.9,57.7-57.7,57.7-57.7-25.9-57.7-57.7,25.9-57.7,57.7-57.7M1306.6,211.1c-34.6,0-62.7,28.1-62.7,62.7s28.1,62.7,62.7,62.7,62.7-28.1,62.7-62.7-28.1-62.7-62.7-62.7h0Z"/>
        </g>
        <g>
          <path class="st1" d="M1306.6,321.4c-26.2,0-47.6-21.3-47.6-47.6s21.3-47.6,47.6-47.6,47.6,21.3,47.6,47.6-21.3,47.6-47.6,47.6Z"/>
          <path d="M1306.6,228.8c24.9,0,45.1,20.2,45.1,45.1s-20.2,45.1-45.1,45.1-45.1-20.2-45.1-45.1,20.2-45.1,45.1-45.1M1306.6,223.8c-27.7,0-50.1,22.4-50.1,50.1s22.4,50.1,50.1,50.1,50.1-22.4,50.1-50.1-22.4-50.1-50.1-50.1h0Z"/>
        </g>
        <g>
          <path class="st1" d="M1306.6,309.1c-19.4,0-35.2-15.8-35.2-35.2s15.8-35.2,35.2-35.2,35.2,15.8,35.2,35.2-15.8,35.2-35.2,35.2Z"/>
          <path d="M1306.6,241.1c18,0,32.7,14.7,32.7,32.7s-14.7,32.7-32.7,32.7-32.7-14.7-32.7-32.7,14.7-32.7,32.7-32.7M1306.6,236.1c-20.8,0-37.7,16.9-37.7,37.7s16.9,37.7,37.7,37.7,37.7-16.9,37.7-37.7-16.9-37.7-37.7-37.7h0Z"/>
        </g>
      </g>
      <g>
        <g>
          <path class="st1" d="M1481.3,345.1c-39.3,0-71.3-32-71.3-71.3s32-71.3,71.3-71.3,71.3,32,71.3,71.3-32,71.3-71.3,71.3Z"/>
          <path d="M1481.3,205.1c37.9,0,68.8,30.8,68.8,68.8s-30.8,68.8-68.8,68.8-68.8-30.8-68.8-68.8,30.8-68.8,68.8-68.8M1481.3,200.1c-40.7,0-73.8,33-73.8,73.8s33,73.8,73.8,73.8,73.8-33,73.8-73.8-33-73.8-73.8-73.8h0Z"/>
        </g>
        <g>
          <path class="st1" d="M1481.3,334.1c-33.2,0-60.2-27-60.2-60.2s27-60.2,60.2-60.2,60.2,27,60.2,60.2-27,60.2-60.2,60.2Z"/>
          <path d="M1481.3,216.1c31.8,0,57.7,25.9,57.7,57.7s-25.9,57.7-57.7,57.7-57.7-25.9-57.7-57.7,25.9-57.7,57.7-57.7M1481.3,211.1c-34.6,0-62.7,28.1-62.7,62.7s28.1,62.7,62.7,62.7,62.7-28.1,62.7-62.7-28.1-62.7-62.7-62.7h0Z"/>
        </g>
        <g>
          <path class="st1" d="M1481.3,321.4c-26.2,0-47.6-21.3-47.6-47.6s21.3-47.6,47.6-47.6,47.6,21.3,47.6,47.6-21.3,47.6-47.6,47.6Z"/>
          <path d="M1481.3,228.8c24.9,0,45.1,20.2,45.1,45.1s-20.2,45.1-45.1,45.1-45.1-20.2-45.1-45.1,20.2-45.1,45.1-45.1M1481.3,223.8c-27.7,0-50.1,22.4-50.1,50.1s22.4,50.1,50.1,50.1,50.1-22.4,50.1-50.1-22.4-50.1-50.1-50.1h0Z"/>
        </g>
        <g>
          <path class="st1" d="M1481.3,309.1c-19.4,0-35.2-15.8-35.2-35.2s15.8-35.2,35.2-35.2,35.2,15.8,35.2,35.2-15.8,35.2-35.2,35.2Z"/>
          <path d="M1481.3,241.1c18,0,32.7,14.7,32.7,32.7s-14.7,32.7-32.7,32.7-32.7-14.7-32.7-32.7,14.7-32.7,32.7-32.7M1481.3,236.1c-20.8,0-37.7,16.9-37.7,37.7s16.9,37.7,37.7,37.7,37.7-16.9,37.7-37.7-16.9-37.7-37.7-37.7h0Z"/>
        </g>
      </g>
      <g>
        <g>
          <path class="st1" d="M1656.1,345.1c-39.3,0-71.3-32-71.3-71.3s32-71.3,71.3-71.3,71.3,32,71.3,71.3-32,71.3-71.3,71.3Z"/>
          <path d="M1656.1,205.1c37.9,0,68.8,30.8,68.8,68.8s-30.8,68.8-68.8,68.8-68.8-30.8-68.8-68.8,30.8-68.8,68.8-68.8M1656.1,200.1c-40.7,0-73.8,33-73.8,73.8s33,73.8,73.8,73.8,73.8-33,73.8-73.8-33-73.8-73.8-73.8h0Z"/>
        </g>
        <g>
          <path class="st1" d="M1656.1,334.1c-33.2,0-60.2-27-60.2-60.2s27-60.2,60.2-60.2,60.2,27,60.2,60.2-27,60.2-60.2,60.2Z"/>
          <path d="M1656.1,216.1c31.8,0,57.7,25.9,57.7,57.7s-25.9,57.7-57.7,57.7-57.7-25.9-57.7-57.7,25.9-57.7,57.7-57.7M1656.1,211.1c-34.6,0-62.7,28.1-62.7,62.7s28.1,62.7,62.7,62.7,62.7-28.1,62.7-62.7-28.1-62.7-62.7-62.7h0Z"/>
        </g>
        <g>
          <path class="st1" d="M1656.1,321.4c-26.2,0-47.6-21.3-47.6-47.6s21.3-47.6,47.6-47.6,47.6,21.3,47.6,47.6-21.3,47.6-47.6,47.6Z"/>
          <path d="M1656.1,228.8c24.9,0,45.1,20.2,45.1,45.1s-20.2,45.1-45.1,45.1-45.1-20.2-45.1-45.1,20.2-45.1,45.1-45.1M1656.1,223.8c-27.7,0-50.1,22.4-50.1,50.1s22.4,50.1,50.1,50.1,50.1-22.4,50.1-50.1-22.4-50.1-50.1-50.1h0Z"/>
        </g>
        <g>
          <path class="st1" d="M1656.1,309.1c-19.4,0-35.2-15.8-35.2-35.2s15.8-35.2,35.2-35.2,35.2,15.8,35.2,35.2-15.8,35.2-35.2,35.2Z"/>
          <path d="M1656.1,241.1c18,0,32.7,14.7,32.7,32.7s-14.7,32.7-32.7,32.7-32.7-14.7-32.7-32.7,14.7-32.7,32.7-32.7M1656.1,236.1c-20.8,0-37.7,16.9-37.7,37.7s16.9,37.7,37.7,37.7,37.7-16.9,37.7-37.7-16.9-37.7-37.7-37.7h0Z"/>
        </g>
      </g>
      <g>
        <g>
          <path class="st1" d="M1830.8,345.1c-39.3,0-71.3-32-71.3-71.3s32-71.3,71.3-71.3,71.3,32,71.3,71.3-32,71.3-71.3,71.3Z"/>
          <path d="M1830.8,205.1c37.9,0,68.8,30.8,68.8,68.8s-30.8,68.8-68.8,68.8-68.8-30.8-68.8-68.8,30.8-68.8,68.8-68.8M1830.8,200.1c-40.7,0-73.8,33-73.8,73.8s33,73.8,73.8,73.8,73.8-33,73.8-73.8-33-73.8-73.8-73.8h0Z"/>
        </g>
        <g>
          <path class="st1" d="M1830.8,334.1c-33.2,0-60.2-27-60.2-60.2s27-60.2,60.2-60.2,60.2,27,60.2,60.2-27,60.2-60.2,60.2Z"/>
          <path d="M1830.8,216.1c31.8,0,57.7,25.9,57.7,57.7s-25.9,57.7-57.7,57.7-57.7-25.9-57.7-57.7,25.9-57.7,57.7-57.7M1830.8,211.1c-34.6,0-62.7,28.1-62.7,62.7s28.1,62.7,62.7,62.7,62.7-28.1,62.7-62.7-28.1-62.7-62.7-62.7h0Z"/>
        </g>
        <g>
          <path class="st1" d="M1830.8,321.4c-26.2,0-47.6-21.3-47.6-47.6s21.3-47.6,47.6-47.6,47.6,21.3,47.6,47.6-21.3,47.6-47.6,47.6Z"/>
          <path d="M1830.8,228.8c24.9,0,45.1,20.2,45.1,45.1s-20.2,45.1-45.1,45.1-45.1-20.2-45.1-45.1,20.2-45.1,45.1-45.1M1830.8,223.8c-27.7,0-50.1,22.4-50.1,50.1s22.4,50.1,50.1,50.1,50.1-22.4,50.1-50.1-22.4-50.1-50.1-50.1h0Z"/>
        </g>
        <g>
          <path class="st1" d="M1830.8,309.1c-19.4,0-35.2-15.8-35.2-35.2s15.8-35.2,35.2-35.2,35.2,15.8,35.2,35.2-15.8,35.2-35.2,35.2Z"/>
          <path d="M1830.8,241.1c18,0,32.7,14.7,32.7,32.7s-14.7,32.7-32.7,32.7-32.7-14.7-32.7-32.7,14.7-32.7,32.7-32.7M1830.8,236.1c-20.8,0-37.7,16.9-37.7,37.7s16.9,37.7,37.7,37.7,37.7-16.9,37.7-37.7-16.9-37.7-37.7-37.7h0Z"/>
        </g>
      </g>
      <g>
        <g>
          <path class="st1" d="M2005.5,345.1c-39.3,0-71.3-32-71.3-71.3s32-71.3,71.3-71.3,71.3,32,71.3,71.3-32,71.3-71.3,71.3Z"/>
          <path d="M2005.5,205.1c37.9,0,68.8,30.8,68.8,68.8s-30.8,68.8-68.8,68.8-68.8-30.8-68.8-68.8,30.8-68.8,68.8-68.8M2005.5,200.1c-40.7,0-73.8,33-73.8,73.8s33,73.8,73.8,73.8,73.8-33,73.8-73.8-33-73.8-73.8-73.8h0Z"/>
        </g>
        <g>
          <path class="st1" d="M2005.5,334.1c-33.2,0-60.2-27-60.2-60.2s27-60.2,60.2-60.2,60.2,27,60.2,60.2-27,60.2-60.2,60.2Z"/>
          <path d="M2005.5,216.1c31.8,0,57.7,25.9,57.7,57.7s-25.9,57.7-57.7,57.7-57.7-25.9-57.7-57.7,25.9-57.7,57.7-57.7M2005.5,211.1c-34.6,0-62.7,28.1-62.7,62.7s28.1,62.7,62.7,62.7,62.7-28.1,62.7-62.7-28.1-62.7-62.7-62.7h0Z"/>
        </g>
        <g>
          <path class="st1" d="M2005.5,321.4c-26.2,0-47.6-21.3-47.6-47.6s21.3-47.6,47.6-47.6,47.6,21.3,47.6,47.6-21.3,47.6-47.6,47.6Z"/>
          <path d="M2005.5,228.8c24.9,0,45.1,20.2,45.1,45.1s-20.2,45.1-45.1,45.1-45.1-20.2-45.1-45.1,20.2-45.1,45.1-45.1M2005.5,223.8c-27.7,0-50.1,22.4-50.1,50.1s22.4,50.1,50.1,50.1,50.1-22.4,50.1-50.1-22.4-50.1-50.1-50.1h0Z"/>
        </g>
        <g>
          <path class="st1" d="M2005.5,309.1c-19.4,0-35.2-15.8-35.2-35.2s15.8-35.2,35.2-35.2,35.2,15.8,35.2,35.2-15.8,35.2-35.2,35.2Z"/>
          <path d="M2005.5,241.1c18,0,32.7,14.7,32.7,32.7s-14.7,32.7-32.7,32.7-32.7-14.7-32.7-32.7,14.7-32.7,32.7-32.7M2005.5,236.1c-20.8,0-37.7,16.9-37.7,37.7s16.9,37.7,37.7,37.7,37.7-16.9,37.7-37.7-16.9-37.7-37.7-37.7h0Z"/>
        </g>
      </g>
    </g>
    <g>
      <g>
        <g>
          <path class="st1" d="M-1.6,382.5c-39.3,0-71.3-32-71.3-71.3S-40.9,240-1.6,240s71.3,32,71.3,71.3S37.7,382.5-1.6,382.5Z"/>
          <path d="M-1.6,242.5c37.9,0,68.8,30.8,68.8,68.8S36.3,380-1.6,380s-68.8-30.8-68.8-68.8S-39.5,242.5-1.6,242.5M-1.6,237.5c-40.7,0-73.8,33-73.8,73.8S-42.3,385-1.6,385s73.8-33,73.8-73.8S39.1,237.5-1.6,237.5h0Z"/>
        </g>
        <g>
          <path class="st1" d="M-1.6,371.5c-33.2,0-60.2-27-60.2-60.2s27-60.2,60.2-60.2,60.2,27,60.2,60.2-27,60.2-60.2,60.2Z"/>
          <path d="M-1.6,253.6c31.8,0,57.7,25.9,57.7,57.7s-25.9,57.7-57.7,57.7-57.7-25.9-57.7-57.7,25.9-57.7,57.7-57.7M-1.6,248.6c-34.6,0-62.7,28.1-62.7,62.7s28.1,62.7,62.7,62.7,62.7-28.1,62.7-62.7-28.1-62.7-62.7-62.7h0Z"/>
        </g>
        <g>
          <path class="st1" d="M-1.6,358.8c-26.2,0-47.6-21.3-47.6-47.6s21.3-47.6,47.6-47.6,47.6,21.3,47.6,47.6-21.3,47.6-47.6,47.6Z"/>
          <path d="M-1.6,266.2c24.9,0,45.1,20.2,45.1,45.1s-20.2,45.1-45.1,45.1-45.1-20.2-45.1-45.1,20.2-45.1,45.1-45.1M-1.6,261.2c-27.7,0-50.1,22.4-50.1,50.1s22.4,50.1,50.1,50.1,50.1-22.4,50.1-50.1-22.4-50.1-50.1-50.1h0Z"/>
        </g>
        <g>
          <path class="st1" d="M-1.6,346.5c-19.4,0-35.2-15.8-35.2-35.2s15.8-35.2,35.2-35.2,35.2,15.8,35.2,35.2-15.8,35.2-35.2,35.2Z"/>
          <path d="M-1.6,278.6c18,0,32.7,14.7,32.7,32.7s-14.7,32.7-32.7,32.7-32.7-14.7-32.7-32.7,14.7-32.7,32.7-32.7M-1.6,273.6c-20.8,0-37.7,16.9-37.7,37.7s16.9,37.7,37.7,37.7,37.7-16.9,37.7-37.7-16.9-37.7-37.7-37.7h0Z"/>
        </g>
      </g>
      <g>
        <g>
          <path class="st1" d="M173.1,382.5c-39.3,0-71.3-32-71.3-71.3s32-71.3,71.3-71.3,71.3,32,71.3,71.3-32,71.3-71.3,71.3Z"/>
          <path d="M173.1,242.5c37.9,0,68.8,30.8,68.8,68.8s-30.8,68.8-68.8,68.8-68.8-30.8-68.8-68.8,30.8-68.8,68.8-68.8M173.1,237.5c-40.7,0-73.8,33-73.8,73.8s33,73.8,73.8,73.8,73.8-33,73.8-73.8-33-73.8-73.8-73.8h0Z"/>
        </g>
        <g>
          <path class="st1" d="M173.1,371.5c-33.2,0-60.2-27-60.2-60.2s27-60.2,60.2-60.2,60.2,27,60.2,60.2-27,60.2-60.2,60.2Z"/>
          <path d="M173.1,253.6c31.8,0,57.7,25.9,57.7,57.7s-25.9,57.7-57.7,57.7-57.7-25.9-57.7-57.7,25.9-57.7,57.7-57.7M173.1,248.6c-34.6,0-62.7,28.1-62.7,62.7s28.1,62.7,62.7,62.7,62.7-28.1,62.7-62.7-28.1-62.7-62.7-62.7h0Z"/>
        </g>
        <g>
          <path class="st1" d="M173.1,358.8c-26.2,0-47.6-21.3-47.6-47.6s21.3-47.6,47.6-47.6,47.6,21.3,47.6,47.6-21.3,47.6-47.6,47.6Z"/>
          <path d="M173.1,266.2c24.9,0,45.1,20.2,45.1,45.1s-20.2,45.1-45.1,45.1-45.1-20.2-45.1-45.1,20.2-45.1,45.1-45.1M173.1,261.2c-27.7,0-50.1,22.4-50.1,50.1s22.4,50.1,50.1,50.1,50.1-22.4,50.1-50.1-22.4-50.1-50.1-50.1h0Z"/>
        </g>
        <g>
          <path class="st1" d="M173.1,346.5c-19.4,0-35.2-15.8-35.2-35.2s15.8-35.2,35.2-35.2,35.2,15.8,35.2,35.2-15.8,35.2-35.2,35.2Z"/>
          <path d="M173.1,278.6c18,0,32.7,14.7,32.7,32.7s-14.7,32.7-32.7,32.7-32.7-14.7-32.7-32.7,14.7-32.7,32.7-32.7M173.1,273.6c-20.8,0-37.7,16.9-37.7,37.7s16.9,37.7,37.7,37.7,37.7-16.9,37.7-37.7-16.9-37.7-37.7-37.7h0Z"/>
        </g>
      </g>
      <g>
        <g>
          <path class="st1" d="M347.9,382.5c-39.3,0-71.3-32-71.3-71.3s32-71.3,71.3-71.3,71.3,32,71.3,71.3-32,71.3-71.3,71.3Z"/>
          <path d="M347.9,242.5c37.9,0,68.8,30.8,68.8,68.8s-30.8,68.8-68.8,68.8-68.8-30.8-68.8-68.8,30.8-68.8,68.8-68.8M347.9,237.5c-40.7,0-73.8,33-73.8,73.8s33,73.8,73.8,73.8,73.8-33,73.8-73.8-33-73.8-73.8-73.8h0Z"/>
        </g>
        <g>
          <path class="st1" d="M347.9,371.5c-33.2,0-60.2-27-60.2-60.2s27-60.2,60.2-60.2,60.2,27,60.2,60.2-27,60.2-60.2,60.2Z"/>
          <path d="M347.9,253.6c31.8,0,57.7,25.9,57.7,57.7s-25.9,57.7-57.7,57.7-57.7-25.9-57.7-57.7,25.9-57.7,57.7-57.7M347.9,248.6c-34.6,0-62.7,28.1-62.7,62.7s28.1,62.7,62.7,62.7,62.7-28.1,62.7-62.7-28.1-62.7-62.7-62.7h0Z"/>
        </g>
        <g>
          <path class="st1" d="M347.9,358.8c-26.2,0-47.6-21.3-47.6-47.6s21.3-47.6,47.6-47.6,47.6,21.3,47.6,47.6-21.3,47.6-47.6,47.6Z"/>
          <path d="M347.9,266.2c24.9,0,45.1,20.2,45.1,45.1s-20.2,45.1-45.1,45.1-45.1-20.2-45.1-45.1,20.2-45.1,45.1-45.1M347.9,261.2c-27.7,0-50.1,22.4-50.1,50.1s22.4,50.1,50.1,50.1,50.1-22.4,50.1-50.1-22.4-50.1-50.1-50.1h0Z"/>
        </g>
        <g>
          <path class="st1" d="M347.9,346.5c-19.4,0-35.2-15.8-35.2-35.2s15.8-35.2,35.2-35.2,35.2,15.8,35.2,35.2-15.8,35.2-35.2,35.2Z"/>
          <path d="M347.9,278.6c18,0,32.7,14.7,32.7,32.7s-14.7,32.7-32.7,32.7-32.7-14.7-32.7-32.7,14.7-32.7,32.7-32.7M347.9,273.6c-20.8,0-37.7,16.9-37.7,37.7s16.9,37.7,37.7,37.7,37.7-16.9,37.7-37.7-16.9-37.7-37.7-37.7h0Z"/>
        </g>
      </g>
      <g>
        <g>
          <path class="st1" d="M522.6,382.5c-39.3,0-71.3-32-71.3-71.3s32-71.3,71.3-71.3,71.3,32,71.3,71.3-32,71.3-71.3,71.3Z"/>
          <path d="M522.6,242.5c37.9,0,68.8,30.8,68.8,68.8s-30.8,68.8-68.8,68.8-68.8-30.8-68.8-68.8,30.8-68.8,68.8-68.8M522.6,237.5c-40.7,0-73.8,33-73.8,73.8s33,73.8,73.8,73.8,73.8-33,73.8-73.8-33-73.8-73.8-73.8h0Z"/>
        </g>
        <g>
          <path class="st1" d="M522.6,371.5c-33.2,0-60.2-27-60.2-60.2s27-60.2,60.2-60.2,60.2,27,60.2,60.2-27,60.2-60.2,60.2Z"/>
          <path d="M522.6,253.6c31.8,0,57.7,25.9,57.7,57.7s-25.9,57.7-57.7,57.7-57.7-25.9-57.7-57.7,25.9-57.7,57.7-57.7M522.6,248.6c-34.6,0-62.7,28.1-62.7,62.7s28.1,62.7,62.7,62.7,62.7-28.1,62.7-62.7-28.1-62.7-62.7-62.7h0Z"/>
        </g>
        <g>
          <path class="st1" d="M522.6,358.8c-26.2,0-47.6-21.3-47.6-47.6s21.3-47.6,47.6-47.6,47.6,21.3,47.6,47.6-21.3,47.6-47.6,47.6Z"/>
          <path d="M522.6,266.2c24.9,0,45.1,20.2,45.1,45.1s-20.2,45.1-45.1,45.1-45.1-20.2-45.1-45.1,20.2-45.1,45.1-45.1M522.6,261.2c-27.7,0-50.1,22.4-50.1,50.1s22.4,50.1,50.1,50.1,50.1-22.4,50.1-50.1-22.4-50.1-50.1-50.1h0Z"/>
        </g>
        <g>
          <path class="st1" d="M522.6,346.5c-19.4,0-35.2-15.8-35.2-35.2s15.8-35.2,35.2-35.2,35.2,15.8,35.2,35.2-15.8,35.2-35.2,35.2Z"/>
          <path d="M522.6,278.6c18,0,32.7,14.7,32.7,32.7s-14.7,32.7-32.7,32.7-32.7-14.7-32.7-32.7,14.7-32.7,32.7-32.7M522.6,273.6c-20.8,0-37.7,16.9-37.7,37.7s16.9,37.7,37.7,37.7,37.7-16.9,37.7-37.7-16.9-37.7-37.7-37.7h0Z"/>
        </g>
      </g>
      <g>
        <g>
          <path class="st1" d="M697.4,382.5c-39.3,0-71.3-32-71.3-71.3s32-71.3,71.3-71.3,71.3,32,71.3,71.3-32,71.3-71.3,71.3Z"/>
          <path d="M697.4,242.5c37.9,0,68.8,30.8,68.8,68.8s-30.8,68.8-68.8,68.8-68.8-30.8-68.8-68.8,30.8-68.8,68.8-68.8M697.4,237.5c-40.7,0-73.8,33-73.8,73.8s33,73.8,73.8,73.8,73.8-33,73.8-73.8-33-73.8-73.8-73.8h0Z"/>
        </g>
        <g>
          <path class="st1" d="M697.4,371.5c-33.2,0-60.2-27-60.2-60.2s27-60.2,60.2-60.2,60.2,27,60.2,60.2-27,60.2-60.2,60.2Z"/>
          <path d="M697.4,253.6c31.8,0,57.7,25.9,57.7,57.7s-25.9,57.7-57.7,57.7-57.7-25.9-57.7-57.7,25.9-57.7,57.7-57.7M697.4,248.6c-34.6,0-62.7,28.1-62.7,62.7s28.1,62.7,62.7,62.7,62.7-28.1,62.7-62.7-28.1-62.7-62.7-62.7h0Z"/>
        </g>
        <g>
          <path class="st1" d="M697.4,358.8c-26.2,0-47.6-21.3-47.6-47.6s21.3-47.6,47.6-47.6,47.6,21.3,47.6,47.6-21.3,47.6-47.6,47.6Z"/>
          <path d="M697.4,266.2c24.9,0,45.1,20.2,45.1,45.1s-20.2,45.1-45.1,45.1-45.1-20.2-45.1-45.1,20.2-45.1,45.1-45.1M697.4,261.2c-27.7,0-50.1,22.4-50.1,50.1s22.4,50.1,50.1,50.1,50.1-22.4,50.1-50.1-22.4-50.1-50.1-50.1h0Z"/>
        </g>
        <g>
          <path class="st1" d="M697.4,346.5c-19.4,0-35.2-15.8-35.2-35.2s15.8-35.2,35.2-35.2,35.2,15.8,35.2,35.2-15.8,35.2-35.2,35.2Z"/>
          <path d="M697.4,278.6c18,0,32.7,14.7,32.7,32.7s-14.7,32.7-32.7,32.7-32.7-14.7-32.7-32.7,14.7-32.7,32.7-32.7M697.4,273.6c-20.8,0-37.7,16.9-37.7,37.7s16.9,37.7,37.7,37.7,37.7-16.9,37.7-37.7-16.9-37.7-37.7-37.7h0Z"/>
        </g>
      </g>
      <g>
        <g>
          <path class="st1" d="M872.1,382.5c-39.3,0-71.3-32-71.3-71.3s32-71.3,71.3-71.3,71.3,32,71.3,71.3-32,71.3-71.3,71.3Z"/>
          <path d="M872.1,242.5c37.9,0,68.8,30.8,68.8,68.8s-30.8,68.8-68.8,68.8-68.8-30.8-68.8-68.8,30.8-68.8,68.8-68.8M872.1,237.5c-40.7,0-73.8,33-73.8,73.8s33,73.8,73.8,73.8,73.8-33,73.8-73.8-33-73.8-73.8-73.8h0Z"/>
        </g>
        <g>
          <path class="st1" d="M872.1,371.5c-33.2,0-60.2-27-60.2-60.2s27-60.2,60.2-60.2,60.2,27,60.2,60.2-27,60.2-60.2,60.2Z"/>
          <path d="M872.1,253.6c31.8,0,57.7,25.9,57.7,57.7s-25.9,57.7-57.7,57.7-57.7-25.9-57.7-57.7,25.9-57.7,57.7-57.7M872.1,248.6c-34.6,0-62.7,28.1-62.7,62.7s28.1,62.7,62.7,62.7,62.7-28.1,62.7-62.7-28.1-62.7-62.7-62.7h0Z"/>
        </g>
        <g>
          <path class="st1" d="M872.1,358.8c-26.2,0-47.6-21.3-47.6-47.6s21.3-47.6,47.6-47.6,47.6,21.3,47.6,47.6-21.3,47.6-47.6,47.6Z"/>
          <path d="M872.1,266.2c24.9,0,45.1,20.2,45.1,45.1s-20.2,45.1-45.1,45.1-45.1-20.2-45.1-45.1,20.2-45.1,45.1-45.1M872.1,261.2c-27.7,0-50.1,22.4-50.1,50.1s22.4,50.1,50.1,50.1,50.1-22.4,50.1-50.1-22.4-50.1-50.1-50.1h0Z"/>
        </g>
        <g>
          <path class="st1" d="M872.1,346.5c-19.4,0-35.2-15.8-35.2-35.2s15.8-35.2,35.2-35.2,35.2,15.8,35.2,35.2-15.8,35.2-35.2,35.2Z"/>
          <path d="M872.1,278.6c18,0,32.7,14.7,32.7,32.7s-14.7,32.7-32.7,32.7-32.7-14.7-32.7-32.7,14.7-32.7,32.7-32.7M872.1,273.6c-20.8,0-37.7,16.9-37.7,37.7s16.9,37.7,37.7,37.7,37.7-16.9,37.7-37.7-16.9-37.7-37.7-37.7h0Z"/>
        </g>
      </g>
      <g>
        <g>
          <path class="st1" d="M1046.9,382.5c-39.3,0-71.3-32-71.3-71.3s32-71.3,71.3-71.3,71.3,32,71.3,71.3-32,71.3-71.3,71.3Z"/>
          <path d="M1046.9,242.5c37.9,0,68.8,30.8,68.8,68.8s-30.8,68.8-68.8,68.8-68.8-30.8-68.8-68.8,30.8-68.8,68.8-68.8M1046.9,237.5c-40.7,0-73.8,33-73.8,73.8s33,73.8,73.8,73.8,73.8-33,73.8-73.8-33-73.8-73.8-73.8h0Z"/>
        </g>
        <g>
          <path class="st1" d="M1046.9,371.5c-33.2,0-60.2-27-60.2-60.2s27-60.2,60.2-60.2,60.2,27,60.2,60.2-27,60.2-60.2,60.2Z"/>
          <path d="M1046.9,253.6c31.8,0,57.7,25.9,57.7,57.7s-25.9,57.7-57.7,57.7-57.7-25.9-57.7-57.7,25.9-57.7,57.7-57.7M1046.9,248.6c-34.6,0-62.7,28.1-62.7,62.7s28.1,62.7,62.7,62.7,62.7-28.1,62.7-62.7-28.1-62.7-62.7-62.7h0Z"/>
        </g>
        <g>
          <path class="st1" d="M1046.9,358.8c-26.2,0-47.6-21.3-47.6-47.6s21.3-47.6,47.6-47.6,47.6,21.3,47.6,47.6-21.3,47.6-47.6,47.6Z"/>
          <path d="M1046.9,266.2c24.9,0,45.1,20.2,45.1,45.1s-20.2,45.1-45.1,45.1-45.1-20.2-45.1-45.1,20.2-45.1,45.1-45.1M1046.9,261.2c-27.7,0-50.1,22.4-50.1,50.1s22.4,50.1,50.1,50.1,50.1-22.4,50.1-50.1-22.4-50.1-50.1-50.1h0Z"/>
        </g>
        <g>
          <path class="st1" d="M1046.9,346.5c-19.4,0-35.2-15.8-35.2-35.2s15.8-35.2,35.2-35.2,35.2,15.8,35.2,35.2-15.8,35.2-35.2,35.2Z"/>
          <path d="M1046.9,278.6c18,0,32.7,14.7,32.7,32.7s-14.7,32.7-32.7,32.7-32.7-14.7-32.7-32.7,14.7-32.7,32.7-32.7M1046.9,273.6c-20.8,0-37.7,16.9-37.7,37.7s16.9,37.7,37.7,37.7,37.7-16.9,37.7-37.7-16.9-37.7-37.7-37.7h0Z"/>
        </g>
      </g>
      <g>
        <g>
          <path class="st1" d="M1221.6,382.5c-39.3,0-71.3-32-71.3-71.3s32-71.3,71.3-71.3,71.3,32,71.3,71.3-32,71.3-71.3,71.3Z"/>
          <path d="M1221.6,242.5c37.9,0,68.8,30.8,68.8,68.8s-30.8,68.8-68.8,68.8-68.8-30.8-68.8-68.8,30.8-68.8,68.8-68.8M1221.6,237.5c-40.7,0-73.8,33-73.8,73.8s33,73.8,73.8,73.8,73.8-33,73.8-73.8-33-73.8-73.8-73.8h0Z"/>
        </g>
        <g>
          <path class="st1" d="M1221.6,371.5c-33.2,0-60.2-27-60.2-60.2s27-60.2,60.2-60.2,60.2,27,60.2,60.2-27,60.2-60.2,60.2Z"/>
          <path d="M1221.6,253.6c31.8,0,57.7,25.9,57.7,57.7s-25.9,57.7-57.7,57.7-57.7-25.9-57.7-57.7,25.9-57.7,57.7-57.7M1221.6,248.6c-34.6,0-62.7,28.1-62.7,62.7s28.1,62.7,62.7,62.7,62.7-28.1,62.7-62.7-28.1-62.7-62.7-62.7h0Z"/>
        </g>
        <g>
          <path class="st1" d="M1221.6,358.8c-26.2,0-47.6-21.3-47.6-47.6s21.3-47.6,47.6-47.6,47.6,21.3,47.6,47.6-21.3,47.6-47.6,47.6Z"/>
          <path d="M1221.6,266.2c24.9,0,45.1,20.2,45.1,45.1s-20.2,45.1-45.1,45.1-45.1-20.2-45.1-45.1,20.2-45.1,45.1-45.1M1221.6,261.2c-27.7,0-50.1,22.4-50.1,50.1s22.4,50.1,50.1,50.1,50.1-22.4,50.1-50.1-22.4-50.1-50.1-50.1h0Z"/>
        </g>
        <g>
          <path class="st1" d="M1221.6,346.5c-19.4,0-35.2-15.8-35.2-35.2s15.8-35.2,35.2-35.2,35.2,15.8,35.2,35.2-15.8,35.2-35.2,35.2Z"/>
          <path d="M1221.6,278.6c18,0,32.7,14.7,32.7,32.7s-14.7,32.7-32.7,32.7-32.7-14.7-32.7-32.7,14.7-32.7,32.7-32.7M1221.6,273.6c-20.8,0-37.7,16.9-37.7,37.7s16.9,37.7,37.7,37.7,37.7-16.9,37.7-37.7-16.9-37.7-37.7-37.7h0Z"/>
        </g>
      </g>
      <g>
        <g>
          <path class="st1" d="M1396.3,382.5c-39.3,0-71.3-32-71.3-71.3s32-71.3,71.3-71.3,71.3,32,71.3,71.3-32,71.3-71.3,71.3Z"/>
          <path d="M1396.3,242.5c37.9,0,68.8,30.8,68.8,68.8s-30.8,68.8-68.8,68.8-68.8-30.8-68.8-68.8,30.8-68.8,68.8-68.8M1396.3,237.5c-40.7,0-73.8,33-73.8,73.8s33,73.8,73.8,73.8,73.8-33,73.8-73.8-33-73.8-73.8-73.8h0Z"/>
        </g>
        <g>
          <path class="st1" d="M1396.3,371.5c-33.2,0-60.2-27-60.2-60.2s27-60.2,60.2-60.2,60.2,27,60.2,60.2-27,60.2-60.2,60.2Z"/>
          <path d="M1396.3,253.6c31.8,0,57.7,25.9,57.7,57.7s-25.9,57.7-57.7,57.7-57.7-25.9-57.7-57.7,25.9-57.7,57.7-57.7M1396.3,248.6c-34.6,0-62.7,28.1-62.7,62.7s28.1,62.7,62.7,62.7,62.7-28.1,62.7-62.7-28.1-62.7-62.7-62.7h0Z"/>
        </g>
        <g>
          <path class="st1" d="M1396.3,358.8c-26.2,0-47.6-21.3-47.6-47.6s21.3-47.6,47.6-47.6,47.6,21.3,47.6,47.6-21.3,47.6-47.6,47.6Z"/>
          <path d="M1396.3,266.2c24.9,0,45.1,20.2,45.1,45.1s-20.2,45.1-45.1,45.1-45.1-20.2-45.1-45.1,20.2-45.1,45.1-45.1M1396.3,261.2c-27.7,0-50.1,22.4-50.1,50.1s22.4,50.1,50.1,50.1,50.1-22.4,50.1-50.1-22.4-50.1-50.1-50.1h0Z"/>
        </g>
        <g>
          <path class="st1" d="M1396.3,346.5c-19.4,0-35.2-15.8-35.2-35.2s15.8-35.2,35.2-35.2,35.2,15.8,35.2,35.2-15.8,35.2-35.2,35.2Z"/>
          <path d="M1396.3,278.6c18,0,32.7,14.7,32.7,32.7s-14.7,32.7-32.7,32.7-32.7-14.7-32.7-32.7,14.7-32.7,32.7-32.7M1396.3,273.6c-20.8,0-37.7,16.9-37.7,37.7s16.9,37.7,37.7,37.7,37.7-16.9,37.7-37.7-16.9-37.7-37.7-37.7h0Z"/>
        </g>
      </g>
      <g>
        <g>
          <path class="st1" d="M1571.1,382.5c-39.3,0-71.3-32-71.3-71.3s32-71.3,71.3-71.3,71.3,32,71.3,71.3-32,71.3-71.3,71.3Z"/>
          <path d="M1571.1,242.5c37.9,0,68.8,30.8,68.8,68.8s-30.8,68.8-68.8,68.8-68.8-30.8-68.8-68.8,30.8-68.8,68.8-68.8M1571.1,237.5c-40.7,0-73.8,33-73.8,73.8s33,73.8,73.8,73.8,73.8-33,73.8-73.8-33-73.8-73.8-73.8h0Z"/>
        </g>
        <g>
          <path class="st1" d="M1571.1,371.5c-33.2,0-60.2-27-60.2-60.2s27-60.2,60.2-60.2,60.2,27,60.2,60.2-27,60.2-60.2,60.2Z"/>
          <path d="M1571.1,253.6c31.8,0,57.7,25.9,57.7,57.7s-25.9,57.7-57.7,57.7-57.7-25.9-57.7-57.7,25.9-57.7,57.7-57.7M1571.1,248.6c-34.6,0-62.7,28.1-62.7,62.7s28.1,62.7,62.7,62.7,62.7-28.1,62.7-62.7-28.1-62.7-62.7-62.7h0Z"/>
        </g>
        <g>
          <path class="st1" d="M1571.1,358.8c-26.2,0-47.6-21.3-47.6-47.6s21.3-47.6,47.6-47.6,47.6,21.3,47.6,47.6-21.3,47.6-47.6,47.6Z"/>
          <path d="M1571.1,266.2c24.9,0,45.1,20.2,45.1,45.1s-20.2,45.1-45.1,45.1-45.1-20.2-45.1-45.1,20.2-45.1,45.1-45.1M1571.1,261.2c-27.7,0-50.1,22.4-50.1,50.1s22.4,50.1,50.1,50.1,50.1-22.4,50.1-50.1-22.4-50.1-50.1-50.1h0Z"/>
        </g>
        <g>
          <path class="st1" d="M1571.1,346.5c-19.4,0-35.2-15.8-35.2-35.2s15.8-35.2,35.2-35.2,35.2,15.8,35.2,35.2-15.8,35.2-35.2,35.2Z"/>
          <path d="M1571.1,278.6c18,0,32.7,14.7,32.7,32.7s-14.7,32.7-32.7,32.7-32.7-14.7-32.7-32.7,14.7-32.7,32.7-32.7M1571.1,273.6c-20.8,0-37.7,16.9-37.7,37.7s16.9,37.7,37.7,37.7,37.7-16.9,37.7-37.7-16.9-37.7-37.7-37.7h0Z"/>
        </g>
      </g>
      <g>
        <g>
          <path class="st1" d="M1745.8,382.5c-39.3,0-71.3-32-71.3-71.3s32-71.3,71.3-71.3,71.3,32,71.3,71.3-32,71.3-71.3,71.3Z"/>
          <path d="M1745.8,242.5c37.9,0,68.8,30.8,68.8,68.8s-30.8,68.8-68.8,68.8-68.8-30.8-68.8-68.8,30.8-68.8,68.8-68.8M1745.8,237.5c-40.7,0-73.8,33-73.8,73.8s33,73.8,73.8,73.8,73.8-33,73.8-73.8-33-73.8-73.8-73.8h0Z"/>
        </g>
        <g>
          <path class="st1" d="M1745.8,371.5c-33.2,0-60.2-27-60.2-60.2s27-60.2,60.2-60.2,60.2,27,60.2,60.2-27,60.2-60.2,60.2Z"/>
          <path d="M1745.8,253.6c31.8,0,57.7,25.9,57.7,57.7s-25.9,57.7-57.7,57.7-57.7-25.9-57.7-57.7,25.9-57.7,57.7-57.7M1745.8,248.6c-34.6,0-62.7,28.1-62.7,62.7s28.1,62.7,62.7,62.7,62.7-28.1,62.7-62.7-28.1-62.7-62.7-62.7h0Z"/>
        </g>
        <g>
          <path class="st1" d="M1745.8,358.8c-26.2,0-47.6-21.3-47.6-47.6s21.3-47.6,47.6-47.6,47.6,21.3,47.6,47.6-21.3,47.6-47.6,47.6Z"/>
          <path d="M1745.8,266.2c24.9,0,45.1,20.2,45.1,45.1s-20.2,45.1-45.1,45.1-45.1-20.2-45.1-45.1,20.2-45.1,45.1-45.1M1745.8,261.2c-27.7,0-50.1,22.4-50.1,50.1s22.4,50.1,50.1,50.1,50.1-22.4,50.1-50.1-22.4-50.1-50.1-50.1h0Z"/>
        </g>
        <g>
          <path class="st1" d="M1745.8,346.5c-19.4,0-35.2-15.8-35.2-35.2s15.8-35.2,35.2-35.2,35.2,15.8,35.2,35.2-15.8,35.2-35.2,35.2Z"/>
          <path d="M1745.8,278.6c18,0,32.7,14.7,32.7,32.7s-14.7,32.7-32.7,32.7-32.7-14.7-32.7-32.7,14.7-32.7,32.7-32.7M1745.8,273.6c-20.8,0-37.7,16.9-37.7,37.7s16.9,37.7,37.7,37.7,37.7-16.9,37.7-37.7-16.9-37.7-37.7-37.7h0Z"/>
        </g>
      </g>
      <g>
        <g>
          <path class="st1" d="M1920.6,382.5c-39.3,0-71.3-32-71.3-71.3s32-71.3,71.3-71.3,71.3,32,71.3,71.3-32,71.3-71.3,71.3Z"/>
          <path d="M1920.6,242.5c37.9,0,68.8,30.8,68.8,68.8s-30.8,68.8-68.8,68.8-68.8-30.8-68.8-68.8,30.8-68.8,68.8-68.8M1920.6,237.5c-40.7,0-73.8,33-73.8,73.8s33,73.8,73.8,73.8,73.8-33,73.8-73.8-33-73.8-73.8-73.8h0Z"/>
        </g>
        <g>
          <path class="st1" d="M1920.6,371.5c-33.2,0-60.2-27-60.2-60.2s27-60.2,60.2-60.2,60.2,27,60.2,60.2-27,60.2-60.2,60.2Z"/>
          <path d="M1920.6,253.6c31.8,0,57.7,25.9,57.7,57.7s-25.9,57.7-57.7,57.7-57.7-25.9-57.7-57.7,25.9-57.7,57.7-57.7M1920.6,248.6c-34.6,0-62.7,28.1-62.7,62.7s28.1,62.7,62.7,62.7,62.7-28.1,62.7-62.7-28.1-62.7-62.7-62.7h0Z"/>
        </g>
        <g>
          <path class="st1" d="M1920.6,358.8c-26.2,0-47.6-21.3-47.6-47.6s21.3-47.6,47.6-47.6,47.6,21.3,47.6,47.6-21.3,47.6-47.6,47.6Z"/>
          <path d="M1920.6,266.2c24.9,0,45.1,20.2,45.1,45.1s-20.2,45.1-45.1,45.1-45.1-20.2-45.1-45.1,20.2-45.1,45.1-45.1M1920.6,261.2c-27.7,0-50.1,22.4-50.1,50.1s22.4,50.1,50.1,50.1,50.1-22.4,50.1-50.1-22.4-50.1-50.1-50.1h0Z"/>
        </g>
        <g>
          <path class="st1" d="M1920.6,346.5c-19.4,0-35.2-15.8-35.2-35.2s15.8-35.2,35.2-35.2,35.2,15.8,35.2,35.2-15.8,35.2-35.2,35.2Z"/>
          <path d="M1920.6,278.6c18,0,32.7,14.7,32.7,32.7s-14.7,32.7-32.7,32.7-32.7-14.7-32.7-32.7,14.7-32.7,32.7-32.7M1920.6,273.6c-20.8,0-37.7,16.9-37.7,37.7s16.9,37.7,37.7,37.7,37.7-16.9,37.7-37.7-16.9-37.7-37.7-37.7h0Z"/>
        </g>
      </g>
    </g>
  </g>
</svg>